<mxfile host="65bd71144e">
    <diagram id="7QrzBH3KiTh_IFNQtK79" name="Page-1">
        <mxGraphModel dx="848" dy="1699" grid="1" gridSize="10" guides="1" tooltips="1" connect="1" arrows="1" fold="1" page="1" pageScale="1" pageWidth="850" pageHeight="1100" math="1" shadow="0">
            <root>
                <mxCell id="0"/>
                <mxCell id="1" parent="0"/>
                <mxCell id="2" value="" style="whiteSpace=wrap;html=1;fillColor=#f5f5f5;fontColor=#333333;strokeColor=#666666;" parent="1" vertex="1">
                    <mxGeometry x="40" y="400" width="800" height="230" as="geometry"/>
                </mxCell>
                <mxCell id="3" value="" style="rounded=0;whiteSpace=wrap;html=1;fillColor=#f5f5f5;fontColor=#333333;strokeColor=#666666;" parent="1" vertex="1">
                    <mxGeometry x="50" y="-20" width="790" height="380" as="geometry"/>
                </mxCell>
                <mxCell id="4" value="" style="whiteSpace=wrap;html=1;fillColor=#fff2cc;strokeColor=#d6b656;align=left;" parent="1" vertex="1">
                    <mxGeometry x="55" width="180" height="180" as="geometry"/>
                </mxCell>
                <mxCell id="5" style="edgeStyle=none;html=1;exitX=0.5;exitY=1;exitDx=0;exitDy=0;entryX=0.5;entryY=0;entryDx=0;entryDy=0;" parent="1" source="6" target="8" edge="1">
                    <mxGeometry relative="1" as="geometry"/>
                </mxCell>
                <mxCell id="6" value="시작" style="whiteSpace=wrap;html=1;fillColor=#d5e8d4;strokeColor=#82b366;" parent="1" vertex="1">
                    <mxGeometry x="120" y="20" width="50" height="20" as="geometry"/>
                </mxCell>
                <mxCell id="7" style="edgeStyle=none;html=1;exitX=0.5;exitY=1;exitDx=0;exitDy=0;entryX=0.5;entryY=0;entryDx=0;entryDy=0;" parent="1" source="8" target="11" edge="1">
                    <mxGeometry relative="1" as="geometry"/>
                </mxCell>
                <mxCell id="8" value="초기 설정" style="whiteSpace=wrap;html=1;fillColor=#dae8fc;strokeColor=#6c8ebf;" parent="1" vertex="1">
                    <mxGeometry x="115" y="60" width="60" height="30" as="geometry"/>
                </mxCell>
                <mxCell id="9" style="edgeStyle=none;html=1;exitX=0.5;exitY=1;exitDx=0;exitDy=0;entryX=0.5;entryY=0;entryDx=0;entryDy=0;" parent="1" source="11" target="16" edge="1">
                    <mxGeometry relative="1" as="geometry"/>
                </mxCell>
                <mxCell id="10" style="edgeStyle=orthogonalEdgeStyle;curved=1;html=1;exitX=1;exitY=0.25;exitDx=0;exitDy=0;entryX=1;entryY=0.5;entryDx=0;entryDy=0;" parent="1" source="11" target="19" edge="1">
                    <mxGeometry relative="1" as="geometry"/>
                </mxCell>
                <mxCell id="11" value="메타학습 루프 시작" style="whiteSpace=wrap;html=1;fillColor=#e1d5e7;strokeColor=#9673a6;" parent="1" vertex="1">
                    <mxGeometry x="92.5" y="110" width="105" height="50" as="geometry"/>
                </mxCell>
                <mxCell id="12" value="Meta-Training Start" style="text;html=1;align=center;verticalAlign=middle;whiteSpace=wrap;rounded=0;" parent="1" vertex="1">
                    <mxGeometry x="87.5" y="-10" width="115" height="30" as="geometry"/>
                </mxCell>
                <mxCell id="13" value="" style="rounded=0;whiteSpace=wrap;html=1;fillColor=#fff2cc;strokeColor=#d6b656;" parent="1" vertex="1">
                    <mxGeometry x="250" width="290" height="180" as="geometry"/>
                </mxCell>
                <mxCell id="14" value="모든 Meta-Iteration 종료 후" style="text;html=1;align=center;verticalAlign=middle;whiteSpace=wrap;rounded=1;fillColor=#E6E6E6;glass=0;textOpacity=50;" parent="1" vertex="1">
                    <mxGeometry x="67.5" y="190" width="155" height="30" as="geometry"/>
                </mxCell>
                <mxCell id="15" style="edgeStyle=orthogonalEdgeStyle;curved=1;html=1;exitX=0.5;exitY=1;exitDx=0;exitDy=0;entryX=0;entryY=0.25;entryDx=0;entryDy=0;" parent="1" source="16" target="52" edge="1">
                    <mxGeometry relative="1" as="geometry"/>
                </mxCell>
                <mxCell id="16" value="&lt;div style=&quot;color: rgb(0, 0, 0); font-family: Consolas, &amp;quot;Courier New&amp;quot;, monospace; line-height: 19px; white-space: pre;&quot;&gt;&lt;font style=&quot;font-size: 12px;&quot;&gt;&lt;span style=&quot;color: rgb(0, 0, 0);&quot;&gt;학습된 베이스&lt;/span&gt;&lt;/font&gt;&lt;/div&gt;&lt;div style=&quot;color: rgb(0, 0, 0); font-family: Consolas, &amp;quot;Courier New&amp;quot;, monospace; line-height: 19px; white-space: pre;&quot;&gt;&lt;font style=&quot;font-size: 12px;&quot;&gt;&lt;span style=&quot;color: rgb(0, 0, 0);&quot;&gt;모델 &lt;/span&gt;&lt;span style=&quot;color: rgb(170, 133, 0);&quot;&gt;θ*&lt;/span&gt;&lt;span style=&quot;color: rgb(0, 0, 0);&quot;&gt; 저장&lt;/span&gt;&lt;/font&gt;&lt;/div&gt;" style="rounded=0;whiteSpace=wrap;html=1;fillColor=#dae8fc;strokeColor=#6c8ebf;" parent="1" vertex="1">
                    <mxGeometry x="102.5" y="240" width="85" height="50" as="geometry"/>
                </mxCell>
                <mxCell id="17" value="Outer Loop" style="text;html=1;align=center;verticalAlign=middle;whiteSpace=wrap;rounded=0;" parent="1" vertex="1">
                    <mxGeometry x="330" y="-10" width="110" height="30" as="geometry"/>
                </mxCell>
                <mxCell id="18" style="edgeStyle=none;html=1;exitX=0.5;exitY=0;exitDx=0;exitDy=0;entryX=0.5;entryY=0;entryDx=0;entryDy=0;" parent="1" source="19" target="23" edge="1">
                    <mxGeometry relative="1" as="geometry"/>
                </mxCell>
                <mxCell id="19" value="Task 배치 샘플링&lt;div&gt;&lt;br&gt;&lt;/div&gt;" style="rounded=0;whiteSpace=wrap;html=1;direction=west;fillColor=#e1d5e7;strokeColor=#9673a6;" parent="1" vertex="1">
                    <mxGeometry x="260" y="20" width="130" height="60" as="geometry"/>
                </mxCell>
                <mxCell id="20" value="\(T_1, ..., T_N \sim p(T)\)" style="text;html=1;align=center;verticalAlign=middle;whiteSpace=wrap;rounded=0;" parent="1" vertex="1">
                    <mxGeometry x="300" y="50" width="60" height="30" as="geometry"/>
                </mxCell>
                <mxCell id="21" style="edgeStyle=none;html=1;exitX=0.5;exitY=1;exitDx=0;exitDy=0;entryX=0.5;entryY=1;entryDx=0;entryDy=0;" parent="1" source="23" target="24" edge="1">
                    <mxGeometry relative="1" as="geometry"/>
                </mxCell>
                <mxCell id="22" style="edgeStyle=orthogonalEdgeStyle;html=1;exitX=0.5;exitY=1;exitDx=0;exitDy=0;entryX=0.5;entryY=0;entryDx=0;entryDy=0;" parent="1" source="23" target="27" edge="1">
                    <mxGeometry relative="1" as="geometry"/>
                </mxCell>
                <mxCell id="23" value="Meta Gradient 초기화&lt;div&gt;&lt;br&gt;&lt;/div&gt;" style="rounded=0;whiteSpace=wrap;html=1;fillColor=#e1d5e7;strokeColor=#9673a6;" parent="1" vertex="1">
                    <mxGeometry x="260" y="100" width="130" height="60" as="geometry"/>
                </mxCell>
                <mxCell id="24" value="\(\triangledown\theta \space L_{\text{meta}} = 0\)" style="text;html=1;align=center;verticalAlign=middle;whiteSpace=wrap;rounded=0;" parent="1" vertex="1">
                    <mxGeometry x="295" y="130" width="60" height="30" as="geometry"/>
                </mxCell>
                <mxCell id="25" style="edgeStyle=orthogonalEdgeStyle;curved=1;html=1;exitX=0.5;exitY=1;exitDx=0;exitDy=0;entryX=0.5;entryY=0;entryDx=0;entryDy=0;" parent="1" source="27" target="31" edge="1">
                    <mxGeometry relative="1" as="geometry"/>
                </mxCell>
                <mxCell id="26" style="edgeStyle=orthogonalEdgeStyle;curved=1;html=1;exitX=1;exitY=0.5;exitDx=0;exitDy=0;entryX=0;entryY=0.25;entryDx=0;entryDy=0;" parent="1" source="27" target="28" edge="1">
                    <mxGeometry relative="1" as="geometry"/>
                </mxCell>
                <mxCell id="27" value="개별 테스크 처리 루프" style="rounded=0;whiteSpace=wrap;html=1;fillColor=#e1d5e7;strokeColor=#9673a6;" parent="1" vertex="1">
                    <mxGeometry x="415" y="80" width="120" height="60" as="geometry"/>
                </mxCell>
                <mxCell id="28" value="" style="rounded=0;whiteSpace=wrap;html=1;fillColor=#fff2cc;strokeColor=#d6b656;" parent="1" vertex="1">
                    <mxGeometry x="567.5" width="240" height="350" as="geometry"/>
                </mxCell>
                <mxCell id="29" value="Inner Loop" style="text;html=1;align=center;verticalAlign=middle;whiteSpace=wrap;rounded=0;" parent="1" vertex="1">
                    <mxGeometry x="660" y="-10" width="60" height="30" as="geometry"/>
                </mxCell>
                <mxCell id="30" style="edgeStyle=orthogonalEdgeStyle;curved=1;html=1;exitX=0;exitY=0.5;exitDx=0;exitDy=0;entryX=1;entryY=0.75;entryDx=0;entryDy=0;" parent="1" source="31" target="11" edge="1">
                    <mxGeometry relative="1" as="geometry"/>
                </mxCell>
                <mxCell id="31" value="\(\theta \leftarrow \theta - \beta * \text{Avg}(\triangledown\theta \space L_{\text{meta}})\)" style="rounded=0;whiteSpace=wrap;html=1;fillColor=#ffe6cc;strokeColor=#d79b00;" parent="1" vertex="1">
                    <mxGeometry x="280" y="260" width="170" height="50" as="geometry"/>
                </mxCell>
                <mxCell id="32" value="모든 Task 처리 후" style="text;html=1;align=center;verticalAlign=middle;whiteSpace=wrap;rounded=1;fillColor=#E6E6E6;glass=0;textOpacity=50;" parent="1" vertex="1">
                    <mxGeometry x="330" y="210" width="100" height="30" as="geometry"/>
                </mxCell>
                <mxCell id="33" style="edgeStyle=orthogonalEdgeStyle;curved=1;html=1;exitX=0.5;exitY=1;exitDx=0;exitDy=0;entryX=0.5;entryY=0;entryDx=0;entryDy=0;" parent="1" source="34" target="36" edge="1">
                    <mxGeometry relative="1" as="geometry"/>
                </mxCell>
                <mxCell id="34" value="데이터 준비" style="rounded=0;whiteSpace=wrap;html=1;fillColor=#e1d5e7;strokeColor=#9673a6;" parent="1" vertex="1">
                    <mxGeometry x="632.5" y="20" width="110" height="30" as="geometry"/>
                </mxCell>
                <mxCell id="35" style="edgeStyle=orthogonalEdgeStyle;curved=1;html=1;exitX=0.5;exitY=1;exitDx=0;exitDy=0;entryX=0.5;entryY=0;entryDx=0;entryDy=0;" parent="1" source="36" target="39" edge="1">
                    <mxGeometry relative="1" as="geometry"/>
                </mxCell>
                <mxCell id="36" value="Support / Query set 분할&lt;div&gt;&lt;br&gt;&lt;/div&gt;" style="rounded=0;whiteSpace=wrap;html=1;fillColor=#e1d5e7;strokeColor=#9673a6;" parent="1" vertex="1">
                    <mxGeometry x="617.5" y="70" width="140" height="60" as="geometry"/>
                </mxCell>
                <mxCell id="37" value="\(D_i = (D_{\text{support}}, D_{\text{query}})\)" style="text;html=1;align=center;verticalAlign=middle;whiteSpace=wrap;rounded=0;" parent="1" vertex="1">
                    <mxGeometry x="660" y="100" width="60" height="30" as="geometry"/>
                </mxCell>
                <mxCell id="38" style="edgeStyle=orthogonalEdgeStyle;curved=1;html=1;exitX=0.5;exitY=1;exitDx=0;exitDy=0;entryX=0.5;entryY=0;entryDx=0;entryDy=0;" parent="1" source="39" target="42" edge="1">
                    <mxGeometry relative="1" as="geometry"/>
                </mxCell>
                <mxCell id="39" value="베이스 모델 복제&lt;div&gt;Fast model 생성&lt;/div&gt;&lt;div&gt;&lt;br&gt;&lt;/div&gt;" style="rounded=0;whiteSpace=wrap;html=1;fillColor=#e1d5e7;strokeColor=#9673a6;" parent="1" vertex="1">
                    <mxGeometry x="632.5" y="150" width="110" height="60" as="geometry"/>
                </mxCell>
                <mxCell id="40" value="\(\phi_i \leftarrow \theta_i\)" style="text;html=1;align=center;verticalAlign=middle;whiteSpace=wrap;rounded=0;" parent="1" vertex="1">
                    <mxGeometry x="657.5" y="180" width="60" height="30" as="geometry"/>
                </mxCell>
                <mxCell id="41" style="edgeStyle=orthogonalEdgeStyle;curved=1;html=1;exitX=0.5;exitY=1;exitDx=0;exitDy=0;entryX=0.5;entryY=0;entryDx=0;entryDy=0;" parent="1" source="42" target="44" edge="1">
                    <mxGeometry relative="1" as="geometry"/>
                </mxCell>
                <mxCell id="42" value="\(\phi_i^\prime \leftarrow\phi_i -\alpha\triangledown L(D_{\text{support}},\space\phi_i)\))" style="rounded=0;whiteSpace=wrap;html=1;fillColor=#ffe6cc;strokeColor=#d79b00;" parent="1" vertex="1">
                    <mxGeometry x="590" y="230" width="195" height="40" as="geometry"/>
                </mxCell>
                <mxCell id="43" style="edgeStyle=orthogonalEdgeStyle;curved=1;html=1;exitX=0.5;exitY=1;exitDx=0;exitDy=0;entryX=0.75;entryY=1;entryDx=0;entryDy=0;" parent="1" source="44" target="27" edge="1">
                    <mxGeometry relative="1" as="geometry"/>
                </mxCell>
                <mxCell id="44" value="\(\triangledown\theta\space L_{\text{meta}}\space +=\space \triangledown\theta\space L(D_{\text{query}},\space \phi_i^\prime)\)" style="rounded=0;whiteSpace=wrap;html=1;fillColor=#ffe6cc;strokeColor=#d79b00;" parent="1" vertex="1">
                    <mxGeometry x="590" y="290" width="195" height="40" as="geometry"/>
                </mxCell>
                <mxCell id="45" value="메타 러닝" style="text;html=1;align=center;verticalAlign=middle;whiteSpace=wrap;rounded=1;fillColor=#6d8764;fontColor=#ffffff;strokeColor=#3A5431;" parent="1" vertex="1">
                    <mxGeometry x="355" y="-50" width="110" height="30" as="geometry"/>
                </mxCell>
                <mxCell id="46" value="GKAN" style="text;html=1;align=center;verticalAlign=middle;resizable=0;points=[];autosize=1;strokeColor=none;fillColor=none;" parent="1" vertex="1">
                    <mxGeometry x="395" y="370" width="60" height="30" as="geometry"/>
                </mxCell>
                <mxCell id="47" value="" style="edgeStyle=none;html=1;" parent="1" source="48" target="2" edge="1">
                    <mxGeometry relative="1" as="geometry"/>
                </mxCell>
                <mxCell id="48" value="이미지 압축" style="text;html=1;align=center;verticalAlign=middle;whiteSpace=wrap;rounded=1;fillColor=#6d8764;fontColor=#ffffff;strokeColor=#3A5431;" parent="1" vertex="1">
                    <mxGeometry x="355" y="370" width="125" height="30" as="geometry"/>
                </mxCell>
                <mxCell id="49" style="edgeStyle=orthogonalEdgeStyle;curved=1;html=1;exitX=1;exitY=0.5;exitDx=0;exitDy=0;entryX=0;entryY=0.75;entryDx=0;entryDy=0;" parent="1" source="50" target="52" edge="1">
                    <mxGeometry relative="1" as="geometry"/>
                </mxCell>
                <mxCell id="50" value="" style="shape=image;imageAspect=0;aspect=fixed;verticalLabelPosition=bottom;verticalAlign=top;image=data:image/jpeg,/9j/4AAQSkZJRgABAQAAAQABAAD/2wBDAAMCAgICAgMCAgIDAwMDBAYEBAQEBAgGBgUGCQgKCgkICQkKDA8MCgsOCwkJDRENDg8QEBEQCgwSExIQEw8QEBD/2wBDAQMDAwQDBAgEBAgQCwkLEBAQEBAQEBAQEBAQEBAQEBAQEBAQEBAQEBAQEBAQEBAQEBAQEBAQEBAQEBAQEBAQEBD/wAARCAGrAoADASIAAhEBAxEB/8QAHQAAAgMBAQEBAQAAAAAAAAAABQYEBwgDAgkBAP/EAEsQAAIBAwMCBQIEBAMGBQIBDQECAwQFEQASIQYxBxMiQVEUYQgycYEVI0KRUmKhFiQzgrHBCXLR4fAXkiVDU6IYNGNzg0STssLx/8QAGwEAAwEBAQEBAAAAAAAAAAAAAgMEAQUABgf/xAAzEQACAgICAQQBAgQGAgMBAAABAgADESEEEjEFEyJBUTJhFHGRoQYVI0KB0STwUrHBM//aAAwDAQACEQMRAD8Aydc7ZVWm51Ftr4/KqqWQxSRn2YHB0HrPqclicD21qr8RHhFdrz4u1VN0bZaivluyCdUiiDKHHpb1DgYwpP66Qrj+EDx6p4A46SikLDhPrY1b+zEf9dL9z3AJ41MjEATPVTWzLwvI+dRWrJjk5BHwdM3WHQvVXRN4ksfV1iq7VXoNxhqE2kqezKRwy/cEjSrV0rQMGbIzoOhOxPBgDgydbKsyMW+eNF5cNHzgfGdQek7f/EbnS0KkKamVY9x9s6+nHg1+FrwpufQlOtb05QVkk0K+ZJURq8pcjk5xkc+2mIrGYxBnzHMrIdnc9tfjjPdsHWmfxU/ho6f8M5pr/wBF1UkdOkh863ytuCjGd0R7jH+E5+x1mD6hZMcjTU0cGLcTqI0JAzk9zqbSR7ZFKtg+331DpW3z4Aznvo+lEEjWRSM49tUoc6MQ2owWW9SUbKSDle+DqwbF1bHKwWRyCO2qiFSYQCwzjg6JW26KZAFfBB+dORypiHQMJoe0XkTpycgjXaumSWMle4+NV90rXVO1QxLJpvaTeM+rBGNdJbAy7khXBn7QV6q5ids4POdNEEUdRR7lIYDuNJEgWNi65Gf9NTrJeZ6RzFKd0bf6aU37RimcupbLEyNPSrskX1YA1GtVQ1dT/S1Bw4GP10wXAxVCeYncj/TQE0jQyCRGwwOcjWquZjGJ3XfREdxpJVeEOGB9tZb6z6MremqtmWNmpieDj8v21vGnjp7nB5MqjzMYIPvqvuvvDSnuVPIBCCGBzxqTkcb3BkeY6m7po+JikqDg69KGA76cet/Dy5dNVjvFEzU55HH5dJ0jeX6SMEa5JVlOGnQUhhkT0WABydcZHBBydeGmHzrmWyMjvr2J6eMEtrvChxk8HXMLzrtHkDga3GJ6d0JTOD/rqVDXmNcMf3zqAz4Hxri8rH31oMyT6mtEoxjn9e+o3m7u41F8zP5s67Jzojub4n8+WGRxqMyHOTqYQoOvPlEnOO+vT05RIQcqNSvLZ1AxjX7HE27DD9NT4aYH2/XWzDOljVqSfz/VhTxzq2elrilVGBK4bcOxHGNVhDFsBUDTV0rVtA4DHnPvqTkrkZEzMP3mgWnrHCnCnBUe2DpfuEe6NlByNMF5nerlDrnG0L20KNKz/OT3xqTq7CNXGIvwUrb9yZHOiS1jQhQxyBqbJRCBCzLgkcZ0KnVyxA7+3GgKkeZuJNkq1ePg840KkUiQkHg66tIYlCP7dtcSxbOecc68MibOVRUhFxu/XQye4FjsHscfrrpcZcKQP76FQBnnUZySeNU1zDHzpGmiDDzCS8hzp2uMzwUghRtpbtxoL0PaCwE7RnK85++jd+KyDDgIV4OujXuuSHb5itI5DmSR8tnR2wdSIS1LO2zHzqJRWpa1ztjYhffGu9VaKWmjpzBTOJlUvPK7k+YzHgKo4VVGB7kncScYAS9bIO0coVtQld6uGSGN6aQuZEySRgBskYHz2HP30Fakkf0yjczD41MRU+kHpI2HPPtn/wBxqVapopjsZVJU50kPmMZMDUDS0aUcZ3QntoUSzTcA4+Bp+ulpaekMwj5AJx76C1fTU1ruMlNVsjeSRvkhO9NpAIIPGcgj2HP6aQ9ZfzPIAPMhUlTMgSMqcHtjTdZ7XJcCI3OMDncPfXK02mNXFSI0DnmFH9WwezH2J+P7/GmW3SQ0eXnJJJzubkk+/OqKCtMF0L+ILutiaKidEcEkfGNUr1j0jPVyMVUk5ORrQ9VU0k6YjJOeD9tAaiyUc7M8i/uRro5WyS/KszJ9x6fuFvY74WZR7gah0tFUVcwhhjJYn41p67dCUlehCopH2Gg1r8MYIKzcsIHPfGvfw4jBydbEAeGXQM29ZZY8k4Jz7nWg7Xa4bZQgOg3Y+NQOmrJT2uBVYKHHYaJ3ScmFgnPGhuYIvVZteXOWgGvdHnZgoB9sa/J6eA0O/GWIzjUdA0k38z/Fxn31NqIDEAoORjhdc136+ZdWpOhEu40wibzI1KZ76A1tI1RjaNwY86eK6iY75JFOMaBwQruZ1X37aKnqxmWZWL5t70+VKkY/trzFLtfaDnBxjTTeaNY6YSqO40oxbfq2jI5J7D50TAZ1MGfuNPT9fLQ1iESEAnse2tBdM9T1UtFHUQ1o9KhZEc8Y1nSGI7RJ76Z+l7nUPOKXz2CsMDn314E5ntRp8UbnHenLvUxCNOCoB9Wsyde2byalq+ngZEDc+nGQffWj6u3GoDJL61cck/PsdLlZ0VFf6aWmqIAsS5Vsj/UnT0yIthmZqhc57jUlZD20d6w6IqelKzaH82ndiI5P+x++gCZzjHbVSnMURJaDIzrwwYc8416i4411dBjvop6DZQ2c68FjqVNH9tRHUj216YZ6EmO+vx23a589tfvOvTJ+5x316RCTrxrqjAHB14jM9PuNS9X9A2m1xXiP6OeriTzYo3IWTOPVtY6r/rL8T91pLysB6Vpqe3rGJFardi0y/ClcAEfvqq+n+l7pJV0xqa6dqenlEhidj5ZIPuPfQD8TnV9tW0U9DR7Fkh9lIwGPt+mvlOLz/eIprO59PyeEKVNrjUqb8R/i7B4pdTQz09vSnht+9E53HnuM41SFY6VTiPbqZVtOxLRnO45bPzqOtHKzh9p76+hQFRgz5mx+7Zjd4T2B731pbaGJcMshlXJwCV55Pxr6I+GXUty6euVN01V1D7KiImPa3AYHtz2188egbvN071BRXKI7XjcKSRxz860fB4lTVNRR3N5grU5wEBwP11lvJr44+Q8yji8duR+k+JYH4xel7zWWZb+JJpaVUKTc52E8A6+elInmSEFc4ONfS66eKNg676BntlXCpqKikenlp3H8uTIILZzz8/IOsI9ZdCUXTFwlltk/mUsjcBu6N8Z9xoaVVyXQ5BmcklMI42IrU8awLuABI540TiqwYiQBz89tBaxnjUjnGvNFUyYG8nA7c6dnBksMT72OQupFppC9Wu4dznXOKdZYgE7j51JoKvyZx5gwwPzqmsAxTnHiXV0JaxIiq2SOO+rFWyIqdh21U/TPVUNBBF/MAA7nTuviHRtTDbMu8j510lCKNyBuxM6XW3LC5BHB+2hQppKZi8XK9yNfs/VsFZJiRhgng67JVxGPerAg6AkE6h4IG5wku6qChOCowQfbUf8AiQdgN2R7aiXJYZGMqHB+2h2115U5HxnSTYVMMICI0UNeVdWVsc5GmqGSmulOElI3ke/vqvKCchgpzkHRymrXiwUfB+NNS2LKGAevuh4rnFIiQKcg+2svdeeF1ztkktRSRFlUk7dbRpK6OrcxTkc8ZOhvUnQdNW00k4RW3D476VdSt2xG1WmrU+d8qSRyNG4IYHBBHbX6mdXb4peEFTBVPcbdDsk/qTHDDVOT0M9HO0FRGyOpwVIxrmPWUODL1cMMieYvV311xj2Gdfkan31IVF79tKMKRmjJ/bXJ4yBxqfsBPGuMkRbjWAzZBZRk99elkKgDP99dJIWHbH31wCljzowZ6SIm3MNEY1UgADUCmhJPPvovDD6QBrMz05eX6+B2+NTqdcc41/RwL2/1+deiRH6T31mZk9tJtzz2Gf2059C2d6qnNfUD0yMQgPwPfSDPMB+U9jnTh0v1StGI4JTlB7aNQG/VBOo7XGzfTxCdSee4Oh0VOka7tvqb21Km6lhukkcELZjTk/dtc5gFBfHPsdTPgNgQ1OoOrMMSGOSeNR47es3qAAA17YeZMzMSQDqaGIgJGBxqdT2bcZ9RZusChtm3Qxsx8EYGjF0l2qzA5PtnS9JMzZ3d/wBdO6iZmcKqDzDk9tT+mLGtbVee4wqHjjUOd2ji3fA0d6PqnRVDqSrMTxplSjO4Fh1LEolitdCJ0YKMY+2g1RXG51KxpICGOe/fTl0X0HdPEO8U9htzyI+CwEaM0jnB9K4VlBxk4fapAI3Aka1T4eeA/gx4f36i6V678SbZZbssazVdjSQVdTVM+Fj3xgvCANwKHb5gUkHeMEPZj+kT1VJI7GUj4Tfh68S/ExGi6TsyFI5VhmqZJUMCAjd5hkUkFNvORnJwAD3Gj+j/AMCXR1muNNSeJfUdf1NVLUw+bTWYrSUMETnGZZpQZXVmIA2Knvg851cPWniNZLz0zcLV4aNR2XpOySfSyVtFE1OlTUhN+BsUYVVDbj3JwCTnGq+6Z/E3/sxbRan6RqLwPKfFZBThnK7mCU5Uqqs3CjAyTkkA6atYddz2Oh1He+fhP/CPYrK0l18IphBHuQVFLeKz6piCAC26VRggqc4wDntg6SOivwv/AINYZa271Nq64jkpgWNLX3FmVfSQyqIkDcAE5fjJ4OQBqmurP/E5uVVcTZrR0+LHtn8qoenTzWMbcMhd2JOMgglRgjbyNHLL+JC29c/VVlPTT0VQSkhudKSm6ZkBDFRwiO6quGyAxLcAa1OMhOMbmtYwHmXhX/gR8CutqFl8N+sr7Z6uKQGSKeQVsagoSI9rqGHYncGbkEc+2RPFnwD658Na65U12sP+529zN9WKpGpatOSksbsE3gKcMoBO7jAzgWx0D+I+h6So4bwsVTQXIJsq6uCceSku3awmiBy6oXJ29xtz/UBq6OivxbeBf4iKKp8J+qVVa2oieAVAKyJwPL80EYK/mxuHHrA/TLeMK26gTK27jsJ84p5K23zwT10MkC1IaSNmxtkUHBKkZBweCPb3xrslY9XMCuNv+h++r58b/wAI118PqAV/TEtNdaKpWQxlBHDHTvv9YLSNnO3aBlt3bvrO1BVNTSmndSJYiQ68Egjvn2AHz21yimG+UfsDIhlXcPnZgj41GrLh5alhwe2pJrKADza2pKEjKRxgBmOOOT7fcDH315lpqOoRpFJVSSVVm3cfrgf9NN7/APxMDrn9UH2++BpNkjDv8aaaWaCaMGMKG99V7VxijqWaJhjPbRiz3FpMB2AHYY1TXyuowYp6AdiNb1/lOQxBC/667GpWeIgH2zodNTFkEgO751yhWQMUAfHc6XYxbcYi4kG51X05BBwVOde6O+x1TAOcke+ul0t4ql/Id3zpYagqqKrDAEKPftxqY1Mdt4jxYF0I0VcsssTsV9Gl6ANJPnHpJ0QhqGeImaTIA7a4xMvn4B4J+NNCADUEvnzJt1p/OoP0Gq6nDRVxkC8hudWpJCGoCvGcaTksaXC/U1F2E0u06KtczW0JCFwAUJnOpNquBirgyuVKnIOdWnJ4XW6qtnlLSqDt2iQcEffVSi1VFruk9vqgVlglMbH9D30JBVsTMgiWpRSLcbaCxJJHIH/XRG0zwiRbXWuULNv8wj8y/wDrxpd6UmRWjpZZMiTAyPb76uSy+H1srKOOuqElO0kR7TgsPfJ7Y01SW8QTgDcqbxE8OKPqa2vT2umIlJEiSAkjcPn9dZqvHT9VbKqWlqYWimiYq6kYIOvoZQWG20jCKlDNAQQQ5G+Nh7H5+x1UXjv4ZWC5Ub3K2wCCuhQt5i5IkA/pb/11QpK7iTMdbjG+1hrt5i7eTr3dITFKykYZTgjUFJDp8yd3w3/fUaZcjtjXQyg65uSRn++vTxxOG3HOdeD74410bjXFsnkAnXphn4WwR/66/Q+DrmwI/bXgZzx7a8TiCZ9G/EnxcW1QzW+yMGnHHpPY6y91n1Be7xUtUXKokmfOVBzgfpp5s5hvDNVzy+ZNMdzMTnXW79IQVK7hGCMa5HD9Pq4iAVjf5nV5XOt5THudfiVLbpJWYGYHHsD76NjyUi3gAaOy9IfS59HA0IuFE0QZAuB76uXIG5y2GTkT+pHSVlPuWBGnymM8VPEXOR3znVTG5PQyhVb8hBwNWXYLil1ovK3AMAGGo+Z8knQ9NOLI1Ty1s1nRaGaQTGIurBuFAzqyPBnoCweIFpei6lqRMVjxJFgb2+4yNAvDalsTUrQ1zRPLuZJBI35V9sfbGdFrPQz2K+rcLRXyUwDFEaJyuVPbOg4/YV4WUXorW92lMePPhRb/AA46nW12mslno6oM0azYLxEf0k+4576q+WiNKmRITz31e/jv0/1FW1NP1DWmSojVikkjNllz2J+2Rqn663kQkDJJ7DXQrHZMnzOTdhbCo8QD/FhTDyw4B+TrxH1ApmAZ+QcaE3y3VagsqFTntpZ31UU+HZs540IdlM3orCW/Q9Qvs2LIca/I7zXLUh0qX25/LnSbZauQqAzZJ00UqLJg5G4/OqGdmGYjoFjraLxNIy+fJx8599ONDeGCbC4Yaq+lqDEQOdGKG8PG208jQpaVMB0BGo61lyUJknHOoUF23vjfu55xoYK6OpjwPfXCOLZJvWT31QX7RYGI6wVQKb1510W6YOd+g9G7+UBuA/TXKpDrICrY3ffjW+JmMxppLmC24n75zpztF7jkgWKZ96Hsc8jVfWKlrLlItPSUc1VKf6IULt/YaL1VDdbDUCCtoqqkcjPlzxMhx+h0SWEGYyZjF1T0rRXmmLxIpyPYazL4t+FMhZquhh2zRjIIHf7HWkbNfCT5MpJQ8EH21J6g6aprrStIFVgwyOM6OyoXCCjmsz54zRS0srQ1CFJEOGU8Ea8iUAavnxX8H6iWSWut0O2Vecgd/wBdUDcKSttlS9JXQPDKp5Vh/wBNcx6ihwZejhxkTuJwBjjX75gJyNQFc57866CQ+xOl4hyW20ITxqMEDPwO+v7e3Y+/bXuHIfJ16eEl09OQM4x76nxgKuAOdRoHAyScakCUHvr09JKDK8YHGo9SDuGeddkddoGQTjXKZgwG3jn214CYTID5J7d9Saambjk99eWXbyO+j1tiilUHA515zgQWaHen13oqjGQB30wyiQRknkAc49tA7Z5dKSznCkd/vqfJWqyMol5PHB1KwJ8TK2ycTxmMPkYydTFMbRNk540OkRkG5Vzrl9Y6krkj7aQAQZQIIv0ijcAcY4/TQKIozbjzole5S5O4DnnQOKUtNHCsUkhdwuyIZduey8Hk+3B509X+jPYhajt1FdJBTyXFqeZnxhqdnjK8Y9SEsD3/AKSNWh074d0Swxv/ALVWOIKM7pJKke3wICft21D6C8OhLNHcKzo2/U0TuQk93uUVFFgc4wYVJ4x2OrVvFH05ZbYqzS29GK8/T081aef/AOI8cef3I1fSvxyZNYT2wJcv4eLJZeiOjOpPEiS92W81vTtuqbsKMtMqwKkJaOUM6pt34GSyEAKeQMZx50fZPEbrrr2s66r7vHX3apqhcprjRut22O0nrkdKaRpFVDtPb8oGAe2tO/hq8VelquzX3wcmvtzaTqKjraWmpDaIoozNMojjZJYt5EnJIU5HAx76rTwF6boLn4pjpmuttqqLvSzRR1UlZ1AaqWhqI5nQx7BSiUyZQH+Sy49OXK5GhRRYSPuW5KKpHgTbFz6NrR4OWOzCvgNRT0skhjWYt5rSyMzncVX3IUqUUgbSFHv85/HCz+IVhvPURvMVdPbJaqNJHkjcxR+We4Q9sYGeB7H419N/Fi8V63CKqaSTfGEE4jU7fI4BRiwwV4/qwQQPVjjVMdd9N9TdXWi6W+gt8U9skjZvNalkE0ff0FfUT7AY4I99WKOo6r5kpJbbeJ84WHT92pqZxRw2+5RTvPUTUEcYSVcELHGqDIyDlizADGAp7i2/ACju0nWJpaemMiVlOk08YYuitjb6wOG4J7ZJ5xqZQ/h/W235Yr59XS0IIeXfTPCjMWGUHdjwV5HbIz9rst1B0n4f2FqyyiCAVRRXqkBYxKMlztAzkKGP6L3+bqEHYWWaxIrWOOlf3FLxq8MOqrZ4Z3OpggVKGlrRNNHTMHdYmKsc4/Kvq7fCn76zz0BWjo3xEsXVHStwusFfQVkK1VWwMSYYlZVX1b5CQwHKgAFhg45+oNz8SPw73mij6TutrqLFJXRRKayNITJHuACyVEfmbnVgV3oU5DDGDjWLLv4EwdM+Oi03TtJS3iwCXz6OqpJt6+WJGTGSOQrKyYI3DAzznU3ItFz91U5/EporNS9XIx+Z9BBZr/190b0v1HTy2y+0dNS1tvu8KwMYJCAhpquJWA8tlZGzuxw5z24+dnjr023SvX1dSWmhWihrZDVRxPM00mXy2597MS2GBycgnJXsdfTX8KHUlfdKC42KueSjVKOKWNI1zFEoJGVLZ3D3yQBgazz+L+tgs1bVPLT0F/iu1Qoppkq7fUSVQXO1zst7MVQgqV8/d+UE+2uPfWEbc6CN3UjEwpS26qaQTSu7sSMkkkn99MT1PlUSpjkDC599E6nqykmhEX+zloUg7ifp0Vv0zGiED7Z0q1t03thlXHwvYf8AfSWdK9RfVmgqpermqiBkg86K26b6V1R+fc/bXmN4pE3kc/bXJJ5DLsCZOeMaDPbaw/GjHmivKRqFYAgjU6CaGoQyKcE84HvpPp45zk98EAD40QiaSn2vvYKDyBpi2FfMBkz4jOAqhV2bs9znUW7WpZoRKu3OOQPbX7S1IZQwY5986nDyamNk8z1Y550/3AwwYvriVxXuaNzG7MMdj86g01XPJUKu/ABzxot1rFFDESr4ZTk6XrFWQzzqWYZxpJIEYNiOH8XEdOAxxke+l6e4SR3Ba2ml2TROHjYexHIOplziLwFohjK8aXVIV8ue/fRI32IzGRuXanizBV2WORYY45vL2yBfZvf/AF1WF1vUFbeGqd+5yPWRzk+2gNVSk/8ADcjdwcHXay22RZSp9XPuO2jJJiyMRsp7xHTmOdSQRyDj31dHQHjLQS29LRc6SQmEHZNGd20fBHfvqkayyypS71DD7jQCz3ers97UMzBTwR9s6HLA5haIxL/6o6zusd2hunT0jmOIlpo5Rjz1PcHHb7e+gXU/iG96o5KeCkkikdSrBiCB86L9O1Fur7THUQkSPKpzleQfjS/1PZHpsz06hWYEEAdx8jT1/MUR9TNXWVDNRXKUSRsqSMSpxwdLJG0cc41o09EW+8WySsuSeZuY7F+Me+qp696KFn2VVBC2wttIA4wf++qFbAxF/cRC3xr93H9dFqLpe4VjrvjZFb7Z020Xh1OsSsq5J7kjRzDK+jiMrYHv86I09nMoAC9/fGrHoPC55yJJIm79scasDpnwmgqmRJaJSNCXC+ZnVm8TP7dM1EgxBTtIx7BQTnUqk8L+q68gpbjGDzl//bW0ulvBWz0+JvolMnGMrqw7b4QQNGGFEE+CBqO7lAeJVVxGbbTE/RPWCxhVaUZHB51atL1NSTwAb1HGsw2arlomHPuO/Onal6i2wg7iCfvpdblZnYNLcrLtBKSu4HS7eDHMp8oZJ0p0nUBeZRLNhSe50fmmQwLMjZyPnOdM90mD7cXay1CRi2MN99GukqqaimSEsTngAcfprlJUxYbcB86H2y6w095iV+ImYA89j86GzqVwZlRNb5E0H0l021RGLhKSGwCwxoxe7ituiGZCpBypx76n+H9dDXW6EK35QFcD40P8TLDUy5alZlDYI44A1i3J16+JeamLdjuE+vaa+dUeHc1wprcrbqXzW2t6mUDJIX9u2s5U83njyI4nlfGdqKWIH7a1x4Q9S0l06bfpq4bI5oF8pJgPUyY7Y7ZH/TUOy+GPSli6hmorfSbVq2Mih8Egn7/H/TRU3aOJNyKCWBmUK6z01TTkuozgg5HY6SLz0qoO+Nc41tHrT8MvVHUtzNfZai10ryKdyHcFf4OQO/7aDUX4NuppkEXUN/jo6mQZVaaDzY/3YkHP7aqDJZI2R0Mx1Q0zUcgRx+mdNNAAyqQ3I5xq4+t/wkdd2OYTWist91hPAZcwOD8ENkf2OqxuHQ/WXTUrRXfp6vgEZwXERdBj/MuRp1fVvjAfsNzygBIDHGfbXaOMpJjcMN21DidZcxy1UUDqOBK20E57ZxgH9cD76kRrWEIskbqVG0HHDjnBBHBP3HfQvUBFBjDcVPLEVcHCOodf0P8A7gj9tdQ7I5AcDRfo/pXqnqpBS9N9N3i7yggqLfQS1GQTgj0Kfdf9GGmeu8BfGCLyDN4UdZRNO+yPfYqkb2/wjKfb/XXgQv3NKltxUoqhlwN/GjVmtst+usFEMlCwMhHsucc6s/pr8En4kLxTJWN0BLQo4Gxa6sp6dzk+6F94wOeRntxzpjtXhvc/Cymlout+mau116Od7VcJCTMCBhG/K688bTzo2uULqbXSzNgiWz0R/wDT7w76fgnNPTx7FGTEgaaRiO59yf8AQarfx36+6X6uWnp7Mu+SB96yOuGGf6fnGM6A3a80q2uWaqnVMljjvtX2VR841Sy3SeasaeSXJZztUnJC54zqTjs1jlvqWctVprCDyY500YHqC/20ct94FOBDNgoe4PtpTgvkcca7iOddHucM7elhzrpq4E5LLmOVxslDe6UvDscMNUD4ueEVJcYHkig2TJko4HI1b9tvElukDrNmM8Fc+2ilTDb+pIv5ZVieCMdtZb1ddw6yQdT55XSx11mrHoq6FlZTgHHDfca4LDn51t/qf8O9D1ZTvupWUnOGUcj9NUX1p+Gvq7pUyT0wFRTrkjdw4H31y3IU4l65IzKbSDONdBAAe2pdRRVFDO1PVRNHIhwVYa8YOMfHzoMzZwUFT+mu8eNc3O0517iYnWzJ2ycH41zLYBJOu6j04GuEo4wDrRMzPBkABxqVS18kOMORqC8Z4P7a9ouFzrcZnsZEK1HUc6RbS24Adu2vdou8k8mWcgZ7aBTghTxr9tsxSQDdgk690GIKgAy0fq0aFWBByNQZVLynGAxHvofR1BdEVWz+midLCJ5MMRz86jZD2jwdRcvCkZXAJ0vtG+SWGPfVjNYxVvgIDk4B15ruhZIotzR44yMEHRismb2xJPhnXQxuruo81eNxGSf376ceveoY47ZuqInkfYGihVsZHy5ByFI7Acn5A50r9F22ClZ6iby8U7qgjZhmSQ5wNvcqNpJ9uAPcaN9XUouEJOfNlflie5J9zqliQmIlQC+ZC8FOvPEjpzrehvnQbRx3Wn8zyYo6IyoykDMYjVTjPbcMNycuO+tx+GXh0l3rqP8AEE8aUN1rbjHR3ezQVf1EP81GU1DygiKORpY3ZljJAUY/MCxxx4T2yoFyayQ2mw1Ir8K0l3ZtkP8A5Ru8tycfleN849sZ19Kululqi1eDtuk+ts1XVl46mNaCmkgo46dFUKsEZbBUEjLhRu/YDSkJrsDD6lWmToZ46lstlu9SlRc5JpWKsvlxysqbSP6UBHt98++oVv6ZstFSsbNSNM2D6ADu3fdizd8Dsde1r65Ec1jR1FRKSC3lhUX4zlu2fYZJ+2itvmhpqcQoojJG9p2JOT75Of8Ap/fUo5RLljK/4cBAomSuvev7T1HdJuk+r7VW9PtbKxRH50ZMbuDhogVyAclSHIHwPnSz1TfbTQ3+CaLz3hMuKsGQ1SoyFS67SfybQyqMe5zxrTXil4TdMeIIFTJTwGvkUbZYRuy3ZXcZywGe2dVFXfhw6NtMsEl86jraQtuWGSp9PmFQcgANuwFwB7gDJ1VZ6h8eudxVfE+WcSirr4P9F3y7XC82HxUt8UVwrqeeCKeoqJZoaePlYSGQ5II/LyCM+oYGtOeDCUsaU1qgNxuklJTSSmWZtvlhqh3VnweWO88HJwCfnX5Q/hu6Xpkg8movdVHhMtPOwEgGcZII4OQOxPbVn9E9L0XQ1lhs1n3Ty4HmSkAGQ84JIz+nyP1zrmrzbKsnt/aWNxkfAxLK8Hrb/COo6m71V0keKogeNo3OGxxhUZTyfgDn41kH8Wl36bm6nucfTHUdL9FVKwNPTWeljNQpIyJp4FDyMTuDJOVdSvJORrSHi50n1PYug6bq2mWiaJIJProaiZFkhRhuVmBIV1IUqyEZKsSpXGRhLrad62WaWu3O7flrQm5ypJ2GXgGYEAASn1sBklzqh3boM+ZKAO5IlbVP8LhOahamnRxtjlpyJ4iwPOVcqy/+XdkfGNcaiht0lHNVQ9TWfzIV3LTzvLBNL9kDx7CR8bx9s6EVFRVUdVVUryAKzFJCjBkfB+exHwdC7jUSyrtiBz9tTMGY7m4C+IQp7gJpBGrkZAxjjTJY7VNUSNJ5g5HAOkC2xSx1SPITyeeNWVZJVg2MzkBhjTqgVOIh8HxDEVEtKhdipxyR99epjHNFuQAH4++uNVUwwqQrbiw4z/prnbn3zbHIxqggZgKdTnPPNS4dckdj8DRC0Vss9RujUgdjr8uUUCADCkDuNR7TWxpUGMALkcY9tNRQYDkwb17Ss1NIwBPB9+2q46ceWGr9Tdm1bvVRR6FyQGLLjVPJOtPdGUfOk2gDxDrz9yyXaMwDdjBXjSpcXSKcoAMDkanxXNpqdRu7D30MljSpn3nJP21lK/mMsOPE9w3CMAZ7jvnRe3VwR1kGMfOgs1pnUmSMNtPwNc4Jp6V/5me5401lMWGEsZbtHUUpjdSCo4zpQuFOlTVmojBVgfbX5R17kkhuDxjRK3eXVSEMujQ9h1Mwj7jJ0Rfaiz1EUMkymndwGVx+2RrQ1vslqvlAJauKKSMrjGOD/wCmsy3GkEdNuTsORjTb0N4u3SwURtFzT6inPMco/On6/I/11qg1nBmE9xqPlT0BbrPXupqJpKCZs+UTyh9sH3+NAeq/DqivEaJSUzRwJyNwzu12TxUoK+ZI3V3BPJGrY6OudmvdLhaT0qApMgBOdPH7QNDzKOtPhnTREARZx8jTha/DiCUBRBjnuRq3avpCgSIT29FT5HsdFbBZIiyxiMMRweNestCjU2uruZW1u8NqKLaJYRt49jnTtZui7fRgSJTAD4I9tWdQdM0wiDrEoIGMYzqLW2OaWfyqeMEnvjjA1zbLixnSrpVROHTlktzlQYkGPtp2p7ZTQgBYhgD41C6U6Or5ZBIapEhHB9PqJ+Bp0PT9NBF6TKWHy2klHYZjO6jU+GVIIi2ODqbMVQDacDtjGgdI8hYMp0fpYWniORroionxPnjeFM/qepYOOSR99MlFcJ5qfy4VzgdvbSs0RgY98jU6xV8wqmp07Sj/AKa8QF8ypH7DUJvcpmJideR31Bnckb0bkcj7a718M9HWP9QB/M9YI+PjQ2omAPoP+msOMTSDmaT/AA/dWRVEEdLWz/zCNp59/vq2OtWlahYpjBX51kHwirbnF1dDDSO2xxlx7DnvrWd+qGjtULVTYkEY4Pvrk8lWVgR4na4VgZMGLfR8MtBXNV72iOeSjaapOrZbRc/4hC/1LflJkJOR8Z0vWOto5kMUjiJwdyk8Z0y9I9MU/VPUNPbpJwomkweODohzzWOgEI8QOexMZLf439WUU0VQkFB9MhBWF4zyP1znUm8+NHUFzkhlo682yNZBIwjKnP25zxqd40/hnvFt6Ue+dGXGVqyBd70zruWZQMkIfZvj2Osp1Fj8UqyKVBQmm2+lvMfZKP8Ak751Qq3t8s4kj20oevXM01/9Xp6mQpXPSVKhhxs2c/ORoz0/4h9J/UtUXKE05Y/nRPMUcfbn/TWcekfw/wD4ga7yqmitcUtNKRuaorQEIPsy/nH6jkfOr16D/DnWWy0/7R9f9aU9ut0qpEzzYjEMxY8R7m3yjA7GPJHIPvqmtrahpsxPwuO1xDxn6H67vDWuy2unulc4A2RW4uzAnA3DbnGSB++rH6Z/CZ0LZGgqequjbfWV9VOJIrTTLtgG1hvdpU/OwH/5NABwcsewMdIXjwe6EW22Pw8qaG4dRXYmCru8Ks0NFTkb5SAznYf5Y4LZVjkAEkGnPFj8VdR0WJbPbJUFfSSPGsz3No9yEE7yGGH3HLAKdwzkctqpA1nnzEOFU68TY9qtFF0LZo463qCj6atVMDsp6OCGjREwSAY4gAoBOfc57nnX8vjJ08lGKm1XpLspljgilWqTbJKQBgjuMkjgDIPtjXx969/Eh47+I10lgg64qPpK5JaOqRbhDHGsIwdzQElwuRknG4gPjGMa4eEHif1zbbpZqC4XStjoJl8s72wUccxMDnGCBkN7jPOnLxj2AbUQblIJBzifWq5+Mdytt0oEe2S1X1TcMXVIz6sggDtwSPkkewB0YuniD4b9YxxWDqqno6ikl3StFUiOUINuFcqxJTlioPcnt3GsSL1N4kyUidNyJUTWinZY6e5/zXCQOMspk7+oMdxyc4J798q+N/WniJavES4dM2W+T0yVVRFT03lsx3vkymTAyzMSq4A5LbcY02/hmlMt+cf+/iLq5K2NhZ9AfGf8IFZV0yXLw5Z7jayjS+UZQ8yRgFvLQBlU855OO/J74xn1h0pdejqr6W8WpKeTkxxu5D7CfSx8slOc9gx7Eacvwbfir6h6GnfoPrqr6ikr6ipSESb5KyJ2Ibh42LeW6grkKD3wdpXWnfHPwz8NeurtYrTdrtV2zqW+06tbdkYEM4HqZAvHrZ3CDng4zjOdShhSAv0Y96zyPl9z5+S3Cv3iCFXkc8AAEk/tqfbbpVRyhKl1yO4Vg2PsSNNfXXhleekKuqhuEVQgjcBxJSSpnLFcb9nlkAgDhiCeBnGlGCi8l8YxjWrknIkrALow7NdyI8g6ndIdSyU9x3jO0EEj50B+kMq576O9L2sCoDbeQfjTyWJixgTVPh/XWm9UsSehWKgkHR/qroWyXOkMNRTI7OpGQO2s+2m6XyzVSSW5iAvce2NPbeLzUscctxjlGwAOAOBqeyomUpYJRPiv+Gm33O4zrbohDI5JidVzg/fWVOsehOouiLnJbr5b5Idh9Em07HHyDr6sWFLV1hFHcaQrIjDIJHOlLxa8DbT1NbpWloY3LqfbnPzqPBWPIDT5YvFn2Hxr1Gm0dtWt4ueCt56BrHq6akklt5JyVXJi/X7arAIMZ00EMMiKIxOZBGo0sm04PvqY6+k841CmQlue2iEAz3Ed/H99dDGQM868UyhBycHUoOpGD/bR4E9IUwPOR21EB2Sgj550VdVII98c6F1AVDxgc62ejXZqmPIUEZGmKlkRXGcari3XQwuF9x99N1tqnnUFjknU7qQciMU6j1aqmJnWLjOc5OnYW6KooAqKPy9tVla5ZI3ViM41Z/S9QJowsrYyOB8abSC0xiMSva231NDdzNHEQAcZA0ZoqiXcKiopYKgRHJhnVij8EYbBBPfPBHYabr3bIlJnEYOR8aSrjUrBIw3YQ8EZ0br08zFP4lj+GFtv9elXVdMeG1pv5SSKCSteGonNqbk+biFneM4BO7y2b0+nng/Qfwt6epIvDi8ik8PZ+lbc9EJ2rZq+ol+uyAd0IqAswUurZ81VbJ+OB8+PBjxAukt/jrbpfJaiohWSnpJ6SAS3eNmXBVJoJYqvy2DFThmxwcHtr6U+Dd6Tq/oCtjP+0NbQ2aCaBau/UksLY2rmMtLHHJOysrAMyg853NgHUjMGbAlSAhcmI9r23KEuklPIyORIMMuPjAzntqDU215JfJgmhYZ3lfM2szf+UcnQ+uuBo5Xqg60cqkpEY+5/Uc8H7/6aVrp11cDUT0N8oSuzDI4hYll9jxkD/QH5Gp34/YZla3YOJIv13qun2qBE9VGyxsZXDrvAwcDv6RnHHc88+2k7oDxH6rl65uXT9xvEtRClugdopAGFK8jttIyOCVwC3zgHg51C6i6+ju0UtPIDJBAWC7YWTa69i+RlgD75740l+Fs1vpfEi6XOScbJ4UpGklbiQqWJzntnccexxj4OkjjHwIZv3uachuNRLGjebJJuyCHO7jODp98KOl3u/UqS16hYoN0zbk3BTjvx99VVarjTUf8AME58k+pWzvTk9g2ff29+/fV++GNMKvoq63ijSpd2QrItK7R1PlkdoypBB9/k4wCDoOPxD7oLQruT/p4EzL+OzrWK0dQpZaGpu9JGKALVzwW6JwIFcFGaIypJ6WJ2zKMDlcjODjOn6ho5llSqrWRPLl2S+UWJfkqGTvtY8Ee2c+2tTeOlV0L031HPbh4aXHqKruE7w0z3q7VNXJT+ehXZHSNWRTUwkHDBkwRz99Yd6lnpYbtUigjpqeFmy0VHK8lNE/vHDI7M8ka9g7Md2CQcY1Y5wcGRqT1E49Wy+RXBUI2TDejK2QwPwff/AOe+vdkojVxBShOoTVMMlMKOqDyKJRNAcj+W54f/AJWXuPkKfnTL09U0tKQvGCM62sDGTFsTmeZbJHGisF5GptK4jVNxOF1NmqKRslcZIzoVUVKEMqnge40QxBOcSRWXPY4K4wAeTqNb706zM7uPtodPOrnZu4Hb9Nc02hiFbv8A9dLY5GoaADzDN5vcs0J2Ng45OuPTVZJLIDO+AD31GZYvp8SYyffUCkuMNDJsTk9tBVYV0YVia1LCvbxG3tkgjbqoa6ike5mRB6c86Y7n1DLLB5O/GeDnQ6hqI6mfDH7k6ND2O4GMCFbdb3kgxjHH768Clemmy6nBOmS1iHyxwO3xqVWW+KeMlFyf01QAMagE5M8UTU81MEYDt/bQ26WeJ3LRDP6agVIqqKTZGzKo9tFbXW/VIBLu3LxnWdiujM6gnUDx2aaJuMldS7Ys9LV7c8E8n50xtHGUPbPsdD/I2MJMAjOdGrDzPFYWqI/MpsbM8aX2jWJzkcc4OmylTzYVQc5HfQ64W0QyEbBg8n7HR57GDjEWvqJaaTzVOMEYP/fVjeHniVXWmcRTKssRI4ZvbSFc7fKib05HwNDLXWSUNSVbJXPGmgkeYJE3B0r1NFf44xFNiPAZh8as60pTRIGp8PgeofGsg+GfW8lPIkMRyJO5xkp861D0VXx1dCk/niXd3wORobqw65WNos6nBljUDrLHk4Qe+dTqClhlllEZ3OQO3xodSQmSFZoApU98nRSjkEDCRVw/zjXOZQpnRByI19O0ccUYBGD76KzwoXfPAQcnS9R3mYqAoCH51xr5K2diTVTMPYbvTrfcAGIv28nOZ8MKGnMZAOme3xps499B1VVOR3/XRGknwABrsIwQ4nyVhJ3JdTQrMCRgHQdqeagq0nifayMDkaPpMFXLdtCrkklVIUp1JZuwHJOlXqDuWcS0gYhW8TNNSRVT4YrwTjsDpXrKg919tO9NZrjW9PMr0rFkTaTkZzpJdHyYmQ5HB4+NSEzohiY2+EnU9PY+p45alA7y4VP2PbWr6l6jqYQ1sibIvLAAXkAe/Osd+H1nhreurZRytlXkYlN2C+Bnbn2zrbtzo6e0dMUUFvTyPMjP8sMWOR75PODqV0NrdVEu4zitSSZXvUstJbj5dHMD9iec6OeE/XAsfVNDX3P/AIEMgb5H6n/XSnL05W3OvM8rEgcncNF3sxtsW4YOB8a6VHpC473Se71M561Tc9P45dIdSWZqeO7xykAITGv5OPn/ANNZs606vt9d1VWx2+1w1EUMgU1DOY5Dj4xkf3B1nur6r6qt9U8VmrpaaNyclCQdE7F1RLSRFq2pMkjHJLHJJ+TrbKFJJQZnq7SAA2prvojxmoa+Sk6XobFUfX1QCM7hTDG2CSxKHOAB3xn7axr+NbxEv3iD4zp0rbfE21W2k6dphDS2jybjAEqXTM3qEDI8km8+rONo25z3evDvxErbL1lSXGlqqiOMMTKINxLqOcYAOf3xjPcd9PPiB+GW7+PHj3SeI3T00qU15oKOCrqYhNA9PVQcMmAuOV27wXXCgYYk50jq1Z+Yj8rYp6mM/wCESa6L0PJdb7Vi+RSUD0sN8tszfT1OHA2NHNBDKJBHsXcAy4zkZYYI9cfgjvPitcaa69RdQ0/StAj7ttQ2+aRM5ZliVS6+k5ycAEkEDvrUfR/S1p8J+kkreob/ADXKptu1JLpcYiZ6hguxPI7yMMAgFtx5xnjSJ1D49JVyVTU/TK09P6VWQKzSOwIx61wcYywwe+Qc6po74wvmS3EM2/ERfDT/AMP78OFmt9b03WX3qnqapraOSjqamnnSidomcEnEJyx4A3c4XIPcjVwW/wDCN+Hfw5opavprwQju1XAo2FnaeVQioqRqSwwoCgqoHBHGOBqm+vPxYp4b2lp0heWWSRZDAYlgeLJ9alkYk4IUEg5OTxg6qDrz/wASDq6ITv07R11vlht4nWa4YaNscYUR4wGbsSOADk5OCz2bAc9sZizYrDxN4Wzqaz9F2f8AhVJ4ZVdlY73ENXHIlI0gIDASYZRkENzjOTn31mfxQ/Cv4MePF7rqqmuFV0l1GT5ZidBPSCTfuUb1wYwAcA7c8rycazl0X/4jnVpuktXWPVTwVFHIlUkcwmi8wEgDy32khQQTu5OfjA1dHRvj10h4/wBPFLBLR9J3Wll+qoq7zREkrorMIpfSc7iQOQAN4GMjOhUkNgHOZ4opGSMSpqr8GV98HupqeTxArVnomAS2XOh4pWqfzlVfbhmznjapOwnjvrdJ6Dput/BOGmFVbq2722A/SXG8yT0yUp2DE4EIEnGMhcgnAOc86qSz+KnVta9g8OuoLLRV9u6iraqjqqiZ3D2+7UsRqBFlvS7yR7zHtwrEY3HnV0+BHUFC1DcbPRtV1Kyw/Vs30kkUpYn8mJeGIGMEEjGMnQcj5fr8w6sptfEzL+I2xWfqfpiz9T1HUr3i/wAtJDTQGGkVFrqlFCu0QZwyKwDuVKk8KAecHMBRQSJEIIOMMMEfYg9tay/FL1zX3d2o6ChSrgp41R1q5zbxFL+WSHyJGjVyEI4KMGGWBOOMvX6OkeKOsaKmtMw9DxrUw1KSccN/JcuuMc/y/fOdeoYquDFcpQ7dh+JHhji2gxnTV0zb/qJUKHBB7fOkFJqmmZXkQNA7YWZGDxsfgMOM/Y4P21ZvQFXGs8eQAC3JI7aeGB8STqQcGWX0x0rNc32yRnHzjvqf1N0II6GWN6QY28HHOnfo6GlZFkpwSe+SNH7+tO1MQQM4wd2lG3JxKFTAzM6dA9VV3Q9za31Ermn3HaTxgfGtCWrqq2dSUKIJlZmHbVO9aWS1zs0sTbJfcjgaR+m+r6jpy8mBqhggYhTk4xpbKD4jA2NGXL4geGNP1BTSKkSuHBBBXOsdeKf4UrzSzzXDpuHy2JLGEoQj/p8HW7Ohut7beqONZqhGYgDkjTlWdP2e6UTPIiNuHBHfUrAg6jNHzPi9fOlr90zUtR3y1T0si/404P3B9xoHMFzwNfTjxp8GenrxQ1ME1EoLoRuUDcueSM/21gLr7we6p6Vr5/o7fUV9CrErLEhZlH+ZRz++jVj/ALopkx4ldFgMAca6CbOM651NJWxMVlpZoyO+5CD/AK64h2Ax29jxp/kagiSZJjjGc6HzF2yTzro0pAwTrkz7tensSJuMb7+eD7ac+mpjNtyRz7aUmjBOmXpMfzwp7f8ATW4zPZxLJtVIZsNjtp2tINIqsx9xpZtUsKRDIxxot/EFWLaJMk9tNXqsDZh+63F6im2K2OMftpEkoqSrua091rWpKZ2Iecxs6p8FguWCZwGKgsAchWxgmUqXmA9fB++j3TfQnWHV1X53SVhra/6R41qZoETyoVkJXErSERqrAMPWdvzxrLQHGYaalx+CPQFBe53julVTWuk8jLVly6i+tpfpCwzJSvRtRhow20PuZiPVuC5xrefT9isHQ/hlLQ2CuluMNRlRVGeUpUT8A+XHI77I1HZQ5UZPvnVH+DdHYun4LX0naemrFJcS5L2SO6CphheMIDUO8KrSII1O53mWWQ+gKdxUnQnirdqimhpLSxV3kUY8plYjjuqnuM++NQ01jvKrHwszx1rRtT0vkR0cKRB2kcofzZPPq9vf7fOqavFgmpaueVq+qd4nVWVIzA6BzwfSSoJ4B/pJwRjvq1evncECeviWWI7NlNCxLyk4UMRlt/3AK/c6qG8SXa31MlwluoilaQRSVOyQywgnO3IG1SP8LoA2GHvnVfIrCLmJpcuYp36ur3kko6lVrKGByFgeaVWXg4JUNzzxkH3weRpbtVS9B4h2mttlrnpqGs3wVsRnbEbj1qRuywJ54PbnGc6a6wQSMBfKp3AcQ1E0RKPEz+pS4PBjfHBI4OO3OhttrpqeuAq1DPCPMNQ64LbFIU49+AwI9mBHYjXJNrK2ROiKwy4lw0XV1gjUUKU16SUsBDFLOJdzn2VQm4dx35HGca1R+FfqWlr4Lj0/UVEbuEV1QMzFcEjbyB/8zrD1vuhmrKVNxiusis5fIb6SIDczOB2c5AC/4nI5I5s3w68Tr10r1pRSUdQWCqEEIfMUfP5W2Bi8rY/KMkAdh71ITJ3Alp/iv6etPQUzVPhz0NFL1Pe1kSneniSsnqqiUiMRrTyEgZ3DdLtdgilFA3My/L+/2iqNXVGscTTiaQTONrB5Nx3EFfSQTntx8ca+2njFbLt1l4ay1ljrqWEVFGRKlZO8NKJHA2vNHlfORcnMUhIbgEd9fKTxZ6Muljvs1ReupKq+1twkZ2q5bfNAsgUbSS8mBuBGAiLtCgYOMDXrEycwVfAxM8VtLVQIW2EgdtD4rjcqOQckqfbVmVFmE3paMH7Ea4noqOrG9IsEe2NJI1gRigGJadS1QUM4I9u+v3/aMucFsfOmK5dCyiM7UIYfbSpN03U00pRgcaEVtNYD6nQ3jL9/7a7/AMbjKKN4yNQZbW8SkhM/fXCmtNRNKGKnGeM6wIfuYIUlvpkGA2FPbXe2RNUAy7Qc8/pr03TbmNS0WB7nGiVFTTUWIgoKY/fR9AJhJMBXoiLnOCONeLN5hnEm7jPIzrteoC9QxI41Gt06QPtDAEdteQGE66j7STlIQE9++jtDVO5UBdwGNKNumqJ1BjXI7ab7KjA+sYLd9UJkeZKZFvdCc+ds78nQWkqoqWXAIAOnmuolkp29+O2q5vFLNHMWjXH215xNU4jTDVo6Aq3pxzzrm9SgYxn9Rpbo66QxBGcqSe2jVvi+tkGTkjWKQJpBMMWq5qkghY4AOmMU8VYmJcMH4Hzpbks8oXegIPyNFbJXzUbCOqUlQRz8achwdzCuRI10sslOj+vcPjOdJdUqKXDrtZTq4amCmuUQMRGcfudV91TZKmjkY+TlD3GNPHyiyMQZ0n1I1gu8UzORCTh8DOM+/wB9ae6K8TKK0RJPNWRS08ihkZG4Gsj00P8AvPlshOD7jtqy+mbPVTQhUk/lN7aDLA9RNUDyZtbo/wARqC8KrU1SjK2ON3bTxU3uniRJHkAVvYHWRPDQXCy3MU4SRkYj0g8H4Or4atlnpQ1TNGABwoOdv76nsoI8ytL1xiWbTdQUrx8VGcew0UjuavHlXBHwNZxq+uJrbWeUjDYp49Xf9NFrb4wUsciQVEhG7t6hjShTqH74zPmXIpV+PfUuhU7gTqH54bg86MWG13G81aUNqoKisqJCAsUERdjntwNWPk7E+Z65GJ3KKYjj407eF/TtuqpJLjWxIWHoQMe5+edXR4Sfgc6z6xSC5dcVbWGhkIb6eIB6h1+5/Kn+p1sToTwA8G/CS1xPBZaCIxnJqa5hJISPfe/Of016vtnLR1XHfz4mZ+gfBm69WQvT0XSk80Ug9ErRmOMN87j3H6ac+mfwAdOpcjcuu5fqY2fzPoKUFIv0Z/zN+gxrSB8efC7p6RaSO7QyODtHlIduP1xpR8RfHmO429lsjy09PJwZYxtZh8Z76JqwxyRL6kZRjMTfFnwg8GOjOkPpaGx2WgqaeMfSR00KCYSex9Pq79yTqj46jeqQHOxDjnkn++j9fVLeJ5J5ckO2cuxYn9zqK1DH5R8oYODg41bXZTx1wNmC1Nlp3oSDMtDS05mZucd9L1fWRV7CBZAEc4LDsBqfX2evrAY0LKp+PfX5R9LTUUSl1LMeRxzrx5qPomEvEZdgRY/2BvFxkYR0cpbJB/lt6f1bsO/z8a4x+H8FufdV1kdRP38mHDKvPZ3I29s8LuPbkasY03UlTb46MVVS9HCPRTvIxjQ5zwuce59vfQ+Ox3OeYrNGcDSByqlzuOPHsONSV4Q9KyXjrCOjRpqeIlSsVF6fN9QJVm/NjjvuX4yM6Cfi+/F91NaOtpfBLwqudwstu6clShuNTTy7DXTBVZ1ZzmXahOB68HBJB1b3ghUT9MdTT0bU09Q1f5Zi2gukUg43mMnYTg9yM4GMjOsefiJ6HqbH+JjxEkp7HQ1lvmuK3H6y4VstFR0EdSiyq0royjJJZQpbJK4VW7ala4cmz4+I8VNx68nzG3wo/EL1LfL7D091fcq6c3UMaKcTSZQo+SSpJCgkrgjAye2tiPDRT0dretp3d6tcO+WkMsmRnGMgsMZ9886+dfSNNZJOraOk6fr7Hdrtv9DW6y18iiFQXfE9VNEo2gEgiMgkDvr6E+H1nubeG1uqaVZqpnQvEZI8eY5O5WkZgCzYIP7DtqmhCgzJrH7mZy/FP4X9XXaNbx05QzTyLIzz09KoVGG7vt/xe/x/fWbqimunTFwqYusOm7iaWpAnhSOQ06SSDkBm2kFfzKwHI4IPGNfUa7TwwVbUdfTRzTikLeQIxEisPeNiOS3GFA555HbVQeM3Slz64sk1vqrVRpXpIAiEuBHlc+glCCf8RBOPnk489uD8TPCvI2J89IsT3yvvn8NSiFXOrtTwVbkrGI2Uoskm5mLlucj2A49rY8LbL1XbupaAWmmZI2VZZQ4YInAyxJ+cf641bnQX4VKy23yir71bCRC4YySI2zcffkjjuFA545xnIebJc6ZrvLT2vp54oo1LQu0DSyzRr3ZtgIBLAYUHkduBzUigHs+jJmzjqu5qXwg8QugepOn6Tw58Q7XRR1LpBVfV11UqNJNC4aJ0dQNkiFVKn7d+TqwuvbS3SlurOq+i5RPAsTSVv0bEVKxZy7gJ6mKgZAwRkYwBr52eJvVM0copbayitLRkxsCrpuQFQVPZeCcZx7550l034wPGPw4qbb090o3UFrusaytcamSX6uCSoVyIxAeI2jZVXBP+Ng3bOpOSEsJZTgyihXrAUjMYPF/qD/aLqsXyrro66tqYgKuT+GfStKQePNYKFlkAUAsMHI5ycsUhmjCegADV4+NrU/Usth6tuVHRVYvthoLoala00gjaeHzHp6cbnVFSUzKqMpB7qcHij6ylozIotVwaUOvENUghmU5xtzko5/QjPwDxrE+IxJ7VPbM50k9VR1DTUdQ0RYbXAwVcfDKeGH2II099PdQ29ITI9I9LVoRtEJBp5RnnKsd0Z9/SWU9sLqt5ZJaWoME6SQyJ+aORSrD9jzph6YoK+8VUdNQ0s07PnaEjZs4xkDAIJ5BxosKNxfy8TRHRfiUtLH5c0hIGMBTxo1ePEOSpTy4i8pkwFjXuSe2Mc557e+hvh5+F7rW9SSSX+sXpmnfhGqZoFWQAHJUNKG4YZ43DB7+2rvpYvBbwIv0dL01aq2/3iNQsl4knilkpWAVSIBIu1VyRlk9WfcDOg6Cxuqx6hlXJld2bwA8butoWnaxQWKnZd5mvVQKU7f8A+H6pBxzkqBx3052b8DHTotor+s/FWA1DTDL2yi4ViD/LDyOQ/IB/Jnv86eL1Z36r6Xq7v174mG10Veknk0tJKsEssalXTO8ZZsjBIwMPjJAGqyPUb9CtTwWjr8dR9OMhVYhMxqqYb9wiMByJDIrEekf1HJ4B0+vjdviG3/7/AMQHsC/IjUYofwo9C0tPGejfGmtiuck606RV1CjRvKcfyzHGEdW5yOfY8cHELq3ojxw8JaGW53W3RX6z0Y3y11qYyBYwCSzxHEiAAcnDAZ76rXo3xYfqDrOtivNZU2+gnIpoqqWb6iGkWPbsVmf1xjaGGcnkMONwGtPWf8QHhV0S7WDqzrahozTU8cgq1WQxyzt+cR8sX5ICoOft2Gh5PF9rGYVFwsyFmTrt4u2vqNfJFUpkfliSMEnudf3TnR1NfpzUyRhwxzk++r58b+kvw8X2pk6i6wWKyxtHAlNeLREBHOMbyksZAVGG5nD8HDN3K8UpZ663WCzwdfdA9W2zqDo6rmeGmnUTef5qMVaJ0YMY2UYyGYk5BzyNTdVxgRuGGzJ90/D50rfYt9bZKeRiO7RgnVU9ZfhA6DrUfHT6RSHOJKfKN/pxq/7P41WWsph5lPsOMH1AD/XRe3dYdOX2pEIlUMT8gj+40ArxN7amEbl+BU1Uh/g96uMAPKrJCsgX9+DoBXfgO8RaYF6S8Uk6jtvp3U4/bOvq7010zZ6yNXVI2yNM56GtxTiBP7aw5HgzQAZ8Tbx+EnxXtW5loKSuC/0wz7W/s4GhFN4S9edPAtcuk7lDt7kQFh/dc6+03U3SnQdngWo6pudntUMmdklfURwK2O+N3Jx740DqPBzpS8UMVztUtNUUlTGJYKillWWKVD2ZWUkMP0OvBmE8UBnyGVpqKPZNDJG49nUqf9dc1rtrAFsdtfQnxn8G+nZrZU09RbYJvSQCYwGB+Qe4Ovnnf7WbTf621hy4pZmjBx7e2i751B6YhmgqASucYI40wQmOeBaetaealRg/06v6WJI3YzkKSP6tpPbSVQ1LRsqOe3bV9eEfRXSVRLR3zrurR7cjNPLFUVH0tGIEPqkkm7lMjaNm4k+lY5CQNM7hRueCknAmtvwS0NC/TEnUdq6SitlDEZabz4oGSjVg5aSNPMVmmZfSGmkdvU5VFQhxol111JVx9Q11SeoaVp6ipeN4aYSzM0hPZXZVXIAOcEDOn2019VafCHbZ6hEdxFTW+kjt60sNFE3MYjplXMZ5yEfdNtJMgV22rne5091sldDd6smWFPNEtzrJmUySOeDGpHoOOMgMVGQpGdJpYdi0c65GIN6xvZrLjWW+nq71SIQI5paajRFTH+ORlKLnnnBI75HbSs9kj3fVUdyRjg+bWrcYoXYMAVLGNvKMgOcgqocffOv24Xu2xVj1a1VzKTOGEtRVLCsoJ2ny/MXbxxwdxOOcZyP240sEtkluNBSIKgtmWFolWbKY2uUYBSCpOSpHGO4OdBybe4xCprwcyuesBP01IZKmOpqJYS0IqIV2qyMTlFUbg6hmOVB9J5AXPFOVXXz0fUUVNUtVBampEYBYtE8wxnax9QAO0kMM8nT313XUN3j/AIDsMTUiBpYDSLG2SftuAXBHqznBAHfGlMdM0a/Q0Edtiq5YWDeQo4Kner8D+v07s+5I+2go43ubMO2/ocCWXZOoGussFJUVkIoFrNxSLJknK93GB6yfbJwuc4+bW6Wr4ooUghuUNr8xjB5dvcSVUcbnO1nG1F3YB2qBk8ncBqnrLRxyUUclJIjQ+UJFBpVySOC/qxkgkHHtkdwdP3R15l6daOnjpBbX5jM0qwN6yT22YkXd7gkntxjR2IajqCjiwbm6/AnqRK2yjpS7SVUhkGxo65DPUlSPSQuAowRn8pGBnjvrN/4kPw43Glu89w6d8PUlrKueU08cM4gWeIZZ6hyphhRwDnYBJ25bJA0f6MROmr9R3Gvv0QklkRphDRtK4Xj8rDBz2zzjgc6uf8SXTfhp1f0tbX67vVog+slBopLxGzxmZoSFEchANPNkena43nI2v21r7WB4afLm626qtdbJSVlO8M0LlHV1I5BwSMjkfccaMWQwOQzAfppn8Y7TN0xUUfTUXVVwulHEzyRxVt0qKuRdo2h8OEjRSCQAsY7HJOq+op5IOecfbSvBhAxwrbdTVEDBAOR7DSHe+nlBZxHz7aa6K5+ZjDcAc8663NYpacyoBuxkg6aF7eJ7viVW1sidjGUAb9NTbf08gw2PfnX7cquNKkkDG09xo1bZkqKZXA1ppzNS3El01mWdBC8QIAwDjXOq6T49A7caMWyRgQByO3Oj22MqGYaH2Z57Mynr30tNCjOUJIBzpAqKfyKjnjDc8a0dd6CKohYqmRjVM9XWN6eaSWKIjkntr3SCLPoyd03UQNGh3r25HxpwpJFYjkHHxqnLVPVJVeWGZeeSNWFbpJ1gWRWbI7jXmBgEAGN7S5TCknQq4W5KncwC8d/11GiuUmfVlgToj9SksOVPPv8AfRaI3BOcxGukZp3I2cg99T+n7h5TAOefY/8ArqRdLbLVsxCcnnI0Mjo5ad/R6WH+uklCdiMVsaMsm218U6hZGBzon/D4pV3KB+ukO3VZRVLFg3+mmm23rI2M+mo3UYM1lzsQvRxzQSFOT8a83ykarpSsg5x8akRVEM2CpGdEI/pahPLlU8Dg6sqbIwJO4OZSdxpp7ZWbnU7SfzfbVl+HV7p5lRHYEDhsHnX71F0xT1cJZE7jg6WLDZKiguwEEjKpOCBouvVu0HORiaVsJt5ljqI5V9sMD2001l9tVRRSRmeJZAuNi/mP6fOqLkestNOKqir5MgAsjDjOhVL1/WTzElYlcNgsM5/trL7lfQm11lY4dQmsqGkemlYEZwMZ0jyXm4085inLK47/ADqyumpqK8Un1DgFx3XOedDOsbPRvFvKLkcDPcalYdYZyZVHgL+EjrHxNqYLp1QlRZbI3qHpH1E4+wP5B9zz9tbv6N8KPCfwJskTwQUNBGBuM0wBmmYDuSfUx/00v+IHjL0/0DA1h6RWKpukaBWkAzFB+v8AiP21ny+9f3zqqpkq75cpquoYkAueAPhR2A04ulQyxg1cY/7RuaG61/FJR26meh6ItxZlyBVzgBV+6r/66ou/eJl66snM12u1VVSk4/mSHA+wHYDS1HSyNETUt3Gck6FsIKepYq68cnGo29UqU4rE6K+nN5eOVsSS4yJ5kpyvbJ7atQ0grOmljG12VACR7jVDUHUElO+6Ngydxzq1fD6+pd6JofP9RUlQDwB8HUdvNd5XXxUU4niKj8s+WXXg6nw04EYD44PJz30rX2trrde3gMmVY70P2OvP+1aUpLVUiqB7k65bc6wHBnQXjIRHWCKlijBkCgg69NUULkK7D9xqoup/FKji/l0Uwb5IPOg9P4vxR0jSyS4OD7ZOg/iLrNiF7dKeZoL66jigATbnHOlW6dZ0ttZgKWF33YVnLEfptGP9dVRa/Fue5h2RxtUZyw9tD63rV62c7e/LKcdtAptJ+UImsD4y4qDrgEipaTe20/y0IjjQHIO4Ywx7fYfPwpeN/RHUn4lpDc/D1qWru/SlD5/0/lyCmeNQq+gONhqCTgOwLHGMgAaqWq6wqZauOhh9TSA/lPc61B+EqoqOn7ilNc6e20U1620SU6Ukr3Ctd8kKxAYRjYHYFiDt3NhQQddHgi1bM51IOY1bVkY3M9fhf8ML0viDcb91lRyI1LQzUKQENuEjEbgz+xG3BHGRka+gfRMFJ/s7S09LSt9PSOx2lyuFHA9PcDgce/30lSWCn6f8UawLCI4LtTKZMSZhlmi7nA7ent886frMktqt0zCZC7EuAjYVSTwD7fqecDXSs5xrJQ/UgTiB1DL9wLcula2rmiu1xlghnVZImLlpA5Y4TcpP5lA9IBABJOiVq6cnjphTz18KGFEANMfNlIHsTIGAJPcj51Lq6cXGFDWxDe4CgbSSN3uT/SD3I7kD1cYGp9vDW2lSloI2KKdqySzKhkOeWwef/TUI5BY9vuUmoAYmdPFPxboei+oKixRdMXutaHakswlWPZkYwCVOT7beM55PxVn/ANU+nTcJvJ6XrbY1dKs7iefzdjKDhw8fKAlmPuABgjk62VfPD+h6uQSXqgo2mU+h0zIxH6nADffPvpVPg/0109c4Y4fD96yOokEslY+HCFckKQpG1QTwO3Azqj+JYDycxPsqT4EyBVW28dS3ynq6ZbtV1E+HC0FMJ1OBsIxKQAfkZI4HuM6s/pn8N3h1Zel67rzxxpbrUWZSYLfbYWlgkqpAMhQsbt+XIL7c8A7ccka86C8Jel5zUzRW6GnpaEGQxQ7VaaYknYCT25PvrLnjR4rdF3Dq2ppqm92itprcGiNuFNVxVkcMbf8ADlVZzCSGJbzF2Lg5De+t49T3N7lh1AvuWsdEG4m9VdeNeblHU0VrtVLTRU8NpX6CIROlHCm2OmKg+XJCEzt3puzk5VgSa2vXTMDu8kLOyHnLDuM8H+2P30Yvl3sFfcqq49P0FztlPIPPnWsqFqgMMfWpH8zbjG787LnLADnUWbqCGkoA1YisjZWGVAHhmzwV8wHAPuPcEcgZ111KIMzj2dyd+ImV1PUokVHU1c7U0bkoud4TPHpBPH6ZA1pX8MXQdFabVW+IlzvMcjWunqa1aGjq546l1iRmw6Z2Mp2cMBnJABPbWb7vcIJ2ZIVbYCSobBbH3xq0fw2dY1dF1KnStfeLdQ26+U89nhFR5hkllnIQKgj3MCu9mBKhMZGcnSmdWGBGUA9x2lEP+Ivxl6r8Vrh15eblcJawTIZba6lYaWjDEmm8lhhI1jJGMA5Ge+damvPUtB/9H5erKm1V1RR1EU1RGsTolS8Gf8bKdrZOfy4yD9sYu6v6Y616S6+rejeqrtdTV2CvaiqKmWnkqGgaNtpkG7LsMcjH5gwI4OvpF4d+FVFefB6ydJ9UkXRY6MUlTLBTPCZ4YxtXKYBj7frn57kq1KHuJQzAjqZ8/PEfxf6i8Qeq7e9H1HF0tTWiJRRiaoaSH+XtLszysQXdlQsixkNgDBAxpr8H/Grq1bxbbH1jNUS0FSHp6tJJS0sJkGFZ34we5I4wSeB2B/8AEF+HW19MdXVA6UtdZFRzKJ1QOGwPdgMkgcY55yO2ovhf4PXCSsoK+soI444auConIYhY4wckf4ckAE8Z4A1VUwc9h5EmsDKMHwZf9DZoaC9XGejpaqcJRCaHeDs9KDBUbh5hyPUW/wAI/fEvWvVF66l6gut26ou1ZJI5cWyniSXzoZTNkiNkkQRkJxubcoGcjkHX0Nper+m4XpJI6ss0UTrUt5ZKqp5AHzjH21mHxm8IKWtqH6nsEsc9rq652WIMWij80gt6f6fXzkY9s6u56dgrCQ8JyCymXN+HW7eIP4jPw+9Q+GFzrqG5Vi2aeGigijjjnaal2mF3dBvcsGaMs5BYZPPIKL+HyfrjwIpuu+gLhd6Wa2yLBWVtNHQSVVPTVxYxusDZWPeqlAwVyCyjOMa0V+DGgk8M7dQUlXQSU31j7JotrbZVbA9OfbJx2yT9udH/ABwouj6e69UXyquks6XKamtNmoo6ONYKUQeuoZYTCVYB2VGZ8glRtOcjXHOC5JHmdYMVXH4mNrz1FGtVO73W5s0jswM0CBjk92KtwftjUzobxGqrRconlmkMIbJ3N6v9NNHUXRnSlYDU+aBKSD5cdPBCvOc4GI8f/d31W9V0sJ6pYrDS1pqFJ/lShf5nf8h3nLf5ff2JPGjJ1Jt+ZvLwr8W7bcKKDZUrkge+rgp+t0aLcsoIAz318w7NX9edLBZ6CnqItpO8Y7Y+R3/01f8A4AeKd/6hutZV9Ssn8F6ZoJL1dHm4Ty4vyRbz+VpZNsY+ctwcaV1JjA2IhfjB6xv/AFV4wdQel2p+nmjtFJHuYhDEAXZfb1OWJ/8Ah06fgT8VOtanquPw1rqunisH8LuFTBRw06oZqlcSCRiBlnCiQZPtn41S/ij11a2ao6mvSgXLqCtqK54FGQDPIzhRnnADKAcf21++CXiUnRvWVj69pVK/w25QSvHG4VTGSEkU8/lKFwfnOq7KcKKxASzJ7TbvjdbblcbNUC1xIZ2Ulcc4Ovl31v07e+neq62m6jgaOraZpCx7OGP5hn219jr/AAWmaWpjo5Ekpsq9O45DQuoeNvnBVlOsV/i46GtFysk94+mjSroFLRSAYJB7r9wdc5dNHt4mNrbUJBWxTU8MEssTiRfPRZIxjtuRgVYZ9mBH2OtL+EHhzevEOWhuV5qqg0LVFI7VtwVpK+8VJfdBS0sQyaeEmN8Sgb2SORh/LUoM2UdDGkqtNE5Ve4XGePjII/uDrRP4fOo+o7zcaGwNcbLabZsljmrbjAkhipyQahxu9czmOMKxJWLYiJKSm2LTrlKpmZUexxNp+LF7uFLZunLBZHuFNTVzNVTz0M7RDzJEYvUPKSDsfez8PuYlVBBJOs536nvVA8CyzUbwzq58+paNoggOFAkmzGGxu7BmPsONXX+Ia7w3+7Wmimts3m09Kn09LKA9QZ3xhWyNitlSC3IHOOBrO3U9aGq62okpPqrltFLGi1MuIY0HLll52njBUDhhgE8iOvA1K2GVzAUd2pZquOlF7rkpz6XpKXCwnB/LIhC5Iz7KBjHB0TunUMAioFt1PCbfEjwjLs7RPj1RFSx24yxABHpJxgjVa9VdaUFvqjZzbLrRtAxVWFSJAhzy/kM3mLknOT399AL74iiy2uqc1s08Fy8oZWNfNRwmG2DPIKkY9xux2GlXZZsCHXhRkzyLNduqLvc7/Rx3OanarjpIWeq/lv5abypQ5wCO24kkjGe+CNNb1t9sSYBpI4Wkf6mUEbm83Jb/APtjHHchtOP4fqSf6FZrg5WeeskmjgZVEMp2gbVOMjCsvB55J1P6gsSUsc9NTTM2AtPHGRuTOyVjkdselifuPvro1N7agSGwdmJgCxrUm2RUwhSWvo63y5YgAqyRh2CbT8+psexV9pxgHR6326Wiraf+IuaalZhTO67HUx8lWwQdvsOOx4wPYN0A618ckCrKVlmaoi5BkDgghefhlXB/Ue+dWfUWNb3Y7o9npjPUiletRIyVMyyIWzHkZDAgkd8kkfoNrZJE2v44MfJOoLRHRW+mjq52jDIscBZsSew4X3PPyR9taDvN2o754Lw/W9Q/TwYEFxeqq3g8sM22Py5UhbYSy4wQRhiGznIw90v1dLMlCpWFIzTp5buzCJl//ONkg4yDkEgjBGtn+FfUU1z8NLvR2e7b6inhWeOJoQ1JUIPVJG0YjcmNl8xSCvIb5AOpUY4w0osUeRMK+MnQfRtgH1PQ8d1rI45MVMsl/o7qtHksTFL9OoePupV5Ccg4ODxqqgoj7jjGrG8T7H0NYvEG40fh5Ut0vPA29bTcX+mp5IXGUkt9USUaFxnEUrL2wrPyoriqba5Q7N2ASEdWAyM91JHv29u2vL4iz5nelJSTKtwddbjPLHCyq/5hjvqLSzbSQR+2ukzLOpRvbjRoT9TCMxJuNNKajv6WOBz76M2kTRJtIJjx7a/LpFHCGUA8+/xrjZbtApFO7hiDquvXmA/7Rgpq16dw27gfOjsXUEOF9a6X6ymjngzEwAxpUq5qujqP5bsVz2Ght/aYv7y4KGQVykBQc6Wes7JCsTKqqM+xGuXTHUU1PErO2Rr31VeRUwMykEkcfY6lIcbh4WVZHSU9JcXPlrw3I+NONuekmphGg2sffOkO7VE8UzyLkHOdErHemiK+Z2HfnWliRNK/YjULYFJeOUsM513pomzuwBodU9Q00C5jkGT7HXOj6jpZX5dcA9s6wMDozMGH5RGibuM6BVTwmcsCAfgamy1CVmPLfAOuLWiWTLYJ5zxpncLB6kmd6WOGWLO3JxwdcszwT8bsE8a/oGlowUKnA+dEKSqpakANjI142KYQrae6euqkxsYj99HKW4VgTe69x3J76hpHSuoIC5HOpKGIRbdwP6nTkdRAZWnWXqJkUxsRtPHOoVJeqeC4LK0ZdcgnGhl0jGSQPfUSkDJMODg450LWEQlUGWzPcLZUWzzqbezSDkMvb7aqm9SS264msiXYHb1D2zpxs9SBF5O8bGHY/OhnUlqNUHO3IIJH20gEk5jnUAahPo/rA0cfmoTuyACDphuXUtRfisT7cjA9Ixu+M6paikr7VUmNWwhPv2/9tPXTF3aOuilqCoUY49s6MnOjFYkn6i53WoeoBkkaRslie50w2ayNHGamrbLjn9NOHS3TkM0f09DRSzzHsscRY5/YaPVHhH11WDbTWQxK3YTSLH/prg8nmveeqCfRcfiJUMuZVtymedzFFwF+NLNZb6oSlzIx54+NaIs/4Wuu7iwmqbjaaJHPJ8x5W/sAP+unqy/gut1Wnm3rrOocjuIKZUGf3JOlV8e9jpYdnIoTy0yLaoJpVNNFEZJHbagC5JY+wHudWh0T4KeKXTKr1FcaT6CmkbzxTysfMKe/HYHHODzrXHhX4BeH/RFY9c0UdbVQyYhlqgpMYH+EYwDpb/EF4vWG3UNZ0n0w8M9fnZLImCIfkD766VfE+P8AqGc9+UC+Kx/zM79btQxUhuRKvLB+YngBDqgepOoau5VclNRuwQtgEHuNW3QQVF/iqaS47mYbgFLekqdKlN0JT0Ve1OUBdG53fHtoW9NJPYjAjBzhjqNmI9m6PrqmTzKh2cP2B0YrukPKpigUqxBBONWlQdO/TxK5TYpHbHbQjripoLRbmqJJhuC5257a0pxKcDOTMB5D7xgSven+jK9EKQ8A9+OdTrj0dc6KHz13bvc9uPjUfpnxctlPKyb4zj3zp6HXdq6gpdiFH47Y0apTnt0MSbG8dhEXpqzWanrDUXnp+WvkL5QpcXpto/RUbP651pf8PFpiunWtuFisFZaLbP5sVTcluTsIsJuZIm8sHzXAVMxkuAe2NU9Dbo6ySCkoopKiqqHCxxQx72J+APc+/OAB3IHOtw/hqtfRFHQS9W092Nyp+nkko1nIjnWWoUKZEpXRinpY+sqMl2UbgoRB6os7fEYEy0qi7OSYveJ1nq38ZbbUUsU6LZ1kaWNZD5PrXAGOS3v3/fnT3S0sdzp/PgJQ06euJhgiQ/I98DB5+dL9+uxm6zrrrNSTSQVMm0TbC5RU7rgE4XcSf/mSdorhHTwioilaeOqkd02HcvYDHuR2+NZyKxZcZ6lytQkeYV0c6qI8hUOW9IYnIyRj/rjj50NuVzipY3kkjKrTjDEZPP8AhB9//Y6LVV8oalSkbxrL2YSsE7j+/wC2q86sqopwFqL26o7FY4EjA3kHnJAxj7n2zpQ4xhm7PmTLP4hX6tvlNRUwihpmYl0VefLxx398lT/fT99ZX1ErU8jiU5CKT3wR/wC+s+9H9RxSeIdHDHXL/D6aOpUu5H8+Zip+CG/q9/bucHV72660rytLEVOcbQv6AftpycUnzEveB4l1+G1HQ2i1QLcpaSKpuB3kSsAz5G0KoPf/AOd9Y5/HNeKHo7qFbZ5HS4F1yZIr1cZ7ctT5ZJBlelZXeIDbgOyj4yCRraxqqy02O0XWmcSUBRGqlJiUKhX826QqEVTliQSeTwdVn+KSLp2foD/ayo6NvHUS0zbJBZbrU0shAUkKzU3qI+H42k9xrohQq4E55bscmfKS99V0kzQUsVr6MsdLK7zxjpuYXajmXtsnVp5GUZPpKhWGSdp76XqG5XC21Ev0FcuCSrmPLQzAHjKOMOv2ZdTvEG+0PUN5MlL4dp0vUShZ5fPrq6prJgc7Xc1L5wVA/p5IyG50DFR5EYVuCNLYgjE8dRgS7oJVm/gloUspWUfS+YjZP5lSRiqHH+HC/Ya91F2p6Oohq+n1qaeqiKyLOVhi8t1OQVWNBkg45YkZ9tL8FYjuAG76MRQLIox3OlL8YDS3KWhtf4mup7R1B1FQUFr6zoHjjuF4SRo47koIWASR/lLkhIwAcn42jA3NBD/+CUUDI8Evk/zEVQwDn8w5PAB/+cawt+G3rCfoXxDpZKKCrlrrgDBEIYoHVcDfk+ZHJgkqAWUDaCfUO43Otct4u9wsqtFHPAsM8ixS7/K81AzLn4DbgDxnHtzobbXrXCeDLOMBdt/Iin4g2fpI9OVVx6hFIbXhfq6h3wsOOAXwpO3J7ngf66zlcZaW0RVtdQ3Clnt80alBDNviWIYTAK+lRx24ODnnWxZLbSyUUtqNOjUsqGKWOSMMsiEYKtnvqkepfws9M112qbpZK+utK1Dq8sNO4EQCqy+hDwrYIH9899HX6kyr1P1DbhKWyJkXrzxl666EvRtdHa/4Y1LRUxP+7LUfXPI/89kMjjICEYCqQQMcE51cvTfUFRW26NL/ABG31MBNVLTR0yvIrOAVj8rOS+GVSoyc4z76eaT8NVjrapaerWquL0RMVPVTQ0oWAqwLBGbJOPcAcEasTpnwS6Y6Vro70qSVdfHuKTSylnBPcjACg/fbpf8AmtpbZhf5fWBqOfSlsqLjU2l6Kz1EU9TGJI0kCqYMDcfMZCAm0HnPY6zb4yeJN2HiHfrbW1fn2+CramRJEkiIWNvyMBJ6gD2J4bIYDJ1tawWK50Hhf1XfLZRCtu9VRSU0SOdgYBezNuXjnnBHbXzuuoo1v9ZR1dpNslWd4JIaGoWSSEjghRkpKmVOUXke2dWcQtZmxzsyDlkIAieBP6s6ut9ay/TxpHgYKoWIJ/5iT/ro10TbIbjcfqZqQVAzkoCRgduSOR7c9v8AppBNJPFVeXLTW+QMxCyiMqr4POCu3B+zAEe+NX/+Hy1x1fW9mtUj0dIamZ1kqKCqleXyQhZiR5hTAAJ9Q5+DjVxXC5kaOSwEsXpvw2lvtsku1wka02WFSj1ddUAx/lB2xAqHkcAn0rkHIyRnSX4g3Doy9Ucnhz0KJ6SwUUwrLrWFYvrLrWKjiBRJkIseTxGBlfUTyRnj+IjxsuNdU1MlY6UNFT0xjslvWRP5IBOX9PeV8rtOOxYkcjVP2W81UtuCVNYvnGmmdmal816iZt2ChQ7dxEbkANkbxgkDTuPQq/JvMKx2OllF+O0EsHX611fV0sVGYYIKYs7BUfaFAcY9AAGcZ/8Abv4U9S24zx9O18beVW+iGZGC7wRxg/0sD29s6vC9eFFp8TOjqyhvC+VV1Pl1FJOhQLHUjdskJJ/LkHgg5U7cg8jL9GsXT1RFSXmlaC5U1wlpZYbegijpxGdpd8jZgt6gEHYnIU407CtnJifmh19z7KxeTW+HnSHWsCTSwVVlp6SqnBG2JoU8sEjg5JByOeR21nn8SVElb0lWzJDHVREhcbyoPPyMd/1Grr8BKYS+Gl28OKKslr/KoEudvc1KhkmaPPokUfkMile2RkjGDrA/jb48VF2assNAa+11cNQKeoiWYBQFJDpkANuVhgjJH665RQCw4luT1lW1C0sErpJiIo7K6n8ykdxj7a0n+Evo6fqaakrbhaKZbIJ6ashooE9d2qYpGNJ9S5y0yrKrzpTjah8gMQACTm6O+3C7Rikrbq8kRw4+qZ5Y9y8jKgMT+4x862l+EqnvFL1nY+nL3eam4Vwpf40ISgB+nYIqzbAdsFOAQ7SyYmqWVUQCGMh85jkJgTeKo7bjR461op+u7nXVhlqZYZlpIVVlM3lrEC8hlJwD6iucclm2jjOqDul9uNFbJUs9Csy10qldySht+MhFXdygJxvPJOSPYm3/ABfrYF6hq7vUI0tVTTT1QXaAio5KLkkbQQCAzHuXYAYB1Ul/guN5stNJZ6KqljjhzJJTrGWdnTKEu5XfuYnv3KjsO8SMCwE6DKQuZTXUktfUCssTrO9XTyGpqqiZDCkaBcxFVDNvJAJAAJ/q5znQbwZsVT1FeJqi+gQGihZYoEjZyGZsFizAR852kD1DHbnVhXDp+gtNBTWysoquKVZmeScrEJmiY7JqhxgbFzhQuN7KEUErkEt0orU9tpEht1T/ABCiWQTR7MiZBI3LcfmwUB7c7cd9VLWCcyRnI1HXprp6m6elNNSpHJFPslVQMASRRmNv0JGw/qM659RRxfwyMySSedWV8lMdj+tGRSr8+wG48/fOu1nusdXQW/ync1dNLO8iICC0b5UAn5w6/v8AppxrfD+tvkcQr7nT2hFqpawK0PnTyeYi/lTcoUlQRscgnbkDkAmiWcp8VrmLZ0pXNhxM++H9wmoL5LMoKGSX6hd3ePe43jHfBWQEj9SO2tDdLsYq1IoyYweYm28ojqGwMd8OP9fvpctXgl0HBdobhSeJNd5j0+JI5rVG0Lp5Z3MuJA4G1jyc/kIAyDq4eifBi71FdTfUXZ5FLjLUFGzqIjtHmEy42DtjhuMe2dbdwOSjhiv9x/3Mr5lDKVB/sZkTrX6iHrZktwmhiaRp5IaSMO1M5G9yVzlkbvwC2BkZO7W0/wAL1XC1uqKeFaKnp7lTIVuEQMsayE+lhu+CdxVWB7/ro1dPwJdEXOYX+09aXqG7xxvCWq4YKmmZRuBjdYgjEZ9w2RjOAdJXTXhd4geAPVdNZ4LXDdqSRpFpa2kpJX3JhJG8xohvi25OHIG44z75TZWOpYeY5LMnqfErj8VFv8E7zWVti60u1R0/1ZR1MsRnpbe/k0NUcOd25iJaeZWST07N2cgs6sNY5NJJZ6uSnluturoULeVU0M/nQz4OPQcBh8kOFI9x2z9PPxO9B+HnWdqgr+p+lRW1dLAsSXCkieSvpk2F0jkRNjz0xPuJA0eSQSudfP7qPpfwhp5ZZqbqDqdZw+z6aCj3PDwch4qqOAx7SApAmk5PBYc6jSwZIjWUjcVFlRgHQ4ONfxnYDsCdcbxDb6auMdjq66ejCIVkraZIJSSo3AokkigBsgHccgA8dtc03tGcsM9xqlCDuKIkuWCnrYtjDvwf10m3O3pbKzdEw3Zzj50Ynr5aRjsPPuNBLzVyVaF9hyPfTe88U1HDp2tjqafZOw7Y1+3G2QyNmMA55J9tV3RX+a2MAxBweedNFB1OlaVXzBzj30DWgTOhkmamnp1xE7AewGuTSTuvrbdt750bSGOaPzM7uNQamFYgwH9XbQdi0zETrlbmqag4XIbtrzFaJ4kKBGyB30009PC4wyjIPOp2yJIuUBI40zAxMyRKtu1HXjcqyPgaACqr7dLuIbvnV0VlnppowxjGT3xpO6jsNOiMUHOllAIxXzqcumOo3qXjSU4PvqzbbVgoNyDtx8apixotPVqucbWxnVuWMrLTKSw7Z1gXM82jOHUCSeWXjbHHfSdBU18dQyqx76erhAk4KuxGNRaW0QGTcyA47HWlJnciA2ulfSR75JDjvr+p+rw8gTzNx7d9cer6d4wyxkgAe2lPpellkqt8i++MnWeyCciF7pxgyz6KukuHDKCPY6J/w2VU3k/poXaohSgNJgabKWenmp8M3PxrfGpo8Zgyiq/IysuQB2OjsVVFWxBN4yBj9dB7hTsil4wCp0Nobi8VUEclRnB1uCp1PZDDBki92h2kyq8c9hoJ9ZLQzCOTIHbJ1bFnt1PeKYLkbsaXer+itiFo4jx8DRMjNsQRgTX9t8bvDmyQH6QzOSfTFDT4I/fQ6v8AHKuvNSsfT1ljQAkq1Q+WP7DVGU1khFUXM0hUDsp7am2i5fwK9eYGLpkcOdce7lqq/wCnOzXxmY/6kulPFXxUMfkQU9spR7MIGY/r6joZX+InjNTq8idXPGpByiwIB/00qXrxgtdup/NKqrD2+NKh/EJY6pzHVYMee+uevO5b7A1LW4fFTRMa6Hr/AMRLfLWy1XUVXVGq9TNJ6tpxjj4GqwuN4rorzU1dUHcyne7MfzNnknVp9MdY9D9Qx/y51Vm9s6i9TdLdPTM9as6rGBn766fp3qipYVtGJzub6czJ2rMq239cLTXpZHH8vdscD2B99PFY8FQq3qCISbB68jkjSyOm7PXVEwpgG2kkHGnPwyp7XNJVWy9bHWP0qkj49Hzro3clOWpB1I6aG4xBG4Kmvk9fbqiSipJJmhBwFIGT9vnWTvEjry8dQ3Wez08sgjRisncMD7qf01tSzWC1HqOpsEHmyQSO0kIjYBsf4f8A31nb8S/g9L4eXn/bOgtdTDQ3OUioJbescp9zjlc/fXJpoFbdm2ZXzLbLK8LoSm+jrBV1td5KBhGpweO51obpHwvudTTr9KZFJA7aUfBO20NzcTSgb+Dhv9dbS8Oen6GnpY5HjUgDjOvlP8Rf4o5PpFvSoT5m6x1s6iZn6h6C6gtVNI1bcHhgRCXZAQ23GD/oT/01sXwKFy6Q8F6Fp7hQ2Sora1KVqczoI7fSQx5FOcD1SqDlxksZZHL4YECofHK11tPBHdLdPLG0E0bgQ43nDD8gIIL/AOHIPOODq0qKpj6T6I6etFiiOyuWY09M00c5o4SxjYySd5JiVZpZDw0sz8YXj6T/AA1zrvVOOvIuxv8AEuqtaxMn+UaBTQ3qWpmmgZjTSYTyqjfJx3d2U+nJzgYHGD76/brHLQUy1NupyZ5DksPyN/mIzgn74JOvzomgnqPrK2qqz9O8uxI4/SxA3fm4zgnnnBJ54wNEL7MqEUQgqCGQ7Npwob23MBnH9/vr61qBY3aCt3QdZU90vUsNdLDV2VmgdsllG/c3ByxXHH+vx8aEXS8Wu4RMy39HjA2yxLKIl2nsuGVd+MAYLDuTpm6jEKU5SrVYy7r/ADfK83aO5XcBkA/5v/bSZNbbRBA92t7qFlkaLZEioWbPAOTsPq4wQe/tpRpCeYXuFvERavqyksfW1ujpzLUxb/OkjjBBYYwxA4BwNuFHG1TgY5OkJ7lXraY57VR01GlUA0UhbDNnH9IYEMf0IGsh+J10etlXyayaapod7rBMqJGioNzKNnPPbg8YyDnGb58NOpK65WOhjkpJpNsSDkNsXGMBh3Jxx3wftrVKkbmMCJuLwyqKfqvw/wD9nrsPqDDGaaZZARuXHY85xzjJ76gVfh29s6Eu/TtV/s+6yRLIirQ/SUwCZ27lDOSFXHqYMSQCQdUj4feKdd09dJqopTpE9ThoBFGnf3XDNxgADLE/bWoLD1FaOs7THcaCM5lRTJG6KzAHI59iO/7aBx1OvE8N+Z8pvxC9GJLeIYrr4t29DSo3lUFxopIYN4GXaCWCJtzEEMyPHE3JZUwTrOdytjR1MlPHUU9QVOBLTvvjf7qcAkfqB+mttfijtPV6w3uj6hu3QfT8cdZK0VVc6CntlXOkbbY0wsUxlVo2VRNI8eTt7ngZEtFIlTIpY5DDIIOc/vqaxDnM8NxYo7ZUQS+Y6Mwz2OmSgmiGI25J4wNMNRa0RACg/toRJQCN94B3fIGsH4MBjH7wruElo6mpJLfLK9dUVMUUFLHZaavaY5z6fPPoOcflUkj7cH6BdR2O20FfZOsYBIHulsijnk8oLLJJGSDIwUc4yQTj9h218/ugKiOnrAlsoKb6ogKZK3qB6CaVGBDLF5bR5HfcN59PfX0Ao6yoqPCLpCpqKNaZvpTFTxT1f1H+7xnAYy733bjnHrPGPfQ3VhklHEsKtiftRdYYQiNVwQyvlkDvjzP/ACk8aV7/ANRVlFG0shO1W2KhIBZj2H6e5PsBrh1DUVP0O2OZvIm4KFRtQ/5Tj/rxqsep+qIrUk1De/raKNEYx1OQuTgYxtOzOcdwNRW1jOJ0a31Gzoq5ymWrjMhH1NXLVoyYGTI2ScHvnBOO/wDrp6o7tDEqbGWaVm2KMbRn3ySe36ay94bdZQQ109srb6kk2EKiCRahWXLMhBU9wmzd75GdX9TzUi08NZArTuVVjPIqIUHfC5wB+/bWCnqczzW5GJcnibfKuyeCtBa6GntEsl0YrUPeI2+hSMEu7SlRnHAAUepiQB86wD1HQdJVPUZNjoYpKMw7porfGYIt+SS0KtvMahdpwcga+i8dioPEbwYNJ9DFWypG2Ijsl9Q5IAdSrHgEAjGQNYI8XOoKfpPqaq6RstRMYaUtDXG404esaRZDiOWSQHKDgqiegZ5y35e7QQF1OHyM53FZbSt0qI4LdJTvJuXaJpmeoEfuWRsAgDOHAYDtwNaDsFktPgh4dVF/k86r6i6lo5IFWqliCU9MfzbGHcPjaPTn8wIxqjOl7heau508M0hEFPKpdJY41SIE57FcAHn09u/GdWH40dUV9264vNFVUlz+mtcf0Fucx794iTZGvK7Nsk27DAjb6fZtFe5rAMPiViwmUR1XfWutZV/Wt5z0sDE+QczS1DKxSRyRtIyWUBB6SMkDuo6lataZ7Y7SzrHKqGPy2kmjjGF8xBnAUBs+llYMp3Y3KDM6wSpnjnljrqYzTmR0TY6Kj7/QfQclSBtDZDMpZueNcJqVhNB63p4vJcvglZ4uF+nkXzGDuRsZWDAHaFQgcNpKcpvOZa/HX6EsPpzqaCiR4qWqlyJH4RHO6NH2+Y47Da6HcCoYZyMjOqV6l8IV6zudV1FZ60UyVdR5rLIrAu2csw3e3pY+3AGM4Om65VM0sVaIBTyS0xFEahlkp5IpQp3EksxbbuPLABlzjODn1YBdvpmlqagoQ8oEdNCzKYxkBvMJACAlgQPbOOcnVrchQvZpEKCT1E0/+HPrqHpS4CaWgWotstDHR3C3xSKs5VY/KZpYwP5ikEDceQVxxnmhfxwfh6sfhh1J/tP0pcDDY7nElVRwSrNMjRuw2pHUl5PWoO3ZLsLKmULnIBXwzsaV0818pbglDcKJFjap2+ZC8bDBjk37uGLAhjwNvJB5GlvFi2VPiz+GITTVEFBX28yQmoVYSAA218rKwidWyS0bMAW9SOpxmI3hsMI72iuQfE+bfRlRVJV09PbbYtbcHk20yGIzkvjgCL8rn3GQR9tfQP8ABT0pcrGnUHVF9+qqa+5ujSzvK0imoKMPLknBxUShSx2JlIuCTu27cI3fwo6x6Qjnc2p728UwjCUy743jOCCTHvADL3Ik7dsnW+fwh1PVkljkm6wY0VU8TCms0aiOOz0C48tPJVtkEj5TbFy+MNISwUBPLtyABCprwTmCOrGaj6uqaq7yqKYStTLCACaiXeSTg9kAOcnOAWPGplb03TV1jlEdHNOtQUkDRRLNJM+3h1LcKduFDHG1eFUaFeI6UV46qq6apgc01M4LYwDI5GZAMdgEyD921w6Y8abMtZHZr1RGnhLGOEHOyNRwOFyT7ZJwM6+dt5LU2Yn0CccW15ijduj7jb6d7VcKauW3yoY3o4pI3TYJVdY2nOCXwqknkbtwBXJwv2rpe8v1HFS2miqKmoNNURUpppxUEwurljVFB5alQAqqueEABJGrJ/ED4pdO+F/QzdT1b07LKPLo44GDNUSEHaFPYAZJ7HHPvqs/w6fiF6d6n6RutwpfKhvILR1IMitNGmBny0OP5ZH649WT7n6L01zcoZtCcPnVituq+ZZNm8P6PpVZbzJRRVVSm6UzTtv+ndT+RAx25BDe3dec8nXW4+MPhF0NZnvfV17o54y3meSJFnlCuS8UYAIdj7sQMaieId1vli6ViktzfWsKeOVWVP8AhJJGQCRz7scnv8njn5v9UXOS6QUcN2WaWZaiZKgxOqPhTn9M4PGeMa+gHJWpetQnGbjFz2tM2TW/jt6CmvVJSdP2GH+GPUOZo/4cECjtnsCQyu2SMFSPg4GgvC38a3RdwoaSls6TUNno43WaoaaMhHWQqm8dyp3DnuAOQe+vlNFQ2qnnoJrLNWgCklkuEFVGx/mcCNEyxDHOSWAVQM4zxq8/w4WCtm6hr7fApS11US/VzSZMSFmHuOcgHsOcHQL35LhbTr/n/wDYXwoUlBv/AN/H/c+ifib+Ket6FrLnvuklQtDskVo3MaFSpZsMudvdNxxzkY76r/on/wATfoC9XMWLrW3z/wAKuUUK0ztIyzK7sd25/wAqqMADJBJ5OMan+Mv4UbHcPCKubpfqC7VFw/hjSGOrplRpkULhz/Wm0A4GDgYBHc6+X3VnRjW2uq7TfbRVQV1PIlPRMJFWniCxkSCR2OQQxWTEYYtuxkADUtqVtj29j7/nH1swJ7z7ceIqdI9b9HPJW0tXVWqIJNS1EU/kvHEecOHBV1OcMrDBGMENg6+f3jn0ldIeoYK6i6PoKe3pTiJKq29QTXdpo0CgeY08hm9ORyUGAwBY4zq9vwNeKl+6h8OpOnZ7/U3y52m2OaWnqaUSbYoiEaEMXJmLRD0KwG1mxz30qdddCUfjN0E/VnTHRVTaepOnqiSjr7PSUMdCglGSjytIrBFKhcYkGCHU4JBPKvpC2EpL6yXTJmVrtRswyo2j3z7aER1fkSbG5XsdOFXZL9BK9vvFs+kmXcrJUTxRlSvfOX450i3CKSCZtoLIx76xfjPKA0nT00c/81DnOoVZSKkJJQHcMEa6W+uMbCOQ5GiTQpUJuX1D20Tb2J5G6nBla3G1s8uE5z2+de6G1VdJIsihuOftp8gskUk4YoNNVF0rS1EYIiGcfGlBWzuPHUjUSrbepKeMJP2xnJ0QWY1jB4m3K3PGiN76LMUEhCYGDjSdSVFVZq3yJt3l5x+mmjXmTOmIztRNEPNCkbtQpmmhkwc4P/XTBRVENbCGBByONRa63O4J5GP+mmAxJGYOirGkzG49uMaD36naSF1UdxqZNG0L+kj0n++v2aSOaD1nlh++txnzPA4lXTLLRVhccDdyNWD0xfkESBpBgjGl28W1GdsD83bS8lXWW2cRxZIB41gTHiGW7DBl0NUQ1bhkbgamwvE0WR3HbGq8s10rGCs5OPce2mClvEhby8bRrxbqIIXMk363xVkBbnS1FSpQSZiwG76bTJJLF+Xg6XLtTSIzOq59++k9yfEYFA8yYlxLoAWPGiFNcmgwVbII450jx18kLlXOR99GKWczICrA/vrADCzHyhuMdwAhZsce+vNwsjRnzYWBI540t2yrlp58Opx/i04U11heIK3qyNULg+Ylsyf0neZ7dIqsRx7Z04V/UFHXU/kzbc9s6r5zCcvE+G14pxVVMm15WAHbVSN1ET2J1C/SvVldXQgVavuftk6f6K3CejlrKmNgqpkaRbVZJKavidFPlr3GO2n64X6JLStLF6DtK4x318Nc4Iws+1qQj9UrC/wz3a4PDEW2fY8AahydNWySmCTUwLD3Hc6NtUw0kcnfe/PHzoWtZJLKYlJ57jVdWQABJrCM5MDUdvNln8y31U8YB7B+2myk6mu9eFomrHG4BSzNnjQiogdfUyHB7fJOh1JNWU1w87G4L7+2ndVbeJP3K6EsWjaaxw+Yzu5lyWJ1786onQ1VOxViOWGgadQTXOnMMg9PyOCNSbPeFtsggqSNrcA/0nTUJUZgPhjgR18MOr4um+r6SuvDkxrlEkIzsY9iffGtfdU+HvTXjP0HLDPTxVcFbTGOXeh5yPk8jnsdYYuERqHSuoirlSCFHcHOtHeDP4lKTpzp8We7JOZYTh0dP+IP8rD3/XVilSvb6kdgYHqJifq3w+64/Dn4hTWK+U8/8ImnYUNaRmOZO4G4cbgOCPtnV6dHeN0EFFGHqAAqj39taz63snh9429BVdPV0MNbS3CI7oWQGWKT2I91cHkEa+afih4b9Z+EF9e2VsNTLbZCWo6sKcSJnsT2Dj3H7jOuD6z6BR6uQzeROZyeL3PcTV1j63tvXdzpYJ7nHAkUsYR8HMckjiNZsjt5ZcMPcv5YHG4ra3VE9XBfLfL0/UQUFLDQ2+1UdP5ChsY2xoEwSCVPIAHqyzYGRrDv4er/ACVnWlNbGWStgNxp3SJ0MfnTq+1CRyVjjV5ZOT/SWPOMbPqrqKTq+221Vp6yqjCXC4VjnbGHjp0BYcAsAxJ9h617k412PQ/T19OoFCeBDrUVVgCWj02y01JJbo4mqYqFvLabcigyFQXY8YBJz99QOpL5Q0iMJ3poBnDec4VNn+E4BP7e+uFiqbwllNxWojWSRRUx0wCKMv6t7H2OGUY4wSdLXUxpKNfrqlIZZihJWmp2mEjEfYYIyMccnk5xxr6bOBJ+vZoq1b0QkqLnbrjTpuQiAUzrKEjIJbhsY5Hc8fp30lXbqOos7mlqYauJ6tlmedY4YEcAclt5ZVIHJySSvb200Xa52a6RLb6uut9orKhQtIJpJIYwVxvjynHvnHccdxnVW9U0lwpZTbayqoaqRFaNZIqjzh5Zb+hycBiM8EBlHxxnm2ubGwJcihRuL/WM9EtplroLfUieowN7SeazAksZmZuQrbBhcZIB7DjTP4XVaSW2Cgeo8ymUh4DIMsIT2ABB3BGDKQ2eNBrZ09596mp66nVhDRsax3LGSep4OwRnsgQFFHf0+3bTP4c2WntcZpZ5jI0DS0UxVeDiRv5q7jt2MAvoOO4IPbVlPGysls5GGj49YtWSbfTw3OLyTCu2iP8ALJ742cLxjtx7YPY6a/D51dJQUUFsutVOEkVUh3soiBzhgBtBBHH9tZgqLZT0ksTVv08kcBxFJvJLj8wUrhlzjkDuR2J0+dFVtNWqk8VqleKCNREkUwC53DPKj0892z/31I3xbBj8dlyJb34obdV0tE19XqiekpJacpFTw1NPTxiQq26R/qD5EuASwWVWGV9s8/NrqOitlkvFfQ+RW1VbvJernkpoU3nB3pFTAptPt6gOc7Rr6k+I3UV1bwgiu9uWe3zwlNs0VGtyWIjhXIIJbk8cDJJGe2vld4qdR3qu6iaW83i03SpbM5rqOy/w55NxIKMpVWIBB45AJPPfXhj7gT+SX6iDD4JGhVRhGJxz8HQyhv68eY2DnUipq0rGVISoZ+AWYKP1JPAH3OvNUDsRJJBlyeEPVKQ1X1MvQnT6QxxCKJYoQk9XKSADvneQp2/4ixtzwq51uHq0XWmtFlst/qqWKttlthFTDSs8oE7Dc6q0hLsBnGT3xnHtrGn4W7bZrz1RCKWuqqmW3ywtVVi24Q2ynmkdUhhGwiWqldyNqsUDBWOCo1q/qnqCiuHVt0rEqmrPrKjFJC6qCYo8KWJ4Cr+U+w5Gs84BjqgQC0QusLzJEq0cdqqp1ORmLBbH+I5wcarO+xQVEgtd2V5qeUmSEVVDIwUY4B8xdu4Z7Z5B1Z/U1+cwPT0qPI7Et/ucWSTnIUyKp57HDYznSDNdKYzPFWUFbSu0myfz4miVS3H8xSD6Rx6hjHcZxjQcilDuPqsfxKvufRDtCUtqUltr6OpFZR1MFMir5i943TGHjccEdwdXhVtdep7FaqJK2KEyRJM8anYigc5YA9v8v257ar3qUG3kUqwxE8GVRjKZOSeCQAQQeOM7SAMsBO6N69tqVTWq4RhbhPCyOGw7mMkZVF4AyoUZPYA/vMpVWx9RpVmH7zUX4aevDS+baays2W55Fip5aj0mpbtuRf8ACRgj7Hk/PT8SXhXdLfa5ervDvpu1MkCvUVDxLH9ZHM2cyJJUbljTb7RBZMn0sM51U1DfaiyTQXSQyR3Ctk8mij2lyi7e0Sr2OC2Xxge3HOr88LPF643YU3TN2iiJdPLeodwscRIwqAsP5h7EnAXnAHzWjAH4yWxCR8pk/wAO+sPCzwbsA698W7RBd67qC5rRWuhqy8h+rLqAziQEMoBZmYlvjk6SusLjd6293e6V96SMV1TVSzSmIhPNaYuVQEFSd4ARm5POAACdWv8AiWtvT1fezSz3WqqblQg1UFFVThacx7sKy7abaNrKVKsOPLxk6q3qdqegeS6z0Aqqar/3uOKVv5k5dgcKyjagUSPlgMjdtHBOpuZYQQW8GWcJFKkD6lV9Y1lFHWR0lcJap0mEtM8rDz1jQ7HjeQnC4RJGIJCAlMAtyR1JUz3OlkqqyRKqVa4RQsQktRJGdhQqXdcDaRn3Q7uc6a+p98lNVJcGWaORXNUs1IJPLklKljuwQyjblRu4ZMn40D+ka4187TUC0ypSmSN4wWEcPlAJtkbDbT5YUryfTtwR2nS9fEpaonc6VcV+zdoKmpqbvOtCaeGaWMRj1SDexyT2EbE4Hp5DHknQPrDqmmtMUPTleJ6OurIYnqIW9LH0qBg4BGQVOCD3AOTnRqcVMlcYaiEuJIDIwhpthhVX/lkhsjcyvgEEKwlII74XfEPwsn6ut5rQZLdcKerf6aar3M7RjGUk7kYGPfAyAOxGq6+Sin5eJNZQXGvMW+lvxH9KdG9RzdOU1ZcHtgkMD1UtIGE0e0AkqHBxkY4GcDjvraN+6ts1R+Dy6XXpa/SQ08XUESWyqoZzE+JUDMBn8y98oQRgc8A4+cXUvg7f7LXK1d09NL5x3JPTRGpiZRzkbMlTjupH6a2F4U9B9Swf+H/1pKiVlLDY+sILmaeVZEDU5hjWQBSpIUM4YZwOM5GdPIrt6spB39SUGyvsGBGpT9b1FPcBFauurXZb1AHRop5LVT+cI2f1E1I2tGmMn8rFecAHWz/wSTRNaI6OxW222Xp9/qaxKWjpiZq8oCgqZnkLSbfMD4dz6jGka9nOsIUEMvUFYtJTzRBnBeSR32xRRpy8sjDsijkn9hkkA7c/BXd6JLb1Xb+nbbTx26nokSpucpIq6wJCwVQg4iQEjagPoVmJLSOW17lVr1yINDktgwp1TV2+ittVdq6NVWNmiKZyWLNnH6nuTzxnPcDVazUNRJbFrVhP1Fxy0MbenA7kse4PIz/hHHBzhq8R6mruV2qLfTUSSU8NRt2K3BgB2ljgcbiM5+I8DvpevUczV9fR0crPApYbRwRSLEQsaj23ODz7hSffXBuoDHxO7TaVWZh/EzX3y9dHWiCoqKupoKCsljQRRqFdyuC21RgDjA+2qS6Ehq6a92w2qKeKoNVFGC21VBeRQQSCM5AIxn31tLxS8PKbrDw1mtyQjzoqSWqplC8mZZFAUYGDkEj31SP4L+j5734wF5bG6vaIzK0kwV2RywjAy+5gSGPKKPuQOdd3g9bKwv4nI5nZLCw+59DXs9ohokiu9DbIZJ0G3zkBWaPagkwqsfcDk5IzzwdZZ8afAfwwpqe5VltsE1HdpgZ44yHEYy3dRtI7A9gO4yMZ1rDqeOm6jZ7FHGJIIIGmjqIp1kkMhBxuhbPHIwDz78DQ7pix2eGFrXd5TcKiMjBNNMkhfbgucjY2SxyQAD7n31U11RbqYhabAvb7nzo8PfDKW59TFLhKKK0wlXqZAhy65/KOPVzhQoHqJAHuRqGjpujfDqGKGopqmgtslRCskUICzOgcMdobGWY4AJ4x8Y1ZXjDB0Tbk/hlZcrXbqeRVlmSWtETsY1O2MRbD3UkZzjkYx3GbfFDquguHkpbXSVJSpaL6Yx5dADuGS3AKr7+xHvp38XVSp6mK/hntI7S4pP8AxKIrZWyg2e21tNFGamooaqZmlip8hTHKyjhs4VmOeWA2451Xn4j+gOlvF3puxeNPhLbZxR3iURTUBXeYnUskkWV/N5bKNje8ci/GqVm6e6fu7zNJba+CWWEmcTUcTs+W/pkVl3KOMb1OAB31orwCuNrtlroOkr3dFeKO7fUqlUqSNLPJgmPgbfyohx2GD9hqNebQzFV0P5Y//TuUHiWgBjs/+/sJc/4Pl6f6MqbTTnpuot87wRUtYJ6dQQ7ZUZYeoMRgjIHGT8atfxV8NLT0xJ1hfpa68V9H1BTKs0daXWjjCl2DotOoP9Tc7SzEjLZIwoSUkFP1hRT2KyNSSwVcMlRUwxGFCFwy4CkBs8/Pvke2v78Y3iQ1t6fp4aSoraFbyzJKPSgcBRww2ZdO52+YHBPbBOk221uD0jERqyC0+d18oFpb7WRU0TRotRJtWSN0dVycAiT1g4/xc6kLSLW0uCFB0Xuz01dUtLNFA25y5Rz5THJ7K2cZP3I/U6EuXoZGWNmaEEI25CrxE9lcEcEjsexwcaQMfcEk+RFi5UrUM4jJ4OjVidqiLy8jjsdeL3GlTFvQepffQ61VrUbjIxjW5hBSwzGmKN6aoCsuVHcacbNtK50nQXKlrCpJAYDv8aPW64fTKPVkEaJT+YIJUxpqaWKqgKOBnHvqrOtemGDNNEmAPgasaK4rMgwe+oF6iWalbPqJ99MK5EYpB8yq+n6uahkEU0npzponr4JDlX4xpV6hppIJd0eQVPcaAfxushnAYMFB5zpffpBNX4jnW08c254O+oEtHLGgDDkf667WSvjqY96sNxPbTA8cbw+Y5XI01fluKxiJFTCrFhLHgge+gv8AC4qicgoM54400XVVaRioxjjUOjo1aTzDxj21hs66hpUW3O9FZo4KTgc44zriYXikwB76PxGPyQgA++TodWEecqgAA98DXm+QzAOVOJLoZdgAZwc8EZ17raaKZW7Eke2vFLSMQSnOPjX4Y5VYhjjn41igDxPE5ijd7UIyWQcjsBqPbawRMEk9JGma5xO0ZCqGJ78aUaqjmhmMh7Z7acEESXxHChlWYg576YKWDbHlffSLaa8LgN/SPY6P0/UiZEIbt2xoigXZngxaHZZZIcqV59jqXZ69IZsTruU++hK1TVMYlyDx310p45C+/I+2gL48Qug+5eVBaGpre9VOOSfjSnU1pmeSIKO/xqyrpKq2sU6oCSPYaTI+nmEpmncKpOQRr4ips7M+1sUroRPntzTORg4zxgc67QdMzqwkAKjPv76vTpDovpS80bLLhpEHrwfV/wC2qj8cumuoujg1X0pJPUU/LCOZuQPs3/rro11WuMjxOfbYifqnGss0EVOZXljVgMAEjQlrMZ87ApX5AzrOt58ZurJXZGXymRiGVicgj20a6J8cbnDJtro3AGASvI1UOHegyZEeZSxwJfdvoFpw8csa59sjkffUS4UERlKb12tyCDx+h0Hsvirab1gzMm8ZBbPK6ZJqm0XOEGnlG89mjPfXl7VnDiGWVxlDP6wieKoSITqUGc50er6h4HRlRWHcFRgDSjA1Zb6sZnwPnGmdLrDUxqKh1dsYwNeJwwI8Ty5YEHzNL/hYVazzJK2qkYs5JUH04PGD/bV9+Ingb0V4h2OW33W3QyRyg7mHDAkYyPv99Yo8Kutanpe77KSuKI7ZZQ2M/bGtreHXUFx6joYqx6nyo5UDRrydw10EwRIrAQZly5fhCqvCutN46NaoudY6S0yLUBWAE6+UXPYErG79yBzk/BZ7nR1MfX5pqaGGSmo6R8BWG2CJGP5t2N/qIUDsOc9taB6uqLhcOoKG20cjxwwg1tZKCARBCQ7BST3ZgiDGcb/jWffFKShprbVQ0kLoIXEUzIpAVkdXEZPcjhRgdt3yTp/G0x3E2AYAAnmTqgvNP58iyTtAsi5bcAgdgxA5Chdp5wScMf1/aqH+M0eyelkqJjGJHpgm4GMDHozjAGOT2+T31Bslueptu6uDxSyl4BSxKBM4kKl5JGIOwZIHbPpUAcam3OemgoJKiOGmlLTo0n1D5GAO7DjA7BVY498dzq1WyuTEsMHAldXalrBR19LbrDVKpAymzzSiZ5ckyiJRgYyTxzgZ0rVcldQCkqa+V444FAENNEPQAMfy8nfISTgOwUEklQB6tPN4rYamgqIrhbXp2idnhgSnEELqzDlvLbdICQPSCoIJDcdwEXS8jXOCuceazytUyFgGaXykJQY7eqTLH4CRgDjOk0qGfsIVhIXEC2+WCGatqKlZIZUVKksucqzBEAbHcgySdhkDJ+dN8FK9PdpbjLJPMaucQ1hDj0F4whOwnBXIyCORtH+Ia6z2RoqaKON0nqIJGqKh8KR5crggn2KuA/6dvfXOSNIqiiFIxmWoSqpcPw0rqqvEx5+FOB7FQPtrpq/USBqyxjpRGaWnMEdUh8pfJmXO1jtK5++DnKtzhj9+WPpaCoEn07uY4gCBI6hdy/Ppwpbtnjvod07FBXR0df8AT7WnB2hH2jO3aw3H9RkfBHfGm9qI0NMlxSMF3AR0YeXub5J/pfvx2/01zuSAWyJbScLiXz4XV0dR0PPblr3kljWSKOFXKMBjOAApwTk84P6HWN/xA+H/AFr1P1HU23o/qfpfqR6pCkNJf7ahuaSEA7PqZ6VI2OMjlz24UHnWqvBO/UzSVluIkAl/MF3lQ2MFXA5z+qjGscfjC8Pet7l1nWV1r8VWNvpKZo6+2VM1en0gRhneaeNklTDjDOqnaOdxydIySuppwDuYvulDX2ivqbfVQvDU0Uz088T8NHIjFWU/cEEa/Y7izBYiCcnsOD/r/wBdF622F7hLAbvR3U+n/e6SZ5YpRtGMM6qxwMDlQQRr8W1fRTLK9BFVAZHlTBjG3/mUEbh/lJwffI416pyBBsUHc2T+Dfoejstmk8SupY5K2ssVqqL/AGa3rKDR28vmGOqCKMT1UnIEjE7FAC++mX6w1yzVFxppIJJ6jiPz90k0mS/qI/LGijLc4zhRof8Ah6qOoKDwSuHUdy6gkrKq9Vf0p2OVSBIt5bkekyBFUYxtjQwIoXGDwrbobcIamWozCY90MrxmSWRwe4U8sSWA7bB987tagycxgHVcSNXUNXfn/ilZQokYDbNlG0zRrz6VKlUUkEZO4kZPAwdcqukme30ho57jUpOGjjgkqGlenkGCFwfXjjIHBx23e8epuFZdqlnu3UX8NEw2pSQBKipPuTIzpsH7HjPcDRc2tHWWvq5Z5DTQxSQTU5/mVCL+R1I3AkZKnBPfkDAOvchsjEOkbzKu6hvENTRPUUc1NPJSq0tGojfegGUILx8MjbHXDqp4HpyuqS8NH6lsl2qq56msSWWrepWaQsxH8wqUZScMq+kDJU98E9tPt5uFfXR1Yr6qsiplqpSsEkax7pC5KqdgAZtzMABnAJAONEujqd7S9oqzCkSPSxh1cJhi+ZAjA8FWGSM8Z417jUhhlhButIPxlw9F9UfxGnesuzzrVeSsZ8zbG1Vu7BfVhYh7r27Z7Z0/dIzPb7nT3lFNY6zxyJI7b1WQMCqRgZDEH4GBjuONVHSSRJFRxWumWEByxSOQ7CM8ZjYjA7Hap+2CQM23ZKisvdmWopp2d39LONx2YHKqHChBwcnA+BpIT23jC/dI2fitoXtdHJ1DRw0NwtNfTivqbPM8vnpVMQrzpHG64j9S72Vc729ZKnGqdu3TrdXdI2ispq+lqa6gjjpazyqErLT7QpjQKeEDoCMjONpPuNWx479M11b4NdLdUNBHa6u3b4GqllptkEW4sspkmxxtZhwQcnseNAfwwQvX269Wi59S1Fzt3UYEZMFRHJSKRGVGJTtO4gYO3cOMk7iAT5dXv0AfYi+JaePeW+pmWvglqbSlDNPVhIG8oSvDI6MhbYUdVwfSQjk4JHpB/NoFNTtKqi3PRR712KRNLIC8cZWQ+UmSFJLKGwDnPyNXF1103cLK90tiwmPD1m6n3jKS7PUzsOdr7WPHGEHbdjVM3cG3V8FutVDHUNFTyRwRRZMjoJS0OM4XPqY71HOMEHvr5oO3bc+mKqV1J8FSKwrSUs9dUSZY7i5k8tUZcOpY4LeljubGeMZwQG21Vc5T6i8Fo2m80FPMaQLGknrCnnep35HbBAHIONVxPca0SxUklQkVOqTTuzeb5EqebkfkJZRt3kg5CEEkc8+oq67K8lfVVtXSpKcVMKTKmzcdj7QgZXDoM5IGT7cEBo7NEnqupZFKyfVPNbFE0hmdBLSxjbGirxIvBXnPbg9gcHWpfw126C5+GfXHTEtNHVQV1FHOY6lndHYbgSwGSewzgE8YxxjWSulrlJXVsRBmqXnmkVliiVEIxxIFU4yQWBwCGGR6Tka2J+EZEW8V1KEDpU29qaaMSsdjI3OQRxnPfjTuP8LVwJNyPlU0+dvjxBS2TqKttVpsVfbHqKlxU78lKpI3zGE37XWENgoqxKj+lskqMad/C50vfOg/Bnr019fQC8Vs0ES06bZBTzhFwhnzskKFlEipuRX9G4sjhZ/4rPD26TXu8Wjpmku6oCZq+OnloaeKcZJQzNIFnqNo/qDHIIBAxqV4IdPzDwJu1tqBMZVqiKmVwfKikRWkMAI/MYlbe53cy1MmTxrsXMTXOVUo7xcasfzpbtWXlqu3zW3MBiOBMlPEuMnGXLHfzjblgBng6CxQSy3O6VCo5WSljK5HZjHIoXPvgZ/Yrphhp6WWGx0dNDA1HSW1nmZgFWOBFCyO4XuS0iKq5/MX5wuutbG1B9FUxQhhXV8UCKxwVyd0rY9gEjCg+wJ+dc+zZzOkmhiASjC20FnRfMFNIk05A5EJfJ+wwDj9F0f8Aug7D08bn1nRGhW7V0IhldChbaGz60UbgcnHc99DpWjoYLjc5jvkqDHHFHkNuj805ABxjIK+/wDUNTPCO19RpdKv+TXx/RRiPzVps05IwHUyDO4swdsHPtwO5fx+wPx8xN3Uj5S5IqO4Tq7VUiKrsrgJCU8t+2TtJJz7HPOO2pdjo73STGasuSywKD6EgaR9+e28k9hxjsO3PtIhtMtFIs1HTytEOZVEoYrnuAO4JyOdTfq50mWKC1mEg7SNjHA+B8+w40s1upyfMLurDUrzxJ8IbJ1673OktS0tzlwsk0tMwcoBjvjJyOPb7Ec6qih/CpZaGd/qKRrmGX1BvzKSvrGAMKM9uexx9zpO63ego6fzrjPOzkgeTG4Dkn9NJsvWFhvxeymxfXUbkCoElVvjTBOVBBBB449jyNBbbZjpNrRAe0ru2eAXS0csckfQVNHGZTLCRKCpckADbyAm3jJOeO3AOnPo/wALbR09cv4zU2alpmhANOhiVlUkBSeBx2A7k5/XTnSXuggtq0lqooKWGCPZCsakoo9hnvj9ec99QK28Vs+HWA+WjEq3pIGBzx2/9dRF3BOMynCkT8tEN+rLm1nkjLyDcaV4yxESA5wxHxxzgcHOMZxVn4jPE5rLdKrp2oty1lWV8upttxmiaOSA7QpKKEkwfzK38wqwO6MZLa1p4T9G0sNBH1NUzPNXVMBC4T0xxnkLj78H7fbWb/xV+BP+0tdb7rY+qKimtk0nkwJV2p6+lpnLNvSOSJTU0qqwyUO+Ibg21OWPRpRkQEzn8h1dsD6mLbsKC51lRU2+2rb6eZi0VKsxlWIfAYgEj4Ht20CqHnpwtNKgqKf8ojkYgqM5wrDleecDjPcHVy3XwUvHT04obtF1XHMRmNoeh6+SKUZI3JKH2OuRwQxGq9626QuXTlSj1NFcYqeRsQy11KtJJLxz/JMjuoByOft84046k434guhtMdYuKSR3LD/gTACQfYMPS/8AoftoRd+nZ4nLxqVI4I/7aYrLURQELIAfYZ9xovVUUVXFmMYDDTkTIzHK4GjKuppZaWcxuAAp05WuoWqpxhgWX76h3Xp4RsXVc/OotuSeifYpI57HXmT7EnYjMbaGZhJ5RbHOjgojPDjJOdLdCwkdWYc55072l4fJG4jOsycTVivW9KJUufMjBz7Y0r3noMbWMUXHftq2qqMEB0HbUDas+UdRrQO0LuRM/VVJU2Oq3xsyqD8amxdQNMArSe3vqwetOl0mgaaJARg5GNVL9IaeuMbg4zg6xsqMTBhzDtOWrJMgEg99TzRtGh9PJHsNSLLRKIlZRnjRlaZSMN/bSFU5yZT2CjEUnllQlRnPbXNMF1NQ3c8fbR+utSv60HOglzpJYI93lE49wNMDEai2UPGWhamFONhB40DuNfHFIwU++gdJe6iOYRMSFPH30UqKM1sfmxDJI9tNQ5k7r10Z6gmjqDjOSfnUG8W1G4QjLd8a8JBJTtyxDD76mU0glkVKgZJ7HTu+BE9AYviknpiwxwMnQtqySGqODznkaeLnSQRwFojkkaWf4G07mRVzu50Jf8wlTHiHrVco0owJGAJGiFNckYhlJwD86S6iKptsgLAlfg6NWuoSqp8jvn20QBbc0nHma/nu9BUUirFt3jIIxpMutylkJgEyxLnGScarK/8AX14jjeW1IWiUf0nBP6fOqn6g8W+pJahkRNhX/E2vlqPTbTsT6K/1OpdZyZpakrJrZVx1FPezEwP5lc65eIfitbx09JSV9UtTOMqXY5Yj9dZOPib1ZKWElQoz8Z41Fetu/UMhnr6p5MHAAGujV6e6sCx1Obd6mpUhBuSprZbrzWVtc8SuryE7c9vvrzYbdbIBOhYNhyB87R8ffvoZNHU00rRjepXg54zoh9DPSUfmnBYgAgj3P3111H1OR2zOtNROv8yF33sSQezD4yNHLBcupbPc4KkvNLCGAZBk8H3HzpRa4VcMwWJmGMHYx4P2zpqtnU9R5UJqIJT5LbkBXK5/XXmQEbhBiuxNCwN/GqCnleONZCAowwOf1xr9NnqoSFwFPbKnsPvqpKPrquiCy26NIot4eQM24gj4+2rDsPibSV8axV08KkDkAY51yeRS9LdlGp1OPelq4Y7jb0bX01ovYnuDKwixtL9vvrTfQPjrR0lJUx2+ucxRMuxvJ9C8cgax5e66jmjNVSzq2BkAHRbpvq40drFJGZO23CkDOTzyeB+/A05VyPcJhM4HwImv/DTqfqHxZ8Qa9aapFNY7a4r6qeRWkmrJoOYYi3AWJXfcVyBu2dyDgR1m/k3J7PS06SVUkW6NpF3KGadfOkOfszDPH5SdMX4aKi09N9NzWQJK92ukcMz08cuVSCRyqA7sHJLSSHOW25ZtoZVAy9zLNfqqZGLtTPvCRp5gjJlXZkjscKCBz3JPGNUcX6xJ7TknM5Wn+HtQPPFuhg2uEWRPMmkdt3JGR6zkn7bsDGM6VuoJ4LTao3ahaimjJZ51jaZt5jJYEqwUbVJGFXj9TnUmayvDNVitnAgibcZZKhkG4AAhD7Hg7mOcfc8aSepvOjs4o7fbqqeho/MaaYh5900mS65Aw2A2WLHb+UHsBqkk9TiLGMjMTqG5SXDqugovO2UtLXIarCtv8pTtMb5JxnCkbccEk576tOaVoIqe9UkW6KJZlh5A9e6VWIHbBZVUfYfGqX8Nbfd6jqS51tBuCUku2LzCEj8zyyEDDG4jPPtjd2+LnoUlutjs1MtIsDy0h2R5wqSTSyAn9mJ/vreMCBuDeQTqQb1BUUnTJraORpJJrU0ybvSXjide49vbj2z99ft3qEp71ITEkgo2dlUDCkLkSMCPuAc/5jomuy4WZ2lRfKDzU1OzjlYzLsbj4OyEY/XSnA1bU36lmniVVqfOgCuMFXcxOuf+VZf+mqGYgxSjIlt2mOjS3QKkD+XVVSlGIxhmwhz8n1Ff2+Rpoqq3z+mqmGVSZHgzGjHBd17rn5I5H3zpd6faAGekU7lVYK6IRHurAFjj5WQN/wDcNL/j7XS0fQ5prbXtRTPPGBJF/wAQLtJPl8fm9KkH2xn41G7/AGY5VlueBN/+gmt001RPWU27bQVLRuqxqwwsUh2kqf8AzEr2Iznha/G90D0/1nSVlzn6+rem66jt5lqKQWqkrYZoyu4yeYVFRCoXIYo4BVdxG1XbQv8ADP1DcKqsgnkLWu6GSJpI5QTBLMT6x6f+HnuQABkkgavP8TfS/VV96Ro+pela+oSutrxyzUtJUW6CKqRTkfz62F1G0sWUb4txHDq2DoSpAxMJDHM+RdBV9PwSpFa664VRDEPJUwQxIQPdPKlkyPvuwRyNPFBFR1cKtMFIGCMnA/c+w+dCfE6ydN9Jday0/iD0zeukbhXD6hKmw0ztb6pjjdIlHcBDLHnksIp3jJJKenRDwskENyoLt1ZUUlBa6N4rlLDWqd01Mrgh3jHqSNjgLu5lYhY1fOQqs4ODAM2VcaCPprwW6M6alipoWuML1FTQpG0clVM8rMN24/yVwEXBzjLnkgkos13rrnVziOzfVzUMklJvWUeTG4OZpdx5KhvQrHOccZGnDqW53TqNOnr5d1katemauSgJDMJJi0qrI3bcgCs4HC7iASQSau6n6gPVqzW9LpJStNVg0zyt6SD+aSRY/wAqqo4Udlxk5JxSG6qI0LmQrt1lHJVTdN2Sop5yZHSWrcUsUZjUEsQ+9ZCM7sMCOVHGByWqOpLnRdKXG01d9jT+I2ZYYalwrxzO7Dy6gEggAo+GPyG76D1FJYrVZadLVUUsEMaL/vkhWFpwnqkBcjCDBycMDjAJ4ACN1y9f1DDYLVZq15opYZ4oaqPBIhlwRIT7lVlC9vzE/Awu0dnAhIcKYydOdJyztRXUQs8MFMy0aMxkDMY9qykcDecOcAADfgd9SLzQxdO2+3UsEokFI8UCZTkbVckZ/sfuCcas63imiprcpQRzLHSSyiNeDI2Uxz29KkfHbVfde0qR7BktskFXOmOBtyCM/wDOP21SLQPjJyn3G21Ww3ClhmhCqJQ6Deu5WI3qcZ/K3HI+T99NfR9xqKKOttFRGMERMrlwPQw9WGYH3BGD259tLvQ383pyNEclTOWwHyVfyyQw/wDs/fBHudGeo6ihtRM0rRxU1RDveRvyKynacn2BIXJ9t4PudTFgxjcdRHbxTQ3HwNJt92giqIK5aqnikemnMMKRkODtA43YIPc8EL7GmPAvxQ6zuPV8Nqu0MNaUdXWGK0COoCKylmEsSxvGo28sxAJJJDHs81PUFrr+nVjoLHM5iExkeOpaJZUZQNiqoC5IHobLEHaT7HVd+CfTt2PUkhrLrJU2e6fUQLBRVdL9XlDubFPJKVjZiFUoy8HcykIA2qDg1kGIwVsBEub8TlNR0vWtfVR1EbGpgiqJUk9aZdDuizn1Nt2HnOCzEdxrLfW8r1RS311rDm5VIhjZZHRo4QjbPLHYxAjk5zvB7EjWsfxEqKel6frfLMZpKM08kM08dTK5EwBZ3Qld5c5yM9ucdtZV6ouotQnqaW1GqqI6SpaFJCd0Q9S+YpPB3AknHIAz7a+Ytrxccz6eh80qf2ld+RU2Klt8V0heWpryZYgY9wmOSGJjQk5XaDuGCQ5Bwe5SCtpqqilp7jVxw0UUCyEyIHMwbcoxGAC2di/nA7g5yBj8uFyo4jHstDS1KedUQVSAQskxUKxGw7gSHXeBxhCRnGluCnujyVNBHbYq8iN1gi3rudcMzwqwIJf0sQVK+pGyCTzVWgMnsY5jpZblLSTsIasU0dPCVWnqJiwaNQSjewWUAnBXIO0c99aS/DB4p3Hpm/xV8s4qbcY2iZmiVRvAG4bnkzyOSBzwTjjnJ1PUVMy1F5tEtRtVohLJUAxKsRTiYlRjOSysWG31Bud2me19R1FmnjqJZK6mKomBU0yjDKxwoYAghhjnnvgjHOnCo+R5ii4IwZ9NvFvoHw98bOjqe/XCxW6+LTLHLFDUkhQGIz6kR2Tg8sm0kd3UcjNnTjda0UHXFp6itAs1t6dpaOjt1mt8VN9FBFO7yMYPJGXJSEkhiXJXByGJL1+FjxlSqoqW1TRKaOqYmNUbARGI2gK2ChBJGO3pxxpu8WIKS0W+60NrqjTVF2rJpIwKmWXLpTsMIsrEAjJOxcAHbxydPazumGkYr9uzUzX0nQJZZa2CWommoKC1UqNhghLjzXK49lG5cDuzSZ+dAeoblWdR1lhs8DyQwtcoad5I8jzCoWacfOdoVAfhj7Y0TqK642bo651roKZq6hWkhiVQBTSrOVeRgeCwiCfZTGdDumVojW9PzJUBFWtqKmCIMSdjCUgk98lIYjn9fnGobH3idCtMgmGuo4Y624ySPSb1hqxQLBBjGUkUn2P9Wwf8g09+HMHTkFBfKyjs1wpGZmE7zTrJTuQ2F5K7dw74UfOT7aWLEgS2x3eofcvnx1C7tuJJXDu3fGfUUH/Lpwlho6Pp4Na7V5LVH8xYzJ5bs6n1PjkMWzyByc4znXQ9O/1CTIeb8MCNgropqZXrKqOnVVWOOQRNntzlgAOfbjQm5dQ2ako5I6i6TxhwczAMVx3Pqxux+nbtxoJbTdI7VHX1jxRQVMQqZg+5PLXuFEZBYsSe3wPvpF6uvDwxivXzauVXj+md337IuXLltoRPynAwxyVwMAZ6RoUnH3I/cOMxg6q6pt8tHNNQI/rDA1U0ip5UaryQhwUAJ7YznGe+lXp650dnp5qwlahWfMkyRq7RnP8Al9wTjnA4H71xf+q47tc57I7Q1CxUZFVskx5pcsqBct7PvY5OeVJIOilL0leJaelN3rKiliWZUniimIMwLEqdqD0SYChgSc+4IxoG4izw5BloVPWELNJLHBNcniU5Yqw8og8l8HbgYPce/wA6/bZf6240CgVFN5ZmE4YwlQqk+23jH+Ygk/bVY2e6UE89RbLfM6+erRvC8SgyBe5EkZJOMgfbngezz0tVSWynpjTNGtI58iRivmFmzwoDZJYnOMZJ786kbjLnEet7ATc3RNX5vS9sZFbY1LE0bMAvOMkZ9wf07Y/XWd/xCQC13mqWiq+m0FzpZ/rrLeKualpblG4cNHUxM5pipZCyTLtk3AjHO4XL4Q3EXLoSgp6epamekYw+bUIoLn3VkGCuDjg+x41Xv4l4elbzZ/4XekpIblHFNVwU9TSvOKukC7KuIpGRLLEI1DyLCWkEas3lTCPbpd6ldQUOTMAdc9K2yOkrf4Jaepem7rZCovfStfV/WRW1CMrPTysRK9I+5SrkSBdw3Ngq715FRLGpKU6Kx74UDP641YsniBSW1qa1WaWWtoLaXFp+uqRVT2dSx9FBcI9jyUzKf+FNHtIY5jySSvzxU9W8k0MSRq7FgigBVB5wMADH6AD9NLNZOxDDBYqVFQ1JyoOe+idmv5b0yN9u/bXi420vkFc6GQW2Wnk39h3xrUsKnBgMM7jlU1kE9I2wAtpPrqoRVKunzyPjRSCobiLnkfGoNxtLOxeLO4jvqkWBtRf84ats9NUxh1YA4wCNGaSvkgfC547DVe0tTUW+oVXUgDv8acbZWLVBTnPHfXsTdiNKXMPEPV+o+Nf0Em6UFeftoVGiqhB7++p1DgbXDYPwT21oniZ6vkQqKcop9uw1VN7sEiVhmWMsPnHbVzvSpOufnUSt6dgkhPAJPfjQOCTmarAeJUVJcHovQQRx76LUl0hn5JGf11+9T9NPTuXjyME9tKEElVRVW1wwGdAI3Odywo0E6g44Ov6ptKTRlSmc6g2S5rMAjkA6aIdksYK9jpy1dokuRKwuvTxgqd4XAz8aK2cwwjyZccjGmW629ahGG3B0jXX6miZtoOQdBn2juFg2iGK2monyqqMk4zoU1A1O28ADHYHQmm6hl8wJKvqB4ydMsFVTVNKZHcBse+hNvYzDSUgCrneXMbcYyPsNS7SCsWXUYzoZWzRxVWGbjOp1LWU7kJvGT2xoe2YYHXzPN7oo6naygfrjtqLbqRo5CEUj9NH/AKcyoTGvtka4QLJGzEx45+NNWwgYimTJzF5OpqqkpjBJTeeSO5ONLT217pUvMwVXcnB9h9tMwpotpaQDt8aGtL9DVZhYMDyV9tUoqkTjpezHEBr0ZdXqNoonKHkyLgr+v21Iks01nJXLkHBPABHtpoXq+hEQDwypK/o9LDA9s5PfQHqO4CZTOjOrIwQAvuD/APvoW6galQP5kWG0y19TmNslf5jmQ+kf/DqfU2qd4yhmCmIcqDkZ/wDTGunTlFWPQS1qykFs5UpkAex0LEV/UySFZCJWJYhMg/p8a8uZ4usDVCFZ2VlAYe45GidvuiQx+XNC2zbjB7a41Fur926SkYHPBK4Ojls6RuVbAZTAoAwMlv8AqNNAzCBzsSAsxnfyaVtrEY4ODqFcrTcbYn1ouLkE8Evz++mmPo3y321E0Y9+54/Q6l11DZoYBS3KWN1PGXI+dA6geYanBzPXh5cq260LxNO0mxdobvqxekqWsq6kUNHTTzVDHEccCF5GPyoGTnShYOqOjekqMxxJSxOeAAcj9ca8WjxWoze5IKGoaNKj0MY2KiRTj0nB5H2PGoLiSOqidCorpiZub8OE89v67uFNWXujrLvPRyVVfDSsskdHTQjBhMqnaHLyJu2lj6XHBO5neqpqaO41oaYyzzzCofC8q4B2qPsCV74HpHfcNVP+FWOjt3TfWHX9XNtSnjSmjhiKsxfcPLRRn0+oux752xDHzb9PBJT2xJZYPPrrhlmCtwg3MSS2ckY/c4J7adxyBX2i7dviKF2S52OlkoLVBKssq8lGZ5GyQigsMsBkg7eBxkjSR1DYqS82/bcq8qsEaGaZ0lxEgJ/lxBIyzb39O1Ap475Grg/2cr5UWqesmqUZXDU8KrDGoYAbmcEHAAwAMnByedJV26chhoKsV1SZqMzNUy/QzESJLwiAks24D2JBK7RtwQF02m8PqFbUV3EDoWwy9O3yoVKalaO5oYSsMRAzEF9SMx5wzeoZ4JOeRpjp+oWWySyUcZFbSQeQAR+WTecDH2LZ/YagpaKazUMU1rmpjUQQ4pZaiodZIQqKCvls+WBw5wQMtty2QTqRfGojI11t1PURU9yhM/8AwOFfncCVJDEEfb99VIgJGJG7EeYetsapFHapDgRVtVSlsc4bEkZ+BhgO/sNJFXWir64pLTHlYlhB8xe8cm2GRT+mQ4/Q6L011EFVLN5ztTzJGS3BYyogBbH6IP1J1Xlp6hFN1itzmTmukaNY2wSrIYwnftgxkH/zHSbgS2o2ojG5o7pho3hP1DItRT5p22jujqr/APU5H2xpD8Ta2K7dT2yz1BLRU8RqWVWxlkJAGfvuHb2GmGw10VPb6qrpwTGm0qBkH8jAKw9mHH7DSLcJluXihUUyjcqWuOaKQAsVO5wcAcZwB+g/bSq1y4zDZsA4lk+FRE1S1a9VNQVsLAhY3EYYhAVIJ4ztZc5HGMj51sG2xWrqTomsoWpqSugqKdsqsy+VISuQC6nAJPc9gefkax/0ZSVDVHmUuwTmbyzHKAN8SHA453YA7/fHspGq/By6tPaZErqaQSxqd0haKQFAx9X8tu36jOjvGxF17E+Yn4vrF1RRX6XpDw6anqbVaqR57103bir3C1O0hHmTQKT5kLLsxLCGTPqYRlhnPPhXVzV/V1Gr10QHnLK0cs2JKuQ4VF9XDYJGSxAC5yfbWtv/ABDaKxS2YVVjvV7iaguEldb4qlaYW2lkDMk0cE0LN5ZlUSNHG21XbepYSARayz+E7po9VeLFmiWoY1MNWj00K0vmiPaQzVkm70eXABuC8s8xhXYwJBmNYxkQiSWE+g/VFBVVrUtor1nirZbOgq5JZUk+lhkLNIW2fyw+xWU7fSMkDhRqrbvaKCjqK96gQ2i0+UgKHIk2EgN6VBxkKqgNy2cn41ozrbp+FuqLrTIGSCJYLcDUSGWaWBEC7S2RnJHqORu7Z1V3U3SkNWszLdFhqZgG3lY+Qo2hmBBBwuccYAAAPckxegwGO4/2mI1KF6su9tqKZrZRbmgq6TzJqVqob0gjBcKRkqNzBWZVOMKS7FnOifgz0ldUpHF/EL1KR0sFK65UBSwYH4GQwBHucnuTpkPh5Y0YJbKZnopnUS1xiZ6u4SK+07ckKq543ncO5xkjTBb4a2z9PVqieKeupJUuKS0qbdyF1eZADztCsD7j0nT2TshdPMQH6t1bxJ4gkhgirBUTkTXiBNoOS1NCWY/sMj+4+dLfinSCIi3GA5np6yd2Q4OwKiAfoW8xv+UaOUvUdHeLzS1duKmjt6+QrKvBBkR5nwfspXn51wvssFza5Xx1dlelhgXK4O0k7sD/AMxx/c6ha729mVLULNCQfB6oVrOaRnL/AE/les/mBU74yP2dlPtxpr8UKNafp6upoYllY+d5IY4VnZVGP0IAzj2zpd6PtFTbbZU1MbrJVtSPBuUelikjhDx27L/fRDr3qBLndqGippuZrX5k2F3BCxwT+vAUfqdDS5tsE21BWhgToWS42iez0detQ9EyRRy1IqFG2FyqtuDH1FBIMMpGMqcc8XX4NdC3fp7xBr6Tq428XFZxDClqlkklnA43yypES6922zSbkJJJ240n2Pp6Obpjyamlq5FgmlZaeOVRLhXJVefhQFI/yj51oqqqbjN4nWeistIKmkrIYZamnwwp4QyqzSSSD3KY2KQVYhvUNhB6NwFbdfoyGs91z9yqfxcyb7xGKFoFhoLQsP08RwmSwY4B4YZBGBk/m+dZVud+NQ9TDDcZJ6ktI8sm5fIjb+WfNYNwwZGCbfckfOtAfiSv01+vlxWhpzJJBM0Sw+TnHlgjZH/j9WGx2wMnWZerK63VdHIJ6F0gpN0Nwki9MkkTRx71Q42lsJkDGMhe4HPzlpL3Ez6SkBKAINq6qGJov407U0NPTx0EfkQMvmvEQrMyd1bYYyxH5hz30s3Gihpo7q9XWvDcLPD5kuyhaOMSfUFmixnnBIxtOcZI4xlrrYrtVvUVElnlulKZxJs8tYZmkSjBlCj2ZiwZVI5WNlzpS6i8iqhWpvsdTVXCrM0tG0CsXp6ZY5JN0isQS4kfKE5A2n2OraRnUmsk2R6mmlS0yVNVMtHPDUQwfVhWjk28qH/rQgjKsAOeR76ITXDqKkktVwpmgFJSTvHNGT5KyeU5YxI35cnawGeAyjt20s27qB5epqiComEdBVRRV8clPEonjaJvLm2gj+oozFR2x7c6/K66C2PR3ie01VYZczzUgkZ4pF5O7zBwGBjY+/qUe+dVgAiSkkHUtfw86/vHTVdW3e53eSWkCtTxJOdoTa/moeAQjbdpBAwpAyNucatbxSs3Xc8kFxqhPTwKBIXTYTGUAb1ezgdvcj3YYI+fdouLK7fQS1MT0Mkojp50OZqfl4T5gyr+g7Rxx+U8HVoWe9XC2yWiJ7rI9LKiRQVEMm4NSlSfK5BVwqkooORhdpA761aQxi7LCAJbXVEc9+t8ljehqaamnro6iq84gMKHzAr+/O9V28c/zB29wdRVp091CtclGfIMk+5gQdryxiPj/KCZSPgYGiPUP/43Z6u/2+sSKVITFcFSRcSiNBsaHGQoy8bbf8S4IBByo3aGRbTZlhLwz1FliNRGDuYS7hOxJ98LJs/X9tcjkVmtip8zpcdw6gjxLl6Jp66ay01uhhdnpJVJlmh/lJvlKZJwe3t2xwdMPWVxRp46C0XBKOakfyARJsKkY3hi7YIYEkAcH3xjIqDwprJ7jdP4tPT1dRRwQzlIguTgTyIsgTjcwVQQCQMaOXaa61ddV3KjuLoGcu+AAQyFWyQQwZSM5AJ4btxrsemkJTOZzQXt2Ybtt56httbU0tyqrNNHVPvglSP6mR2CkKzK2AiA+xBHIwDydIPirXzeRJfauoEtXEgp/P2hvJeSRVUKBgEnvwP6ATwBrp0/NJ5h+mMxpHfaVCyZDg4ZwgYgBd/HIX7kYIhdTyJcqKjp6ykMsMEeCzAiSaF9ykhewVdyjcTkknXQSzLiRsuEi30bbJrheo6iG10rSUxliE0kLBNxDGPjGC2xmB75Axjtl3t/Taz00V0uZarTbuNOEK08RxiNI4XbaO4yXAJP9JxpGsdZR2+R6NzJUzzMBGUuDRRSOwIzIznbKh2b9mVzxyTkB6gs0kdojlSS3SNMd1EhgSBaYIx3nEfp3Zb8z5wMnYDzomswcTFrksK0UE1LSS/T0ezFVLGd0W3cANzM6hsn2VducKoPuz01DTqIRDdEjm4lxGzbZHwSFMeDgYBwMocn9BpEtEHR9ZfKdWa7VFSKOeonqIKZvo3cDaANiqJduThiFA/xE6n3FqajqnMJetptkZEbSP8AWQjYFEjBikuPkZIfBAAbbpRfJwYXT8TUHgx1lTUcDU10muDtO5EMa04YsCMgqQm5vTkbS24AE+/BzxtltNwsyD/a+v6cracLW0lxp6ZnCkEESx5SQebEQH4RmX1b0aNmIpHo68VFzt7Q22/2truIYPInPlGJy2QsUvnAMyhhjcV3jvkHgtX4hr/1HP4CQ3KgsouD0lIJ6+geN5XXZjeT5ZIkSMBnZQ28FFljkVhkQ3kmORRMXeNFgtViv9XX3O0UkUlVI5a49M1kRpppySVkko3LLCJAVkKxuijcdhdcYT7FVpMgWQ/uRjj51y6u6qo+voI7jd6OKnv9JCIUuMCAfxCEN6UqfcyoCQs3dgNsmSFfQSiuJpm8snBGhTzuYdeI21yIp+x76iCiaoYKqcaEPeJHYIWPfHOidpvMa+iVhwdY1YJgdiJIW0nJ2dxohSW5Hj2yKSfkjXFrpTgDa476J0ZVo1YHJPbQGrqciaDFnqCzpEjOqjPsdLtBdGo5jEW7HHftp+vyF4dn251XF0pMTkqMYPtpwfU0GN1LeRMg9e5sdvjRGlrn4IY/20jW95ImDFsgdudNNNVRrEHLYHxrVOZhjJFdzA43ng8aK09xSpBGf9dV/LchuzkfA0Ws1c/BZsDRncHEM3aniqEbcAc+2kK82SOTMiqBt07VcwqE9Jx9xpeuCsYmD47YJ+dTnRj6z+Yo0JamqAnZQdPdsbdEpBBB0g1A8qoKgcKe+dMlluyooR2yO2nVtgwbFjLPErrkn9dLN8tMc6FgmSRplinWUZByD768T03mg+nvo7V7bgIxEpS9WqWndpI1II5BGuVuvEsSinn4I7Z1Zt46fFTGxVBu+NV5eLA9PMWRSCvtqUqcSlbAdGQ7kTUkOmQRznQ2OsqKedCScZ7aJQsFHlzLj2BOvw0aSy4XkHtpaoQZtmMRwsFyV0USEc8ZOp1WY0LbWHP30q0cU0CBVyQvY51LSaombyznPbGnScSHTVcE8RjPqLHtrlD0sbmGnklIViQoj4A043PoOKzQpM1M6k/0k4Vh86X6vqCOjDUEVRHGMY2oR/105D12ZzK6gmjP2z9K2Clk82tWMhe5mbI/10y2609G3qpEC1FNJ5I5EKhtv79tV9UKlQSeSG/xHjRCy1MFsj3SxSAp2CDv++mCxTqeLbloRwdKU0f0UNVCACc+WB2/TQu4NYKd/wAglQHhlUcD76QJbwXZikpjZvfOcfbS9V9XTUVQ1NUSMx7K2eMf99NWxYBRjsR1vtxsLACCBQ3zgAk6hVF6lt9CWpVBfgnd2P8AbSobrDVRZQgk/H/poVca9kXaZXAXsCSQNEWBhV5BwYVqurbtJJhwkYzyFGcjSh1ZcJqx1DzbjjsD21+mummfarg/cHOh1ZDLJPljuz7451jHIjx5kCGKT+ps/wCuiVrUCugUwzzFpFURwMFkck4AUkEAk416Sl2p20w9C9NwX3qKCKujnloaZlnqoKXLVM8YYAQQqPUZZXKQpjnfKv7JI1uNB3PpB+HKitln8FaaFIJmkq6mlohPLEtOtbUs5mqXjU+vywY4kErENIvlkDG3Fo1de308U0yJLNWFvKAB2tt7n7qAB24wDyfetulKvqai6V6a6fvcdrmvEcElxnjt1PElNbKhpvJjo6dYyVJijXaZCS7AbmYcAPF1laykWa3vJU18UCR1E4PmON3HlxFj6FBHqkPc4x30CjFMeN2CTbJ1TbKO8R2W7XOOSsnVR5JkGAAc+lPYZJyT3PxjR6/WLznllkpaeSFosb5o2KAH7IFU4HAHOs29QW6tjvKtbI3qq9pl8wwsSIzwM5Pc5PdjhQc41fvhN1tSdTW3+D1U2KulBjLAHa23g7STk8gjJxn9ME8mtmrY5nVsUMsWrtbK+ShWsoCIXhfZHGscRp/NVSqklmLhwCRnBAP6aS4rXKEezMzJBWu8ayRVQmjopguVHZTtYcHfySQfvq+730/DIwnAizG2QdqSNjvtIKZAPvg/odVN1hTUcNc6S7ROSGDqVcBcEKmBiRlLY5O4DHtwdderkZH7zl3U4P7SsJRJCPpalljmpKRHdRJkb2YlmJ9hgnn4UaUbHJBV9RVNOscbw06U9Qm0H87tIz7fkcgY+330yddxlSLyrtGt6xTVixncYKhAVlXdyBlWBAPscnnSbYqmqi6rkFPCrxkLN5AJO+BWdAoPuSOx/wAWPnVYPcdhJiOupelikajNRA7tukiaF9/aSRCfLYj7gYJHfI0nWKsqE8SxTMZFFfbPp/MQ/wBJJI554wew74+2jdnlFVArRVqTK7AiQk7iqnauR7EjB/8AMvuHGluCOFOurJKN8TBJaXcr4GUOdn3IDdvhftrn32+3hjLKa/cOBNAWqWrpaloKWYU6mGOXiMbQyqAScOrHsfY4yOD7X94KVVuraSv+ijmqKhId0wOE3uDwuM9+Bhif9NZT6drJYa643SsEJWapkdI5XYlYEYjgEYDd2znGMen31pT8Ntwkmr7nGJWki8lWTgYwecA45x+/fT7tdYmveTMVfjM606v8GrklfaOmLLd7Leax/wCO2+v6dpqi03NZBgiobdvp6gsGXMWUZk5IKKrLn/hx2Xpy7+M1/vXSnT0lNbIlir5YqmSOokp1yzLB5xCl4EcLIAqDc2wPkoq61R+OHwYqeurULy1/jpaGMnz5K61JcqOKVjhRWQ7Swg5wsqbZITghmGE0kfgN8JusfCPw160q+srbT0dwkq46GB4J1kFRBGgPmK+AxWQ42secZ4UDGpy2sQ1XLZj91hcGl6hqTI6RyS1csssmcuVHHHzjOPj/ALw6WK1XRXgppxDOykbUYGRl9weRn27aE3u4ItfO1MkVZXDcAIgcR8Y7f1KuO/z+hwgVFt6rhu/8fFzWlMbBV25ZnbgiOMA9h/U/uThc+/IuW1rcr4nYqNa14PmNld05dZ7kIZleipTFsWWpqCTKgb1MUXIjiUZAGQSW4wctr9pKSnppFlgt5qBUrH57TRLsJBKkKwwCGXkhc4BA7DOmbpm6xdcWhpPNFNW08jU9WsboRleCRkNgnsQc7Tn31G6gsMUVO9KadHic+uNJQq4P9DSueAfftgEk5OBrrcLk/wC1pzOXx87EoD+Fjw+vj9Iw1rNQ3Sb6+CZhnfQb2YRrn33vtYj2Rf8AFrjVdUx3SS9qJH8hamlgVU/JtTBbaffkn91OrL8QbanWFkqbbbIEF7pg81Ac+hqsghogSBgOq4AOACEzgKdZwt8ktula3VsRjkRW2w8rscHLsQedwJkHPsNN5NAzkeDFce4gYPkS8+iqs+XWzO3p2TLIh/qVxHJGR/8ApAfcEaULRWSXjqS/1Z2+dHVRwxZGVZVUOP23Nk/21+U14uFLbBXCNo5XtqGd05w++TnHI4wc/pob4W36nuXUV2SjUPUSmN3Vu0ZHGSf1BA+3Op6CKrBmOuBtQ4mjrVQyV8VTsaJUYSFFkzsIJJIbsVxnj3GP01dPStykekS4T0lVHLabA8SVJK/TVGY8MgJBYFDg8Y7kkt7UD0tVeVQ75El2uXIYBdiMGAIJzzzjhsdzg+2rP6XuFHL4X366QGJJ6O3T0s/89DkDcO2MpjeDlMZwB2Ouhz9AMJDwhlsGZ468NRPe5hW1ZoTczKfq0O5YNoZzKkY5BZGkQLxko+cd9URUiibpsQ1Zq/o6GZdlVOwM03kS00YXHB/Pu984cg5A1dHXVNR3G5whJpZzPTKkyOojj3eRklm5AIUEbeMZYnVR3m0wXG2RW271Mn+71NOzNySZJkgJR2HfM0m5iOSIlx8a4VYB8z6FjiBLnLTXP6Ssr77NQzyUq1X1CsQxiweGZD6cSxhQe6iTHtqF1BdZJaKpv/TVaZoJoY6Vo5SqzUqmJgqjAG8MkiZPyuf6SCYkem6uparpM0FPb6VYagR3CnwZZY3ll2oOfUu2NHVe4I+c6T63p+02muoLdUOCldEPp6jdgRVibDFGw7BXExAz2O4Hvw5CO2BEt+nM4V4RKinnWoggNwSEJGmEWFnaMu24/kXhlB4zycca4z0VvikhFdcKgxzPAZJoUwkkJd45CpxtwMxEg/1KCD6m1OgS1U3TircLVdKeV6RqaKZ4fMjODP5ZYEbgozEB3Iyw5GNdpa0X/ZWUKRSWcpNC1IqcS+lfMhibjazLIzDBwTHgH31aokrH8wbNcr7YLTV2e3pDVQ0tbNGszJgVCK7ALyf5bAFSHGDkoPvozXNXy0YvM1O8MCUKYgMbKJF2eYHYpwhyW9QAB8s9/aPLeqKCw1F7ms01ylrYfJMlVHhS6p5UjHHBVwV3Ajcr5z3OpJFwqKCjVbdcILctNFDb6xsNE8aDcIg5wCylnUo/cNwwyuGrkGIc5lkeHPUP1cE9DKhgmuNMlvqh5ZkhYqQcuoPqJG5SQMkAnnGNHuqo44rNX0lHUqot8ASlqQxkUSSxxoRkc8bW/NjA1THTU16tc1vWsgejqlJSRSNiTOCpilGDnDLtI5OCMjsdWb1ZVLbfD7+L0cssqT3GBqeMpvkknlztVkHYBtuWIyRk6k9QrzhzH8F8ZWWl0D0sabpd6lpQZ5isqVJkI9LCRjs5YEgOw5AzgYx31FuEt3o6VRb5lQ+ar+WahfLhjzuB8lCSuBuIJYYywYEajdFW6K42myU1fPHvhowsxcOxHpGWKd2DENjOOG4+dMN4sFNVSG3LLvgkcyyrBB5UKZyBgEklj2GAwByfbinjjFK6xFXnNpitTUxuU0gaVZI90LAQwssbFDvEaswJXGMsORxjAPGu3U1HJU2KvWaaGnR8fz4pCPIWUsdoU5wA7eoHg449tFq2609BcfrqpvpKSOheFlMjvDC7Hy0RQRzlXU/OSxPvlbqJpGoaqjoKtIYYhLMJSS1K4mijUI47/wAsFSOx5zxgY6FSgbkdhJGIs2q4WSmhirr3C58qZWWCNFKRMiFWkyNrFQckcq49QIPBLZbqlq1/4ncjXLURQJsmaaKfbCO+E2RuA4IO0llI7ltBqczmmp5aaqmpp66sjLo+SsSx4iLOremQgcFcAkYwTxlk6Wp6GsnMkZhprrT1MSfTx4iUbSVzT5IVlZNzYHAI/LwRpFp3G15xJVHHstUVat2aFaJPSaxJIFSJ8kAReYQqkHnj1DOCBoNbJ6aG6NfILnNTpVP9G9c8yqaaXDApschyjYBwCf0OCNMF7r2paCuFes8tPtSN6e4VUMO8byoaLOBI2OdwUZBP5u2limk6fvsFXC0tBTWkwyJNSph41kDBkdTuTs2QG2nk45wdSWPKEWT6O5pcIzYayZZ47o0kM9KaPz2eWPdHIyuoyR/KyCP5i7xyeNX7SPcb34MWqqoxBPaqO4Kkkkpj+pjR1EcM0bzFR6GJWRWJ3hipyCy6zcbhAblJNVVctsmpaTNTO1PgyPKitCZBGc7JFJUTcEZAJO0avvo7qyki8LevoupKmo/hdBHFPVMYoq00ULBGkqDEQVmjXK70IbOwkAltLJ7LNZepzME9e9J3Hoe/PQ19tlt0E5aSjWeCSnDIGIKKsoDAo2UK+2B3BBIRR5rgjVh9XdQdU9L9R3i1WbqaqWhNbLKKTeKqglVzvWRIZw8ZjdWDKdp9DLzpMapkrq+or6qKnR6mRpXFPAkESsTyEjjARF+FUAD2Gme1nER38yMYFCElzlR7nQ+aqkjBw5B+2u92qYqRshgc6FwzLWP9gewPfS2+JwJmMyVTXqWmcLIxI9iTpvsnU6HCSP8A3OkyooY2wF1wiWanf05AX4OtyT5mS23rI65SAykkaCVlq27nZM598aXbPf5KaVRJISPudPFHcoa+m2tgMRregM8DiJctO1JMSo9LH/XXYSv5eN3B9tH621I4JIyBkj7aAzotO+Xzx+2tXUwzjEsjyndwBqYK1ocBHxtGcA66RJG6ggDtzr+qKFWjJiIzjWdiJo3CNuvSz/ypDg47673SRWg9GM6T2MtJMME4z7d9GormJoFil7gd9EFBE3YMEVQDvtI5z31FWaWB9u33yNEp4oWk4cZ/XX8tIJBhgCNT/JW3KThlhKy3ZuFYkjtpqikSVAwbSLHSvStuTTNZZHcBWzj41SludScriGViicYIGgt26egqVb0jP6aYvIO0FRjjXnYT6SM++m6bUXsSnuoenXpd21DpUjrHpZtkvcav262JK+EjYCcfGqt6q6QNO5dE1hqxCFmdSLRXCCWMEH1alxTwRyZbAJ0kslZQMxViMe2Nexeplx5mT99IKlTDz+IwdUeK5u8aw0wnYLkcnAP/ALaQqm6z1NVHlVjBOMD/ANdcYofRuYYI78a8SCIOCV5HbjVBpws4xvLtuXB4ZdFx9QSJUVZZgW7HsANXRL4f9PLQNTfToWxwcapfwg63goYRSTsFZDtJPf7at6p6zt60/ntVJ6RkerX536ryOXVzCgJAHiC6tnIlF9f2Wk6erpDDIAhJwo551V10rkq5GWVMMT29jp/8SuoRebo0VKQ6qxZmHydI6Ww1EwBGSx19vwRY9KvZ5xHrYVG4OhirowZKZiVHca9vc3kXFQg4741avS3S9PS0xV4BJvGfUoOh/VPh9bpqaSppIlglBJO0YB/bXQCkCH7oJlYSV9GvMaEP8quP9dckm8yTeecn31EutHU2yoMUy554b512t0L1I3bwoHyO51mYwfmT2mATgD++rA8ELDWdW9UL0xaKr+HXW5FI2uhBZqChJCzNAi+o1Dh9gfgJGZDkbty1xMRHlMjIONWz+G+tuI8QLZYOhxCnVPVdZFYLdUVCLIaCGdxHPUqp9PnYI2MQViRJX5bbpduehxG1jLT6E1EXT9rvsdg6etRtlntlPTRUEaoFdaGGKEH0jJDSEA4OcgbjncMyJq2pu9whBWRo51afygGCIAPQCw/O2ASF7Adz76XmgijuVVRQPVJTiompKmrGWYQoEBZQxJd22ooJJJZsnJXhi6ceppRV1NQqGeqVgmHGxIt4CxxkDO0A7c9yVOmdf9PEYD88wNNDHa65KGigDGmiaokEY5llLKkMePf1ybif8mffQXpla+13KW/KBTw0DukIXdudYtyDJH5i8rf9NOLxlJwPJU1DGXfJjA3RbWCg/Bdx+u0n20t9W3AWq2W2zwlJKutq9myNTysIbc3zjzXZs++xdc9qwRmXK+5oLo7rCi6mtyK1RSSVCrl0Xgn23YP/AL99I3ilZjTyFqcy0xKnEi1bQxOCORIU5AIxxgjVZ9H9Sx9FX5Gmua0vmCJZIxE03lxnAQFVORwP9ee51d3XBSutUdXFUlo5oQ4RAQZM/B9v+nGsrPtnc117jAmb6yzUtTT1VpCUjCo21iRQuXIqVyVZssWAbAG7A3Dv21RtnFwpevnuMNxNOlPIKWmYL/KHlom8MD/Twee45PGNX/eaeotF1lliKsElQoDEu0SB+znhiBz6cEDnJJwdVR9DQw9QVFE8TKI7jK8inkoWqJUKkn22gD+2rqLgVkdtXUy1LdWW+pgliNHJTykSROjYBKq21wG/ynDA/GO4wdcorYZbvDcJsP5k6Ozj+mqXIEoGeNwJPwQxHtoTZ4J4YalWdUqoEWqK9vSimKXB/TH+h0f6WLrdUiICkTxtJGx/oYkkH2xkBgfYt+up+SotGDG8djWciOdwDxVtRTTKSoYSFUyT74CnGQwJ3YB7Dg8au/8ACyJP9q7gS3mE0O4sJHPG8DJ3Eg/qOTkZ7apCjr6epvsxeFpVidvKlR9hcNyeSeQM4wftj3xob8K1HGlZe5cZaOBV3Bt2AzkjnjnA/wBNBfYTeqQ60xSWj94u0V8pbFX3vpWkeqqYoGNZQb0C1cHG/YJPQJQMlSSFY+lyFORSF7vld0v4d2S0l7mhu8lReKrz55DKEc5jicOCyAAxDy/6CWXJIydPdQU009Iqw1RQ5AZyeQp7kHHcD2PB51kLxT6pPVvWjU1hheWnSc0AaJ4wRLnbu3f5FSTIXgYbOfbWGGg1eILhilFAmCIaupUGQHhYgMlY2z7Kvqf2J798aHVnTtxvUzRiokUyKIxULlWgp9uXZcdnfkD3AI7HXe7VSx18ltoQYxSKkDF23KkXB9XfLu2CcclR99Fbo9fNTiy2lGSaU+QSxx5ef8RB/MFBdj2BAUe50HUZ1HFsCInUnWth8M5I57UhV7dCQKeDLJHEpAK4Hfnux4B9y3GrNs/UNq6+6ZhvtIKqEzR7mhniEUiZX1RsWII7+x5Gq76jslht1G9X5kSJOyJAZGG+rdOxA/wgZxn0ryTyMhRh8Qx0dXvtuxqYmmWOt8sF1Z2/o245P2HbgnnIC3r6nunmElnb4v4h3qCtrrPXVtZa6d2iq5GZ4xT+V5j+WUGxeBgekDkDJZicE6rzxhoKW4R2zr2gT/eJJxbLlLEQUqJvIXy5h7MCS6MynBKg/OrT6/tFlraf6+ltlZO9bTBshXLNGQP6vzKwYKMD75Oq56rZ6jw76hpZIpImjpUqogYCioIpEyVGBtxgrnGCO3yaxyQy9ZK3HKnMD9MTLB0uolqPNamq5KSaNjkMqMVfOPn1H7Z1E8NbDDQ9YxV9uZm+pmaJwj+l1APJ+447/HzoRQXOk/hddSpK8cgxMSq5O/fgSj5yCmSO/wC2ifRdZTSdSxLTySKk4V3RTnkAkMoHftg/t795XyxyJQuAMGXVHdYYKJvNPkyMGkWORMoSd24DAOMZHfvxzjT94T1zVnht1hNSUj0scdZAsqCPaQOC2AdykAD2Jx2IGNV759TW2uWaChSrkRgGjBBPPABPOdwUcnjOQeOdW14a9Pm2eBPUV8qWMDXCWSbyInyEWJFQAkDaT6SCBkZJ5PGi5NpbsD+INFYUqf3mdOsLwbjQpaUtsKyiaVnVpQQ8spZI4zyN7MZVZgecSjP2p3qhLJZaObqa4tVtFJd0pqiAkqKhwzF5eDlT5TJj4Cr3J1cXXzTUl0NDGBTmaOB3aGNFZN6MHcbBnJZET/kU8Y1SnWlxV7xda6775bLLXVdS0MMTLEKiGMLEATzjzFBPuCcc8Y51Ddp0716xYuM9TbqyBrNVboopWa3uVKbFAZ0QL+swwew36hWm4vbYZKDqJPIhp5HhlkmjLiFeDGHwCQnnJuz8LkaJ01htopY6d6yeOhiWCqpJd4B+jZHjk4PxsRSeDyPjTHQ2231t0uPTdJAtGVWRoKyWnZhXwvHGPpm3cEqWABGRn9SdX11/ISR30Yprd+sr7cZaqS5yRW6GKGXZWSKuyAyYRuO4IEeCfyttJ+dTIOrejrZR01dJbIDWnMk2wmKNXVQqsFzsbMgAZcZBCsD2I4G6Xaup7U1kp7ebtBTRsWngBjl9D+bG2eCiSBE+cBR76/pqzoKnnpqKWuX/AHyialni25hpjk5MaHuBKsi98gFB/SDq5cCSNCM1fU9QhbNdab6ynrqmXdTxAxSRUzbSmJF4dlZTtY+vaQDnOAO6ompqWst9rs/VE8jxUSSgJmKmlYKARKvZHPp2uv8AWvsWbMq6pQ1lnuNx6Sq6WKDyI3i8mUOu6VA4CZwVRgrj5VlUHBw2lWvbp+5We3Xq6UUk1RXy1SVUkRZUY5G+BgCCjYYMo99oPbnTiJPn8Qs9TVTUUclalRcI6eJlq2QhfpiAPWD2IBYHAByD9iRaPR/UFPeekaa21ddK1NJEsuwx7jlG9KhshkABYHByMEcaqOsRaPp5bVZb0andvJV8o1QqH0KV5KS7BkNyG2upGRpj8LZKg3WKKWnpqgmaEEOSNvAIJAwckAeoe+P0IWr2TBnq26vkTUPR8tmpbRR251hUkGarpgJDP5gUqdspcrgCNRgDGR7k6ZK56WCjo6laR0nMgdACd77EON7E8KuRhfn2yeFenlpxT0lRRxQQ2mijWSSZk9csrEBTkABiWOc8d+3chgucz1cSTGeaALJiJIAMsoYsij7krGTj23cc60gpWMz3YM5xEfxBlqDVRWyiimilq5mqpgm+V9yrwM57etjgfp9jzobbRVFvuSx0+azJRpVpzulRx5e7nABJAQfpnXG83inv1bRqZZ1qQ0kskkpKviNWDKMcqD+Y/wDkT3OjVulmq7xBR1CsizVXDoSI8U/lnEnPJCoSB2+dLW/REYasGc7da6CevStHoetliWSR19aw+YrKuDwrbCyk98cnQWn6wrLH1Lcem6+4osNvSN0Xy0dmQqxMkeSMhlT1AHIbOMZ05Wykk8txXAsaiWOpWUptYKqh+QOwChV+fUftpA62sEZuh6khcmaneKKJX27vLyxztJG0EgYU9yPvypmLjIhKOpwZLrpLVfFiinvtRRVLTipbesRaT0qVWSMtwV9QJUnaF7A51HqkN3uS2CsqZhDG7Gd5IWBWaNxgqRkbWYAnGcA5GewT7PeROyXyWm/mIH3yK3lVMbICAUYnIXaqAKRn1HAxphvFber3X/S0ELCtlpjECasI23Cs7biD6sYB7E7CBnBGlWsQoBj61BbInTz6U1izR1VZborHDHFFUtIkgaIsDCUC+l4Aw9SHOCx+w1oHw0rkqoeprPao6R4rlFVileWES086NAQYTGOV3bHUAnacj2zrOs1e0flWi3dMTVctyhhppGSELHUSpI0oZSp480BRgZAYEYAwNXf+HW8UlwgulFQeZNJWWSrSjnaTyTsmWUxxspwMrOXTPGPNDZXkaFBgT1u5izqa60s1WkdJFPFRQx+VSRz8zU8OSwp3b+oxMzIGPO0L+gW3uhkYwocY04daz2evr6ueKzXCguFTUtUVEc1XHPGjvkygYjVh/Nyw7jBI54OkiCgVazLnAz276sBIkCgZn9V0M1aoYEk++v6ktskK7hwc9sdtOltpaTyBtVTnnXiutqIfOjXg99YE7bMfoDUXlgZ4+3Kjn415RogGD/8ATRKqCwAbB34I0MMTTOdmcfpoHXrAKyFV0r8yQcfYan2a9TUxCytgDjGvbQFUwSMHUCem9W+EgZ4PvoA+4GI/011hq4OWAJGhNxiMhJUZBOlymuL07iOQledMNFcYqgBHwfudMZczMGeIhJEAF5AH9tSEqW5HBGpKxI3KkY++vLUWAWXnOh6meziRpoIp1L5AbtobUJLD2XgfGik0bJhQce+uOCQfMOdFubmBGmdW5yDqdQXARgrKwx7a7S0kU3ZOfnUCot8qAuFIx8aXHA5EPJPDPgZGfjTBZYxn27arH+ITUsgJYjB55009N9RxzSBJH2n9daBgwTLMRVMQ/T21HljAbjOdc6OujkjBBydd8qRvIz+uqgmsiJJ3ifyyokJUjn50sX+GOqBBXOdGKqf1Y7DQquKhiWI540LOSMTANxAuXTIqGZgnf40Fn6OcDO37jjVgyPGGZccZ1+jy3XBUaWLPzCIlB+XlMDOolTCNmcf20QjBZRx21HrCiRkE66Iwyz5zBVtQJ/E6ugl3wTFW+RqbD1XeawiF619vvgnQSucFjjGpvTVFLV1Sqqkg41y+VXWMuR4nYRsJkwzDHM6+ZgsTzn50XtlFUtIjeWQQdMli6TaqkjWRGGftp+g6AaAxSrTs8YHsMf664dnraUt0kr2Bp+dH2yW6COCEqZG4KE4x+ueNWDF4RUtVTyPfriAm3Ihp2GT+rnt+w/fSTdrr/szCv0tLtbHxhRpSvHiNd7lD9Ncrm5gPAiRtqD9QO/7663E9R94A+Ynf1Fjxb6Z6epK+WjtEkUyoxGY23gfq3udVE0dVQTmHeyg9iPcas26VcEylty7e/B0l3RI5pDgfp9tW+5ky6kkjcEDJU8k59861v+BKyJ/9VrL1ZFaYhPtkkE9S6N9PBTxthUOAEM8qsoGARHA5ZiHBbJ0VNJJmRvRDGwWSZgSqZ7fqeOB3Otvf+H6l5kjvnVVYZKa22ulmoKCUBd5eo2GRVTH8ySXy0XeT6QiEEKnK7z8NS2gZaXN05DF9Ua6obNQlXJUlGfInmCKuVJ/px6VHcAuf0cek6OGuZr1LKsMMMSSwU6vlVVBtVsd2G4kj9Bj8xyr9L2O4XKoSlrkeV4cwTpCm0GRm3tDu74XeUOMHvu74DP1peaacPYLTULBaoF8qsnhTDzwRocxoVGcM4YD7hcYA060iusZhVgu+BIPUXVNps1OhjqHkllkVn8sEnZE6LIwxnO6QiMY7kv7DOkeor66trpbvIqEJDJFSMM7UCkb2X+2AM9wfvqTS2aru1bLU3SMRxuKeOFASUSRmbbGo9kVXB+5GT86n2ikoq6zUaNGkcMc8tPULJnKNEzlifjKu3PvxrnhzYcCWFRX5iVTdIyz9Q0ddUV9THUrWq+5H5wclmPIwc4AOew7c607GVqOmrdT19bLMXHlqxfY0mAO7A5zjP/fWa+pbq0NZJVUNKwRa0MFckDyYIQx4Hwzpn/MDq5eibtVXbpqghq0dpoSkLscqmfLXcC2Se+e/v/fW8leteZ6h+z4MR/Fq2JSxVKwKpl5YSqZsop/Kuc+kY5HJzj9tUveqSKXqa8JTyjzp5Jq2mbgBUkkhmjI+QDI2P1+NXx4jwVdQm2NUqsiZFgkiCb2z6cAFmA3L3Jx84zql+p7bVSXu1S0u3fDbKSJwoA8xHlCqR8AbF/bQcVsNgzeSuVzDXT1W6XG2GsZliqoqhHUgflYCJi32BVSTns320TtUs8PUUFDvkklnT6dyG9ceHw37gMAP1XQKiqFr7nQOKj0zGRAVHPMSMwH2yrD99f0N9qqLqKkuMAjlkmwwfg4cLGh/5iyLj741Te3UZERSvYy0eno6mnu01L50bTnezKeXwDhS2/AYYI9h7fprSXgRU/wWxGskqnWovFwhgVIhsKJAGLlge4LOR7Z4/TWROhOtK63JHeruiSPd7vUyEumBHRxx5iJxxz5B5x/XnWjvAi5yQxWuw3ao+qlpYRV/UU+QHd3Z3Tax7BTGRj251zbXxeCTuXKmaiANS/8AxK6vks3RzzRSR/UVLeWkiEFY1GdztnttHOscTXKChuUVXRIds6tFQoOGYFny7ls8sqvITwBknux1Zn4tuv2oKa3dM28Q7a1o4nmclEy7DKg5yOD5h47KO/GqOqbt9Z1PHWUFXID5qW+iQn/hROXM0gUnH/DRhjnaHxnLDVZfZJk9aYURosdb9beHQq85pGWpYtnZLUumUUfIAKOSf8SD2OmOJZZrdVVbbXG94EB4EvqO7PwGK5Y/BI/qGg/TtJUUqVFTOsfm/Uh2YNkJJlm5J5JXy15/btor1HcUtNnpbfSQkrDTKpaQkcHCjtzk5U5+SPjXlYDAnnXPiI3U9vpaWmW73mpNTVVA3emIs8yrjIij7LHv298A4Redx1UvVaw0ckUmYDIgLRxGYPgkHYC3+HJLM3Y8n3GnfxBr7lWWaqkEhSZpkp0lZNqO4OECKMttRQ5C9gOSCW0k9TWmGOwiojplNTIDHB5jA4TIVDJnuTuMjfGdvzp5sGMRIQ5lzdJVcdb0NbVraOWKaJWghMqM0joUGW2MeScE44UAjPbQS+W2FI7nRVawTRVSCGZiwGIZAwlkYH1HgqRzj4HYFd8M+oHWxNZJq/YtI8aELGylmdQ2WIYezjOOc/30y9WQXKeC4Gmq0MkVOQQ8QLAsoC8DljkceonGMn0ka5oPWzEuIymZnNYntUk1kqI2Wpp2W3yKBtIkU9xn2JIb9Ton4eXCFOoKyqLAxpFtQlASg25ct8KdoH66GddzzW7qDqWOZmkraeSGoMhGP5ggiY/vuDaM+HFdQUd6rL3VUSv9PS1NU2WACR+VuBweG44wffOqu2FDRHXJxLq6auXT9fSSW01NNVGX87LAjuEYAqmEIxgtwGGATweSNaqobbWyfh4ttDSxuklbTzv+XBCvM+1tvPJAB/fWS7NWwWzp+lvdFAz1N5joo4YBCvmNJUlNhJ5xkHIGONpHbWz7vV0ltWPw3ucQ8q32amSGfcADGV2EMPbBVyOAMe/fUzt2D5/lGgdCuJivq61ieqWmjmkgqBTRFml9R9DMw3NjALOATzxnJ1R16R6261lLdYQ1K0tPWssuTtWRmZxwfdQSSfn9Na/8XuktxudqpCgdYHjptq4AAQIoODlvzDHySM8ayX1LQy0qXSOoqm+oMEkU0UUm6Sd/PjVED/DBVXPsMjjBOoeAcsR+J0eYPiDF2prLTW05s1VDPdpYGpY8YCRrEX3PAO287HcY9u/cDQqK/Xie009TW14ijoayKj8skhfJkjdiARyOAGzwBtwPbJzq+QvTQz10yU9RKxeloYE3lFIZGkJHAY7ZmDnsDu+BqFV11nQ08tFSUtPBX3GmhaFnKpHnbKWUdsLGsCZI7ynj213kE5LHGoCq5KsVNTQ0UsdPR0yNBHVGPexXz4ZfNcgAKy4jLY/qBGlqupbnLTLWTGCognMSVFPAoBWELG82zPCsssbEMO5Zj2JBfT1XUi9/Vz2r+L2yMySUqNgR+YswXbIT2DmF1OTgnnHvpHq+p75ckntfUVspozNSyCmdF2yROcBixHferlcjsQTjVQT6kxf8w/Mnhv0d9TarpdLgI6kJHS1Ai3OlM25Fm3JwWUqMKe4ZweRwEtkkIvc3RjyQ+RWybaG543QFVYmLI53IQ+0gjhT8JwAvzW263erSuqXpVpaWKe5Uyr6BIlTHHIin/EB5rNj+on31Lt9rguFxutP9Q8KUtOognmJUqSSyPuBxhlKspPGTg/ZoGdRDHG4xTrTUUE1gqKAVdVSJJPA8gZxFvIPklwMqyOMcEhhuIyDjRTofrCsn6loHegakhnoo41SVvNjjxkkBtu7IzwpGMbhn2AOqq6Wz1MFRTS0U9wjoo3l2zSU0k5KnngqQTg4B3YZR8kaE+C1Ld+uvFS32uprZ6hKqoMs6hAjrAp3sAVIwxAwSR2Y+/B0Ak9D9wCcfIfU23chWJb6Fqmvj3NHDKyhBMSU4Yn2QEgepf+uMQUulW3SdPTVFZ/vlLVimllMhXy3UAM5YdgI2A7HuT8aOdUwxpTxQ1MSBh5gkTJ2hYySqsQSQCS2Mfc8gHVc9R9Qfw241NsWFZHmlEsZmwNy4VST7ZwUz35GqOVRhcyfjXZfc/aG4zVV8OyTbUxR+iGnHmHEuD6R7YUqp/wCb5GmWFo4LfNEa5oEgqXntzRtuaRGeRXLnuNu3aMnnv7jVXW650UNxqrnLlqyhiRYj5jIgSNwzO2Byx/l4x3zpwpr3RPTG4O0GxYFqBCvG1UEbhW+Mvgc8n1Z9tcf2yJ1hYDLOgRKhpvMnaaOV0EbueSTEu7vzweCD78e2uHVFlobs9RCkUafXxlHkMSnbEvG8nkrgcAD50mVPWcFFb6irhdSY51znJyhG5sfqSp/TR2C4V8XhxFeq76cT3xDVPDUMwBoEOAqgcgt+YdycD50fFQu+D4i+Q4VcjzKcqLfZ7RcJ6GKmmlpJahFMk022SMeZ6SmcllZgoYYIAJ7HRK5yrVw0tSJ80oUmogKskiYkQlCy5Kt68KTkNtB47D9q7dXRCkkFI9f9Q85qFlklQCV2L+pc8MWMgwAvf+oZ0y2eFJ5Fs1JbnVamlLxtDEJIymxkdAkhJcqSA4TJOA45BGt5HUQqO0iWdKyjo0t1DdZaQtRvHG0zZUyxvI8L7gTtLYbJU98HGF4uTwTr6am6ttNwaT+FJPUtSlnUmMpvhWRO3GdzEHshAP61Ta7e9moJKO9U8kiMhhro6nDNTetirq2BvQlsBxn0OM4IbLx0bW3WzWG6Vtqh+vmsE6VCpFEsm+mkBiwFJwdgaMsD3QbtSoe4IjrB13MveJsCWvrC6UQg+jraavqaavt+VIpplkPqRlJUxyKVdQCdhLIeApKwiMpDpliecnTz+LiW52fxsvLVsn1EUzmejq3JMk9JKqSpHIeAxjEuFI/odBnCDFTUHUabzuYYx76dVYPuRuhBjhSXGSl5dtyntjg6Kw3CKfgPwe4OlaKpWeI7WDbu2PbXemk8thhjxqpXE8RgQndsIPSAVPY6h0XmISSOD7a6NUCWVEJBB40z22wxvAJCRgjjWEe4dTwBxFipiaZS6jjGlyqrGhZlORg6b7rG9E7xxkbD8aTrnGJ3I2e/fU7V4Oo2sdjucvqfq9pVju+2u8dxng2rsAPsdDtn0hBQn5z86I0MC12FP5m0xVPibaqqMiMtru5kRRJIB7aMx1iEY3Z59vbS6tAlFEPMYD4Hxr8W4LGQsb/bTWHQSJT2MP1NRHIcKDnsABydQGlVjuU6Hy1EshBUnv8A214jdy4APbGfnSe2TG4xDcDqSMrjGpi+U4IYDH6aH00u5QGUA6/TK6EruyB8697Zm98QRf7UsgLQDB9saWoJ5rbPubK4OnGaYsvPtoRW0CVZLH8x99e6Ymhof6e6rBVY5m/fTxR3JZogQcgjOqeippaFssvAPB0y2q9lVALldFsCCcGOtRUKzYYjQ2uqFZCqn99Cpr1k53Z1xFwEylVPfvpTE4ngJ/Sbg5cH9jrrGxVcrrmqjvj/AN9dXKhMdjpQBjAQBKIirY0yMg6G3KsyGwdBxcjnv314mllqD3wNdAMcYnLWgdszg8rTThFJyxxxq4/DXpeKRopZUAXjJOqgSaGlYOgywOTjudXH4bdU0rU6JLIqnGMffXJ9V7in4w7l+OBNG9NdI2v6VZxEpIHOPbR+uaio6MwhFGBkarO1eIEVvg8oVAHzk6DXzxZtqsyzVQOAeQ2vzS/0nlcq7OyJEtTEyB4m33+XLFGiFRnWeLt1BNJM+6XABPbTd111/Ddd8NACQc+o9tVTW5Lkk8nvr9G9F4LcSgBxuW1063DMfUMjL5TPn4Odfq1hkyc99LcQ5GilGkkrpDEjSO5CqqjJJPGux1HmPChdCSpXXJdsAKCST7a35+Dqvj6G6TuFDcqqKC4UgihgWSMSAXGbAKe+ZIqeQIe3rlkxxBqkPCX8P1t6ft8XiP43XC12W1RSxTUlHPDNUVcjAM4DRYWIDgHEhOcAYPI1YZ8WYPFDqbp/oDo23SUlJC80y1suIQYuS8kh3ZPAcucZVFCAjLEYahcQplCg0qXP3NJXfquClstRNanjpbbEwZaiHJkkmd9rBWH5yW445LFgMcaFdPLVXaRbdNSrHA1WUqGD7vLZFX+QuODsA2kjgsCe3Oh1deLdUdLWl7eaeOy2+Slko22eWTDDE2yd14GXbMiqMALs7knMzpySj6Ot0MtrhMoliWnoYp2ZiheJN80n+dnzke7MBwoOh5OGOPxG8fKjMj+I9fPK9Raen6nz56SaJp3jlBWMGENv4+G8oAA/0nRM04o6RKhnQTTkTMDgZeQsHGPjevH2bSJ18bn03YLu9JEoq5aNbjUHHIkEv8uIjueXLkD/ACj2Oglw6v6lrrNDUz0C0tVL9XIhXJeMK8VRtYHgEEycD2IGPbUSZDHMoswQMQ31vd6Y3mex0rgRx2qeQyk4DMZysgHt/SDn9NH+nrrJa/qqWa5NCtaRVqEblm2R5I9wCd/bnJxkd9VJfpeoo7h/GYdlVBFSCCqpvLDebTzIzo49w2GcA87tpB76G0NRern0rb46Sc1DW/6lYpIMqWj4KBcnIxkjB5GBqsr3rIkyno4Mu2i68pKml8ispcJX3VrfTP8Alb6cnbtGOQeMD2AB+c6RxI7Vt1LBWrKOnaBWI4AkkeSNv0VW/wD0dIHS3ibTWWpoLbdoGkNNehK7jjDyIVT0+w81mUn2Jzxoz03c/wDaKhvtfRSvuFVU0wQqRhIpXVM5+FkAPt6dc9Eeuz5ePzLXZXXXmH7NNJiGQNufdNTqoIYgmCPcCP1J/tpNqeoq211ktXFl2oZEMK7gAZmkwpB+wdT++m0yi1WKgr4h/vFW1bVohXDJG3pQfqTsP3/6Vj1RQTS0skayybRUBW8pSd4WJHIz7EbRqxyDjMmrBGY4VniBFT9AUdE1K6TpQyUNS7HG1QxgUqrY3Mz4QAdyp1p/wcvE1EqyzzsKqjgpo5WA3MjRRKhYD5AH/TWK7TQLcLvaaC4I1RHAIqx3bIJeKVpAnPGGkbOf8uOM60n0H1ClFcIbjLOgjqUaOaUN2UyBN49iwZkBB9j7a5HLVBYoX+c6XFLFCW/lLT/ElHHXU9v6no6iNia1IaJXXeod2yZMDuzHceewQE+2qU6V3r03W3X6p3rkgnlM8+d0MskqRozHvhYxnA7lxjvnWgPEawp1n4XU9Eu+No7kJZfJBBURq5kwe6ltiLx2wRrN/SlxpES52uenaN6mqpBKi5xGwkkd8Ak8M7sP/wCV9tUIxwcxZA1iXfb2lqrXAaKWSOnrrmI3LHnyg+XJ+5AI/VtGK6B6mvklqG8kKqyEM2QGblD99gzgf5dLHTtY1JaqC3zkIxqI5EQNndFgOqn4Oxo8/vqX1rd6iqM9Nbply9QkLNnG0mnj2Z/eVif/AC6Ev9mZ1+hE/qaohuMFPWS5ihH82kjPf1tsTj3JG4k/Y6rZrrSdUXKSkpXjNLQtLE6BsBI03FQPnIJ9+2dWncRSV0FRJTQqstKYvJQjI9B27R8EJEyj7t99Z76MtlLZ+pbj5EyPGZpKhRkqXUq/pIJ943bB+QPnTDcGBgisgxot0BslTXzTzsq08kPnSpH5r+bJGrZVf1IGcHsdM1k6tdP4lOldPLVV0NvaZ51Bkhpo2kTfxxgb9oA4Un3PJVf4qlXTTwo/mxXSnRoZ1IGJYoggGfvsRhnuHb3B0tXK83Oy0EE1HcI1NVI0VDO4DKFZWLwt7bcoh+xP20oA3fEeYRYV7+pH66njqerbxcUcCndhnLZwAqhlJ98EbdebRU/QWG5W+oqlWS40AQLtG6RndUOM9gsbbuDqM99o+q6qru7yQRyXCoWoam3D0tKBLj7RgF2P3499COrZ4pEMFBUxrVwpMEkk5O942AX4DE4Y/BwNVVrsVvJXbRdZpvwcpxfvHDpDppLkKiFrgzXAxgFc0UPnRw57DGV5x22/OrX/ABAdfpbPF2j+hqcTRRwrJTGdBJPFNKZJ4TuAaPmBASMho1mG5GyTRX4Hy8vWFJ1TcGlVxUVkMYkGAWqDCGkye/phK/ox+2uf4/enOsKD8Qdkq6SMz0PWFLHT09upowaiedHPriAZSrbjHIJlYNC6gsMbSwigdjVn72Z5rTgWYmrOuFpbzQxdbW58xXGm8zc5wm5QCHwMYHIbb8YzrEXipVTx36lqrI8MaTZrJjIu8wwx5MYIIx+Y+aw4GSi9tbQsdqFH4P0FqavqK/6Cmb6qpmkDSytKWkfJAAyxbAwMBdvA1j3xEpI6+9VNNUzwvDVMPMjjbb5kYw/lquOxbac+2wfB1z+PWE5BInUewtQAZWtbTU9XJFabddd9VWVMs0rVXqc0sRT1SnPeRyvB7lz2C6D3M9LVD3ea504llp7bJJINm5pi0wiCqB+TKqGBBGDKB/TrxSl54aKaOpPnyzwwzYizHHE824Dccljgof0Un25E9VdLSwXx6uCZJxXL9bGPqcAxJIEJbP5AMhgPfn319DWNTi2N8p66uvkdzaoFlpJLdZ4pY0o3RxipmAR5HIHYD1KAAB6xjvoFcq9Ku71ty6pqWp7fSwwRLKhAljiMxVTjkhm3O5zn0n30x9I2iSnS3XK4K9Tb6MCV4WVSmQvmNDn+ksJ49vyuCO2udT1JYjcfJo+n6m/fWXSmNdIyl0qAIzJKYlxwArOqj7KABjVi14G5I1mTqK0HWthW6TLHQSzVktfOJmfkVcbTCoweMDdtI2/JDDGv630N0vtqujWijqJaatlSKBGYorRt+ZkJ5/L5eB2Owjg93K09CXPqSrttDYuhbhTVk70wgY07BUZVXeGJGNoKKQRzgsDj3sn/APVRm6dp0s/WviVbqS0vAkjUFPJVLX0xUALsZUKrhQAQ4I9IPfJ0S1kRdlgMzxaLFJXyU8V5voiuEcSxxQViZRkQnIDjkqQTjIyMLwcavP8ACxYbdD1de62geOZrJQ75KhZGeF5p8GMKc8gRhm4z+buNdrZ+GTprru90/S1mvXUc1HTP5gnnRJ5Vjxz5cqAB1LAMMjKn3PbVreGfhDL4M/7Q9K26ojuVZPUxXAx7ljlmgKLH29tu1iVX/GcfGnUgGwZiLmIQ4jV1bU2+GREaRZSIUEsyL5bU/mKfKVhyMHYDlv8AEDnjVDeJdd/v1AWq9inzI3mjbb58LKd/p/pyVX7Bh99WV1feqeOinLSHhFfz1UHMiM4xheRjkfIz+2sseJXWVFFWS0qyVBglkMh9YYRSH3AOOD7gD3/fT+a4AAkvDBJzH+x3GSuucxX6iWWWVaVQQFjyYmZuD3A35/5dNlVdT5tTbUeMRCoFHEJItp2hWBYn2J2A4+/66proq7yRosklVvnKtUxOPlhgg/GSGOf/AC6f75d55a2CvlkV45BDAd8eDu2M5Y/ckMT9v11CacidAW4Ma+g7fVeI1+oen6er8mlnmM1zm3hfKokB85/7YQf5nXtq3eqr+1ZKI6G1xrHQR/T0tLTTJjyVYI+0kgZCxBCCCDk/roN4TWSl6J8PHuNXDFFderx9SXljKulMpLQLnBHqZTKVOAQUHcaiXC7V7088cU8RWSINRwCEQxAgDcEZjn+Z3YZJ3HHYgaIovGrJ+zBDm+zH0JHU1VJL/GrfcKURF3LrGDTmKQMTnAOQCz8rwv5hkHAJqw0NLDR7paY0aQKJpoY6hphuIyzBjgIGbn2ODz86X4o446OsvnUcwtopEL1Eu4b0C52sJTGMjbwDnOCBxqqa7rS6+KN2lihq3oLDTuBQwocoHY4EswGC7HIPOVAHv3183yGe9iqTvUKtY7NLgTrK1Xe+/SUt0acq2Yo5WBcZIyhIOCp5AOff7Eas/wAEJau91rWaILBd69qmnglnbaXlhWQrE+OQAQ6kfBYL7ax3Q2ertdzS6WuCGCqt1VFSz02Cqh1kbzoxjsvBZfnOQeMa1JQVtXHbrJ1rYI5Z7nS3KJ5pY1G+QJNl3K/1P5Wd20YOFb+lgD49LIuCYN9iuciUf+Mm21H+2tpqjAYaS+WC1XFIHwzU88VP9LNGG91zGCCO4C9sY1nKSglphvXJA+Nbz/GL0oeteiukeq7LBKbnE1XAaFKgskqzP9V5ccQBQ1KkzHapDOAQMlVTWJhH5igrhlPY59tOC4krHcHUV4lpSFdjjTBb7olQMb+T20CrbWDlk4z8a82+Y0jjf2B5zoxkRceKakmLBxzznT1YrgYqXyKngEcZ0mWS6U06ou5c9u+jk9zijAjwOex1VScHMztjU/r7QfVPiNjjS3WW1qfKMCTjvproahK5tgcZA7fOuF1pCqlXX++msm8iMDYErmuWQMQR6c6nWpmpP5jAEffUutolVzuPGhlUZIFAjOV99LfQyIst21Jdz6mCoynaSO/zoLS3SeolySQM8aiSUr1E2/JIB5GiUFEmA4A41Ozs3meFYHiM1slEsYD4yff41LenVQXX5/voHR1HkELyMaMpVK6YJ9taJ4zm9UYgFZhx311jrFlABYZxodXtucFTnPfUVakxEk+3B09WxEsIYc5J2HOo7ssbZzj5/XUCOuZXOP6vn516qKkFMqRu1p2J5Tid6mcFNvB1ASpKMRnBB7fOuRklc+klv0Oo1THMDvIx7aAZMNoXjnml47jRelBjQErpYtlx+nkCy4wTpha7UojBDDJHzpgrB3A7EQjFMSRwBjX9LUKT3/vobHXq+Sjg/pqNNXFZO+iFYmFzM3vthIG71a/fOlbucDXUU+5txGuopsLwM40E9IrZIwNTLXcau3yb4HYA9x7a5GIga/kGPb+2sIDDBnvMY5OrrjNF5fmMM/ftoVLVTzvvlkZifknUYduP317UEnntoErVP0iZgDxP6VyRjUCoi3g8aIFAT99e0pd/GNNEzOIIho+cnV4eB/TdH03RSeKXWBijttvlH8OpZoMmqqByX3E/lUYI4bJ7YwcpHRXRdV1Z1FRWCkhLvVSBWyMhEz6nIHJwOcDvpp8Zutoal4embRMhtlpC01LFAMQAqoUjbjBYEckcZJxnvp9VQsPy8CYbCmx5kDxJ8Z+qer7lWJ/Hp5KAODEZUXcEUnaw49AyzYVSO/vgadvCinntnTtVWdTy3SvruoKZXqbdSSsK02NBnY8v/wDSR1DKAT+doYztCiTeaHs1PV19zjpbbB9VW7zLtkTdEm3+tx2bHsCNucZznGt9WLomg8OOgbDHZ7DNBJfAK+uuNzz9XXVD+tDUv+UbVKERD0rkAsSGYo5V4rIVZXx6muyWhfoO3XHquwy27qaCGnWerQSITmGCniXPlqo/p4YBCSWKnJ41bNsijp7VS9W9a0gpbjWPLcaa1MFZ6WB2YQwsucCQKV3cZDEjuvEroG0WywdMVFwlp3qI6WJgscgB+oJYvvO4jO8t2zyqrngnQWslul0a4117pKSpudZGKhYJXMYpaf8AKp3Ennaf+JgEBjjlhgSMJn7nlOWx9CV31zXVF0gjWHp68VZjhd5JKeDy2jjL+YWZWPrz+mcAAdtVTB4l1lXda1sGno3uPmUCTwurQmUyKVZCM7SNvfvg5PbTV4l9N3e410+ypq5kiYGrRX8imWRpVLRr/jC7AqnHBUknA5AdN2+6VlPJR3yWpenqJUj8wOFniYKNoBOBtOQSOxB/XUDIQdSpWDRhS40UbQCmbCU8ZpBvcqRTs24RN7/y2IKn8y4zyNSLfCKeoknkpEaKXLP5SiORCT6htHpbOMj7jj40IufTN3tFKJpKlZaXyvRMELRyAE8OjcggcEdxt4ODr+t9fUOUpwUjq0UAZffFKCOxJ9j3Vu4IAzxqnYXBiBgmCOv+iKUVsVTbop1gr6esSrdSsqruV3WTBGUzIUz+oK4ORph8LunXtvS9NHWR70uAra30jPkmo3M0RPtlPLbn35Gjdt6jmq1SmnaUvGxBhYkPwBvDYI3rgA4/MBggnUej656N6a6jhoaqWtpEmcR1FPUQO0DxHIba5GCQCSrDGRkEHvqMlgOp8SvCk9hAtLcnuVez1LNHI8bNEm30wRMwREAPuf8A/Un30MvdXTUcSSM+AnmyRxcbmkmdURT9yqrx+uoF1n/hfUtwpo6tGk+pLbxINkUKjCEe49G3nv6j86HSpJW3mKqkUpFA2+FWXBLLHhTj2/p79udef56E8nx8yZDfqU1FAYaGKkM1ypYo12mSQKkSxszt3KvNI7Yx7H4019D9TxioqbRWRtHCszurOASscoyQQTkEZIzyDtweSNCbTYUobclxnokkrJXjFLGw4jVAipk/8zN+pPxqXT3rZeaJJJ4/q3QOtQ8QaJxgYhlGMgMBkMDnIORkqNStVg4MoWz7E3pJ1D0haPDOyyV0sVSa6mdxJAweMyGNdrF1IO4kfIYYAOe+sd3qWmp624yQRRx1VPKiTCKPLISjSAtnGCIZZG45wV4znTT1f4ndc1EU1vunTws4Ii8ipgXbAJNgPmb4tyMsgBIk2AknsrZOqsprq9T1EvTtdQ0slPcqaWarqFn8x/rpGVVmywGNsJPpA4DYPIGTALNnEH9K+ZoaQLVXD6zCRrQxOUK93DQAI37lc/sNKvX9TUW7qWnajZ9gkpZpirbd+UYLx78IRj3z9hrp0/dIAt8pa5WllliLRMj7j5ZjKqy8YA2jIzzjX9fP94kmjqo2ZJqCHOD6xtK5OfYjJ/TjPfRqmoDPg5EWK3rOst1fVwOyVKTATYxj8rEF1Y/OBkex3Z9jpGNVQW28z1UNLvp9x3eUf5sRP5d6dmxwQc89ucjRUPUC9vS1jrM1PUkyf0swZQNy/wCEng4HBz8jS11HV0FvuaUNLUbnDBVZV2sqknvxyp4Yexwy8EY0spjUIPmT7ZY5xLKlC8GyQ+dCsch8sqTnAU+pCG5HAIyR3415+hpa+efp+p+koDU1QmdJYtxWUIQCOQCMgHaMBvcjA0Njtt2ZhNJSCaEuzo6qdysOCyEc/BK9yCeDjOuUl6qpbxB63rRQx/UygsOYMbfMPG5SpPDqecAMMdsUHM1iMbibNRTdOXO4W2mokgliEcjT7PWE2jGQR85KDscqeQORkEji4RWhat44ww+qcrvZpMl9uecngg/due2pt7v9uFzuFLRB2ZEWWSZ2wXl25BJ+EGO3Y8DGpNottNb7KL1WsFMYFRJlcbVzwoz7kFR+p1egztpCxxoS5Pw7dTydKXe2UsgaNH/lETNvCTJKc7iRyCHXHxkD21s78TNF/HPDu1dRC3pKIqYQmqjXNTTNIdjJEuCC7qQoAKrIu+NzgqD88eh6+qrLitXVMkMy1I2BmO1BKScN/wCY929iqn21v2xdV0/jJ4S1nTFulp0uz24GmhqfL2yO6so4b0h1cY5Awyg57a89ZA7TA+SFi94GX6o6j8Or1IZ1nUTS+TODnzVBWMzL7lS4cK2AP5RxuGGOT+uaxo5aialffO1RJSxxNGWKQoAoAwOM71BwPnnWj/w/K1roup7CYh9NbKYxTLvUkuuI1XahIA9MmMn3YjudZr69qqSk6mvc7QIEir41LBhtiUNhmVf8gYkn/EB8ag6f+RrxOijf6O5U1UkdNbaesatgW62wSw0hE2xPKAcbmRTndtjfB/QfGoFvhSpt0nTzM0s8lremhkhUrKlUyhlGXJIBcJ88h9SYLHNf6qhgtFBPdbnTJDEI6WmMrTKGYA4UZOCvLdgCT2zrS/hJ4a0nRFHLdOt+i6eO5xUDPtljjkm5B9OU9Rz74ZVAQZJ13uONTj3ncS+mvw7de9S9L/xIXOC0UlRUJVm3y07x1LRpCsQfaSPLBVFKll5OOOAdW74TWDp7ozoOa0WWxUJaKFlkuFTXiarlYZyEO0Nj4wV78am+F95uk811grqqkpKKsdpGR5ZOAVysSQopBfHJ/NgADGptFY7b0t0xcainoqGwLWJK8t9qaQUxTcCBumm3Sc4AVIxk++BqvJ8mSkfUF+DlJ0xajdbrFL1HBdTIQYaOAOoJOceZIZGHfJww5136TvUlL1vdbv1DfZ6yslAjpqYxq1SuSDhiN2TjAxuXn2GjXhFUJ/s8wsvQDXKhowyzXeTyqcVgQcFYnGDx7sScEZxod1f1D1bPY6np+xWQ2QzO7uILjGVmBwdrx0iIdpXGAXGPk+4Z+4WNz+6EvfU3UvXV6utxmo6SxwReUlO7NSzhtxw28Y2Nz2YMCRpau/h30Zcuuazq6t6pqrc9LUCop5DUM6SKhBdPNXKBs84CjgnOew7+X1JX2VKFOo7RZRNtiqIoRtEhAyAFjODk4JDev7659XxXepsdv6dt4rax5JQK8wxK9LGQQQ/mc7S3wwz8EaAWEH8zfbEl+KFws1PbQaXoWS9Wq87lappxDFK0q8MvmoRucr6lYAZwM8jWU/ED8JHVLQy9U9J1VRcEkYPFQXEJFVPExG0oR6ZGU8EEKee2tdx9J2W22SgtCwXSoqYys709GhkAkXkMgTIxxyB6h8cHKV/GYazrCGr6pqaqiranC2yA74ZIiuUYyLKqA7gCDxyCRnjTO4f9XmK6dP0zLtmsdX07Vy2/qS1zwSUcm+oiliZJAOcJg4ILbM/GrY8JukYOrboV6lV/4DYf59wD+suxIWOmDd/VxlvZUb5GrmuvTNh68uVbaes7P5FBBTqzVyVbGrgk59MQXzDsOAwVxqH0v0302vSs1BQBvo3qpRNOZlglklAAVyhYsmVCkDbtPPbOr0esDMhauzMF9R9VVtxq3rKihilV2ani/mbNy5G2DHZQMDDKQR2AIOgU06msMtfIsoiK+TDJCrbGKgEek59PbLc++dcqzw06mhkqjZp7VcqYSJLIXPlTRurkhpEkICkEnJyVIIwcaHdWeHXjLc2azWGx0ShggqJZbhHHujbAIQk88ZyBkkDjXO5qWW6QeZbw2SvbnGIk9a9V1XXV1h6Ls9Q38EpZmWqaMY+olEZJz/kX49zknQ3w9kWzT2esrpEamuctdHMgGFkolCtuz7OhwVP2JGex0Z4S/hIgs9tjfqW/qJqtnYpRMI2jj8vacM4yeMnK6caHw66H6O/lWu32ySS1jZFPGm9sMMkmSRWwSeTgHnS6PTSBgnEos5wznGZT1otVDWdeXmh/h000EluCGpgjZlmO5pFU99pSMggjPDlT+UYZLVVVnTKWy1UtyqI6iColfZGwEqSPUBI5E9gymVpAe48sdxq04PEK60VfBSUlxhpVMKMD5XmFWQ+p8qOxG0cc9zjvrRcNn8K/ETpG3w9XWKyX5kp0hNfRsBUxS7SCVlQK42ksffBHbW8niikBsz1HINpIxMB+Kgut28I+tZpFqDVWS42W818kCFYoaxppY2qoMH+V5geneVV4DsWXtxmMTu7NNM7tK7FnZjkuxOSSfknvr6T+Ln4dOpenOh7+3hpVR9QWCa3MiLJGrVflBiDTTp+Vv5TYSYD80cYYL31827vbZLXO1NtkVVOAJF2lSOCp/T59xg65u+51K2AABE4z1cZXacZ7caHSoPzA9+df0jMGyw1+JIrnbjH20QiZJtVRJHODvIH66Z3qzLDuydwHsdKPMLEgakQ3c/kUEEcaYJ7MdunLpGkmGfDA+5502V9TS1NGGUjfjVPxV7LN5sZAJ740wUN6eZdoY9tVJZgYMHtCcyrLIyZ1GqrcoTc4BHt86l06GRfOYc65Vc8jrsYduR8aQX/MHH4gkW8K5KDIPc6jz000L7kGmO20wlYbuPtqVV2mOQHbwe+vdM7hd+sVI5VXhyVOuy1DxkkNlfnOdSK2i8kbSp/tqAiMj5GcZ5B0PQib3zJYn39+2v7YCMZ4OvxvLMeUJB9xri0jI41uJmZ+vTlG8xTxjn764eaNxHfHzqdG8UqE51Bnhw3mJxzohmZjMJ26lWTk8fbRZ7bBLCVKgMdAaOrK9mIxj7aLQ17FNq+rVVajERYSDAN0s0tM26LnQWZqpGICnj+2nt0E358E+2oNTRQjLFFOvMoPieVziLlvmqd2TIR9tFtwkG4Mc++o7wJuwo26mUsCthCSdYMDQm+dyjYlz7a7+XgHXKLj27++pPGBx30iEZEkUAa4E88H21KmAPGo/lkknGvT31PKht2QNSIxk+rX4qgDtr3GMkE60CYTO0cQOp1NTAn2xrlTxO7AKNP3h70hTXaaovl/RhYrPskrQrBWnds+XTqTwC+DkngKGOiUFjgQISIm8NuhPq3j8i99UQ/ykdSskVAytyDnK7+M8Z24/wAWqRuNXLVStJnccbd3/wA9/tpu8ResanrG/VV2nkANQcIiniOMcBQfZQAOdCul7KJ5HudTj6ekcrDgemSQdyM+y5z+pGrXIpToIKYdu/1Hvwa6f8u6QU7OtTdJmRqOhXODUtkiRwoywghSaXGT6xGByQDunp2stvXPSEolFbLQ0lbUSUkMkY9CUrRxsrA5ZeXKgMSQkTEkazV4HdGR23rSjSru8NvvMlFUVVZVGo2r03a/KL1NXLt5esaASCOAf8MNvkwxULo38LtfX+KEPXVfZrVDZ7S8sFBTehTNJTNIfKiiJzlgkZ3lRwXX3BI+d5uS3YfWP7zs8IgDB+48Vd7uUtkojT00NG1xaZ6mOYDfSBgSu454LfmIznk5JAxqb0901a2qYpxcXieeNnM7BWllCOJN7Yzu5O4ZPJKDGAMqt8eo6dvFfbqlI3VZniZIm3FINwVyCe7EKFz8ZPtnTJ0/eLbcqWKitrpnCzzOmPyI5wFY9l4Zi3vlfgDVfvqtYJixQWYhYDu9qsdzudSaW2t/DrXRyskDEk1DRSbAWbPqJkcAE9yHOlDqLoyprLvXTwERzx1kqRqpwpAwigj7kH9CdWvYLNKbJUCaExvPKojLn8xDEgfccKcfLajX3p+SnvsElCFdZYZZthJTzJDM/oz7ZbcPsQuNLq5FdrbnraXrEquohuNHSAzUowyZkiwSjZHfHz3/AF7jnSfJRUFIZ54kb6WNC3b1RjuVcdiO5yP9NXIJbTeKTck+Y43ZYpQuGjJwSjj55wR84PHcV71ra+prVG9bZyZhE2WR4hLuX+wYj98j41YyBj8ZKrEeYiVN1pojNUNVQNArD0yoXMUy8ABgysvfIOeze+k279VWqrr3prjSVMe5HCRvMHjDbT6lcBXQ++Gzj7jTObZXV0b1SGO3SMgzD5RbaMYxvAyV9sEZH+mq/v3TCQVFTJJFECKd3VFbKg8cjdypxkZPbJ9tc20kHE6FeCMzrR3KAIq1MiyPG+HVECrgY2AnueDnn43H2AerLV2q51scLTRSOV31HuQpJIB+MjH99VbaunaiuppGp45DBNhlzKCA4xjJU4+2CPjTf4fWu60VU9I6piIFWBBbk4/qHcjPf78fOn8av3Iq+zrG+vusiO8oJEKhvz4BIyT29slm4+CumHp+1AQxVSko8FNKxbjAKnK5HvwwGOxA++oKdOx1PEwMaj8xdcHHyR7ZJOB3032qloJKoWSFAVmp5ZDtPCIwG48e+0cD/LqluGPJiByj4EcIVSC1UtDJC3kskkkTo+DAueCnu0eT6gQdv3xk1v1ZcKuzRz1VU1HJXU5BX6miw8uG9QimjbMgOB6HGRj82Bq1IKJrTa6abLJV0cD1UqFcpHuCbmVfjdEXx29JHzpb8TDaIunqx71b51DIx8ylX0yEIG8qSIjhwp2+6uoX3xqZ1Std+Y5Gd21BvTV5knstjIpYqhlgWSsmQAM0Ymb+X3wBtOMjPfHbU83Vqc09waQNB56LUqx9REs6xzbMjgAEntjMY+2lfoOrobx0NT3SmmlpKaZ1pI1KhSkPmCRj2BUrGjD/APm/Y6doES5W+8VKPIpaGKloQ0WGhiBgcg59iDIp+4OvVKJtrGKHiTbJrU1Pe4Qp+kY0s77QQURiNrj5U5GPdTkHI1UnWlhM/U9u6noZZI6dgEngL9gT/S39QPsTyCBnnV19VVNZQ9OtWny6qlqAvnhUy24ZRiR/iG1W4/MpPuM6q1hskWBJwKSd8K6qJkHtgpgNg/bkfGgdQhg1sXhGo6jslrodq1FWCsYMkcqZKr7tt7Njvx2+2lu6VVD/AARuobXO31k9YjKYiFM0akk8HlcM3IOQRpjrOj6irSniipFcB1UeQWwf2bJU/vj2OO+oF/6Ppbdc57jUgmmTJAHpiXHsfk542j3HPHGpEK5zK3DEYiFb7Pb7eZbpdYomed2lZP6SSd2WA7/IUcdtSK1qzq2elp1H01FDLHIIiMGWQnK5A/dvt++pkFouN9ub7UMdOhKZPPrb2+P7fB1YfTPRtFRzQS1CBo6aQNJk8u2C7Y/5QBqz3VQZMlFZbQg+ls/8H8qmqVJNXSCeRQOQyIpI/wDtdh+pGrT8EOqqyg6hpLfTVAJq6CQbdm9d7of6RjdiRQwAIPqOCNV51vcxh4ym2eWaKAlR7b13AfALsf2j1P8ABu9i39dW+rrKeFoKaSepCyNsjWBI5SNzDlRsOc+3B9teNxsQ4nhX0cS/PBivFF0T1T1dV0ixT3qoaSZROxWaoGUYqzdoeBtHsN+s09aRRX+4zR2g0Duah55KxyRF5XPmN2zzuPHxt+dab62t1F0d4MW+ht8crxTMXDspVnHJBUNyVVcYzjgDgc6oXpXw4v8A1xaqq4yx/wAPslAqBNwX/eWLkhBzuOQec9ySzHsug4wU2HEbcSEEldL9MXjw8jtnViyk0V08uOaB3PlhQdw3Kql5DggnJC5z7DV7zXqy9cxCPpzFXdIlUvCHJVAODLIFbHt88f4hoNWdMV136KezSWeirno6YJSJLJ5EURU+lmc4xgKCScr3AHOdVl4cWq7dLXKssdLdWmq8N5ywebIKmU5OFZQAYo92d2MMcBS3c9dFKTmsweOVpud0uVdJR2q6XMXOiqHRaO3qkMPlJjJY4YKhJyzOS3H9W7TTcKOzXad4OtIpK240tOrLTpcCyq78KFjHp4GCScgZxgdtKVqorFYKq4vT1gllgn2y1MsLTMJCdoJQEooG1iFLgAZJIY8GrLb6v+M01PB0m9U9dVfVLNdJPPlqF2HdMYYiExjgB2CqOAD7+dgBuYoydT30PFcbZVXaotNxqjTKm2GIVwklq5mGQI9x2lRjJkwVz23aA9D2fxYt/UdbVXqzXmGiqpGkdqqrXzY5GOQFSNkMpwfcE6su63iCiZKaOkahikDfVTU8aGWQ9tnlbWwP2OcYyQBgXculILvSw0vTdpIlmYDzJnSB0QHJ3FWzz8bVHPbUhvTOBH+02MmJ0FL1dWVVdT3CKustqk8wVXnQulTNHjGZHHnbATnA3L35xqC8wt9rIpOpBU0tIdtKlZTSvJGvGIgzAhhgj0O36asiu8NpokT6FbnI4/MtBP8AyQ33DyKyjjkA+5/XSvcYOpbdHK9TS1RglheKN7a00RnIz/LZN5d2Hs2R2ODrPc/E3pmJK2Fbjdaa6V/Q1dVULNioqvOenSNsk70UuAv6qR2HHcaEVd3qumL817oRXpTgSfTy1Ls574JVWZgx+WAAPvpulSa00NLT3ugo6KCqnDmC50y1ku48BWJm2hj3BxnUe4NZq1Etd0napFOS9PTTGZXjYj80iQycgY9LEj4zp1bgRbITOKWm83/oSa9U5qZauTfLEJ3WEyLk4JLrtP6K40UsdHVU3TdrP8fttNfgS+XnDmVPjGSGHJHB4PuPbxb7/DJWm2VclDNGFMULU9ymiV58YVXE7ehuxAOQecZ012O02mg3TVcNyFVAY3NDPVvtimIJOxgFUZPIYAA9sHVAdYr2zI1hmmqZ0qN5t9YxMNTTy13k/VBfaJXPoU5OSWbsSMaNWKOK4ym0xLAtRI3kS72SVYNpyfLKqpYkY5JI799RF6fvlwqI1ukkU8YmWoSslaWScnnCyqQE9OTgAe2nLpOx3OiuVTcK2WCeSJGAmwUiRj7hB6VJH3OOw0+vkfGIfj/KM81FTUtjWCvuAhjAy7Rx7JFA7Y24AP21Wte8c1M1F0903NPCrNlnmZTKTn5JLfOP9NVT+NfxbvvRHTlr6d6ZrI457+zpJKkp8yOONQWI/wAOc9+/6apT8M3iD1i3VkkDXure0z00bQSVQMYkm3gkBSxJXHucZPbU13PFHjZj6uF73k4l9dSzUkchus7zLvby3Khi75XOxQuQuSAAcDTL074mQU0QFTZJKmW2IVoah55IhDIRnY6rgSqVOcP6sjGe2pPUvTFmvNMtaaaBZZY8yBVXazEbsMRjI7kHuOPuNL9qp5a9KryvpZXRwWcS7GQpwwXAUhh+vcffXl5vvjqRGHh+wewMuboL8SQWsaa9SfwpiEMzQsZKVEJ2mQruYqMmPdggANk5BGM8fjv8G/q6ak8fejjTyWWsVYLlS0qqIqSVm9MiFRyHYng5YH7ahX/outtdRNG9vmSORA0yIyqPJyAZiqjIUMwJyDjP9rE8GxR9VNe/w9eIdZ/+A9Uw/SxKQzyUs6gSRTRlsqGBU9/ccEg6jtXJwBHKNbnz+EMYp1qZgrqeVjDkMeex9wP/AF0MfduLKNoznAPYfGre8Z/Bh/B/r26WHqCuqaqioqqSNP4dsllEYIZfNLEKh2MMd8kHt7VBLUU8srPBIzQgkIzLtZlzwSMnBx7ZOPnSV0dwWGJ0E5cAHPGvIjAOe3/fUdJi0hCjg++pSDdgEf8Apo/5QCZ+wsVbHfnJGiFPW+UwKjA++oYiKZOSc++vaKS4xxggjRAmCdxvttxEkQ59tFo4YZ8MrZz3GkeGZ6VshuNTaO9yxvweNM19wdiOaiKEenvrvHUq3pc4J7aARXZJ4+T6vbnX8tcVfk++jWCYYrIY3JDLnPvoHNQ7SWRMj40QW4enD8rrg1dTE7d45Pf403AMHJEEujKckHXiQ5HPIxnRKoenYEhwfvqEYfNbKMCNYaxPB5Eid92EHfUmSGV8ArkDVj+EPgbevFs3Jrb1FY7QLdsVTcpmQTyN2RdoOP1Pz205w/hA8a0qfJq7XZIIDK0S1Ml3j8ptoyWGAWIx8gHWBR4jB2xmUIkAJyR29tTIiEXgY/fVreJP4evEnwmp6au6v6eRLdWjMFxo5hUUrn2BcAFD9mAz7Z1W9Tbgo3LjBHt8aYhBGottHci/WIh5OTnXCoqGlB4wP111FA6sCq8a8S0M5fCKTn7a8RmZqcaeBJSN47nR23W4OyiKHdg/GpXTnTM9RIHkiOO/PbVkWrpqKmjVnRR9sabXXmJsfHiYcplaX8upUiPGMhT200J0hJRkgIf9dTI+nt6cx654bMsKxBKyluVOusSk8bTk+2nN+l98mEiz+mpNP0ZVlh/uci5OAWXA1vYCZ1MT4LZU1X/DiOPnOmKx+HF9u0yLFThFc4DMe/6AasWx9CSxpH51Mwzz276vLw96MqY/JmprRNKcelimB/rpT3hRqOTjlziV10T+F+53ERLUYd34x+UD35J7Ae51Xnix1LZ7fSjw66KmeWxWx3mqKhfT/EatuGlbnhBgKmf6FB43HO1/EaW5dIeE93qiHp6y4QPRQMgy0asp81/+WMN/cAcnWOekfw/+I/iT1PL030/YJSYJN1XPUeinol9hO/s+Dny+WycY4Ot4nJVe1jmHyOIcBKx5lY9GeHV/8R+qKfpXp2PfU1A31NTtOyGIfmdvhVGO/cnHuNaxtf4cbPbYaemp45SlJCsUchXDHAwX+AxOTnvk60T4Q/hvsPhN0u1otSituNYwluVxkj2vUuOQq55WNfZc98k8nixqLoeNCu2EDJ9xxqLk89rX+HiV0cFa1+XmZes3gLbrd0xcbTQUU1KbqyR1tQH2l6RTv8gf5Xl2u5/q8qMdgc6y/Dt4TL0r4di/1ccc9cZA9NTwBYGBRfLibYcx+bsyM4UPvJYFzu0Xt/SscDCanooZZm9Kho9xB98DIGT98jRDx18RG8POm5bdTbZ7xV28U60sBkgSihePG9pVTdJLuCjbkAL/AE++gqW3mN0G/wAzbTXxh2mbOrq+OHrma2Xu3KKe6vNJNlwwMCtlAxXspL5xklmU+w1A6d6qNJU1MlVB6npplik4Kt52wqMf5AcngD/TStDfLx/CqSvvlTSS19EamSrqomysLzrIgQADLeWCE55yRj+rTNbOnqKurxbXlant9LVNDIyoAZoYo0f1NnOcoM49zqHnWMrBTL+HWrKWEtPpC70l4skEvmbTIzblfvkMwZiMcZYZ/XI1K6otQqy0HJ3060+f60LyHDk+xGA366XulayRLMlZPAsVXVRshjXIDlpXII+x25J++mC5OldJWRRyjz5ZnTkFSNqkj9MFTjUtFjI2Y69AwxKE6iS6dM3utu9vWTa+XqafAxKdquzAdiQWfj35HvqVH1bQXShiqYQJYZQDsUg7D/lLdxwcA8jsdWL1PYY7jIUqqUM4WOTLD0uksZB4/VW/vrON7iuHQ18d4CzULyyI6gEqcHnj5yMgj5OvpOPeGXM4VtRVsRkvWw754qUuTwpLHgkfCn/Uap7qGkkhqaqWIRQZ2q8YgysiNkEHcxJPxgjsfnVhVnWQmWWF7dTzp5e6OYMTnHPIPHGQeO4ORjkCq7nNWVtZNVrHURgEOWWZlAA3BlCj3z7d/jS71ydQ6m1gxo6PtxjVJY8xxnghF2/3HuP9dP8ATRx04Ap/KWMA+mMbQxx/Ue5/Qcn30m9GV5mg3yr5MSgDJZpJJGxkJk9jjkhew78kDTrGlXcQKGmMiqWMe7ABc4JbGOAox29yRq7iVhR2kvIfscSI9ZW3O6RWyhZy7yeUCB+UkZLY+wHA9/t72r0N0hDTVS1swXy41jhwRy2Sd2775P6c6HdL9Jx0DxVyU7GoXzJnkYn0lcIuf2bVgOrxUssKgRhZ2VsDhRGRj/UjXuXyhSpx5mcek2sM+IPuswheG9yRbxDHDG3ba6clgfnIZh+p1nb8S/iBV2mlkslPWPTx1MeymqYzlxg7I3598ODn2OQe/F93y8rSw05SIMryzFI85VvKTdt/svf5OsS+I15rL74jUVtp2jqaSmqYfNLDIjBIZWH6AKSfnOe+vnxa1z5adjota4WXd0zU2ynorBb2SdCbVBRzwlTnz5wsYw3swyM8E/31YctxNQLtVKzBKVaSGGEvtNQIVYsFPuGdVbOAWBbtqqelKupr62lT6dohQrUyxSuAhqW3DJwc4HC/oEOfbVhWm42+s6hhQRN9NRRt5yq+ESpdQqLtOSxwW5PBL59iB0aLCDkyO5MjAhOqRKujqaGslj4KUNRHtACShSAcDtnCfoWPzoDYuiZIr1HRrR/UUrrudGUExgdwc+3xzn2+NeL19dTGqmMLPK0sM9SHILFpGkLKQMZ4ZeR7gfGrXorfc4ejLp1HbTHT3AUOyjlZd5V2UHdj3IPcfAOk8+744H3N4dWW3B1ssNHWUtSbUpkkpmNMQ+SY32glCfcgEDnkdtIF68N6uud/4jl1V8ggcL8n/sAP7k5Otffhu/D9crf4SUz9Xz1D3OpD1HmVK5lJcbslTz+Ynv37nTDffAi4lQLZQ/UyyHCAMoVU+Sfk65PtctPmFyJ0/c4zfEnBmJKXouK2LmSJo0QlkG3LscYyAPfHt2HudCbleqCnmFutsbVFS+Wk2EERKccNjjc2MAdh35PbSPib4I9QWq0SS3DbSTyhkgCsHDHHPb2A/bWaa/pWSzzyUSxNG0gYuxbL7RjezH3djgfYccDTab+7dbNEfRg2U9R2TYMUL2s9Y6CRlDvNuaVT+ZvbH23SYH2GffTf+FWz03VnjZYLDWIopLustNkrvCiSCoCkqeGwu1scZzpS6pIeoSKjXhmA38YGSwP6+5/tq2/wC9Oy13j9Z7m8BENpoJaiSYAmJgtO4Rvsw3YOft2OugpGAPyRImB2ZbX4rKWks0lv6Lpq2StmpokhT17FDNjcSB88ZxxjIGOdInS3SMnS1nXo+K70lSr06zzvKHjRWdslpCSOO2APUc8bRg6f/Fq526+eK90r7lVmKOCTyLfSrKyvGqLjfhc4J3Fs98se2qZ6+rLpbXjs/TVPTtV0/qFPRGWpnkdmGJKhmJ3HJbbuIGewPcVcVQuX/MnvYthfxJd1p+orZfKOz/xOpqKaolDtLBCiUxkCjG6MMCw47bs/JwM6fKiyVVCsj06VV2rpcgPMPJggjK8lgO5IGAueck45Gqm6cbrWgakpaeiqaqrklkZzCVZZJ/8AAZcAsoOSdvBC8YXkzrzQeJ8Kxi4XGMwvln+p+mRTIxA8pPNbdI3ycgAEDGSdVe8R4ivaB8mWXR3a2QTR9P09tjnqIXE4SWOLyY5SMlmG0qO3pyW4GQVCgaJ09/rKyrqJoes6OoabKTrRypJKHBxj84zxgAEZzzgapU1dxnm/k1UJprYAJ4wvmRpITtVWaMcjcCdo5OABgZbTba7nF0/Y4KeOmpLxXTs1TLMIFgVCMlmyu3IyCqg5chWyfmS2xnG49KgplhRLcPMME10uKJICQa+TaVGP8Cudx/5ccnQerlqqWcUNF5btVEBplpo0CAcAsxAUDnt6mPYe5ECou8kNpSutofMsi0tQ0sKBmkIOM7BggYIGfSAD39xwqneBqpqqWqmhJk3bFhgjA9s92APHHc8DgHUAbHmV4zG2wXiWmp3qrhUvUCJzF5lVBsYjkD+ZHjI4+AP20buU8MtFUVsdurKvzY9kgjLIG47Eq3qx2wGK/bVYUNVeqqlkkF1lgdyzrH9SZXAyT6B6VC7cDgH9gNEunev7ZKiQXi5SmNkKiMFAsvtyWzjB9v8AXSTfh8Rgq+OZGvNd1J/MFgtHUtI0EBJE8H03mqP/AM5KwYGPvguQMDA99ALLd3rWnp6vqdoxMuXjanWtELEd1xuC8djnB/TjTre6foqptstTNZZK05EkNAbYJQ7H0h9qMFkzwNxIAAPqGNIt1ulyhWjlnsdJAElKRUSJ5UO1uwAZvLDDuWcue+ABrqU2YGpFZWSdyTJSWSoq/paOMxVkQMbNHEUlrkA9JcINrA++NpGO2mvp5paMRxzW8uZVA8mUuNoPDI7MxQLyMccdjpfvFJervTwUdWErxFienMVaF8mUH8m4YUjuP6Qe27Uy136iopad3o7nRvWqIHTHmDzVGWyplDqMZ9SnH3OmPaTswFrxqP0dbSRQrUx1AhkpBtko58TEN/hLKM/GMH9vbTJH19T09rpqW8UlNFUVYxTMoIQFs7V9RGe3BPvkfrVMHWdqprg9FdpqOqoKmUiRpJWXyht4Hyr5wMZIJAyM6EXS61UPVNw6NjYTR25hNSVLMAyquX8xcnkHaFPfuCMk51z7eUyA9TLE46t+oSqPxi9JdZ9U19hudp6bqK6KgaoheKiiMhVpNrBio5xgYz24Gh/4bvw73ywU6VnU1VWrd6p1kGyTEdKgXcqEn3+R+2tQ+Gd4+rdILwPImWVoqYySkNtAB2kng4ywx/l41cdFYrQQz09FE5kOSSobk9znRce82DDwbqQhyszv1LdqopNYel7aYaqmomDlpMEkrhcq35s+rgHnn44xfP4weJ1k6ouZt3VAscryzGWGsCrABH2DbuASRgZ4ydfTe+dE2y2ua600qtOZVkd0AJHyMtkYIJ47ayH+K/wXtqQUd5t1qL1u50kqYgFV0bkxvgYbGf241QlwV9RT1l13Ki6b/E54im/08HW7x1M9nqFkgq6XYSY+DLEGQlX9JB+2QD3GtLdJRUvUf8O8QekZc07sskcat5bwxhztJJPIUBvt7e2Djaj8N7vaLfJUiyiKlb0oGcsUYnOUHdc4OewOefbWo/w9z19m8O6anrCNttq2lSBh2QMGKD9edVBmZvifMn6hV+Q8SifG7xWutZ17erjXfw25SXN4KiqC1VHWxspB3qCqSRnLBTuBRwMEAqx1SMdYZXdgqoXcsFUYVcnOAPYc41YPjH4WXXobxW6g6KYpNHDXSSULUmKhpaSZjLTbUj/KTFJGdhChcjsMarWWHyKyWOOKePy3K7J8b1I4IbHGc50rBGjFls7haGTOMnGiEMu3hjz9tAFqNoyTjnnUqiqNzDc3vrQYsjMYFUtHg+/bOv4AIc7sbdf0E6MoLNgAY1wqJFZiy/lI/vpwgHU6mpEjYDdtd44wVB40JjySfUe/+upXnMqbd2TnWzMwpBVNEwRjwTjOi8HrwWOR86V4Zixx35/to9R1H8vB7j/XTFx9wGMmSM8YILZHt86AXGtngcoPbsR76Ns8jnAXvjnXKptqz5DjOmHXiDkRcpbvVFtrMWBPGme3bnjEpY4Oh8FnWGTDgEaKRvDTRFEA1q68wWI8CM/SHXd46Fuy3a0LFLuws0Ey7o5Vz2I+dX/0f41dKdfVf0V5t7WeeIErG9QfJdceplPsdZboVWaYFzgZ7aYUpo1jyuDx3Ok3cRL/AJeD+ZVRy3446+R+Jvrw+8XYaKkS1WS62vqS0Ljdb5pg5Ue4Td2/Tt+mhviP4L/h08UIZ7ha5qnoHqOplURYpsU80jezp/wyCx7gqRrB9PPPb6taikqZIHU5DRMVP9xpntPjP130/OslL1DPVIpy0FWfNjcfBB51L/Bcin/+T5/n/wByk83j36uTB/aWb1H+Ebx36TmcP0M96pFbEdZZ50qY5F77gmQ6jHyuga+CHifDTmuqfDfqSKIclmtcox+2M/6asLw+/FtMFSju0N0su7/8pbp2eLnudh7fsNXZbfHXrW+0at0f4gU9aNpURVsCLKAf2HOiPOup1bWR++Mj+o1MHAqt3VYD/wA4P9DMn/wW7dOIkl1stfRK3CGqpZIQ36FwAdR6/qloYtoyBjW47H409XTq1D4kdOW++29h5ckLQIcrjvjlT+40k9fWLwH6rtkxg8Gqehucqel6cmBVbPB9BA/01VX6lW2sj+oktvplo3j+0xdQ9M0DnLxKc8du+mWl8P7BVxhGo49zDuFxpM6f6mhqXTfUrle4zqyLLeaVSh89OB3zrls+J0Qgkq0+FXTVOBIaFGOeSy5xo5B0FY429NthKjvlc6k2q+0Up8t5Rhu2OdNtpr7U9QtO0ise+B7/AK6Wzk+TDRAJG6c6Jt+VSO2KwB4/ljVn9PdJyR7FNGVA7enR3o+1UNUiPHGuODq0bfZqdY19A/YanOWlAwsre5+Hlt6oiooL3A5p6GeOpREON7o24BvtuCH9UGmG1dL2mzUworVb4KSnDFzHEgUM57u3uzHuWOSdOsluRYzsXGhs1FPncuNvvjQlcQw2YM+njiQ7AN2o00cgdAWIHfReOkAbewI1Hq6QzSxwwo0kkjBI1X3YnAH9zocTQZ0gklttrqryEVzDinpA8qxr57c7i7AqoRMnJBG5kHvrGXiZcrr1H1Zees6eK3WqKurHWlp6BneTaXOxQ29Y2IHJbbjGOMEa1B49XWktENp6HprhTpDaYzV3CaWQpErnLGSTPpbtkA8AbfjIy/JJ51E15oqmCGKSYmGNoGVjG0rEv6sAbtvHGSCp+NfX+lcUV0b8mfL+o8gtcPwJHdq630UMM8MVvoIWp4KKDzBJPKsXmEySHtvd9xycZIY9gM86avl85o5IZ1p0U1BqXG53ikDblOTzKSGbH+VeMZ0CvF/W4TmKpqZJKmSGYxmWAfT0xPlx7mI/w8lRyf740sXLqi42K3Tsky18FSBNBvGdwimCqSQOfzMc9zuI9hr5/wBV4bBp2/TeYpE0Fbqsx3Kjo/4sytQwPNOZBhafasjttAGO4UMfvx30aqqmS2zNPUStJEKekEkjctuaEl2IPwMn99UTZOu1g6jt0FwmJiXylqX3ErPGIg7IM5JJ2sD/AOYabx4h/wAc6forxDKspqqXzXiZsuqkKjg98kIzDP8AlzrhmtlGZ1/cVjiWNV37zYVlqNpeim8t1/xIHIbB9wDuP6P9tVz1909FcHkjj2lZy0ynaCM7WA1HpusqSpaQ+cWVwJwHOMhkG7/9HOf0OgHVXVklFRYo6gGRIJFh3NnndtB/7frp3HuddRF9aNsRLg6Nq5IqukMJaJRKImPHqXbx+4Ln99DunOh1mnqI6hmLxRCSVixyshYAY/Ubs51Jt/iyPONDWbs1M5IPfYNpVgfg5Uf664dLeIMT9Q3izsq+dTSRrM47HAdz/YEf/drorazDMhKBTGywdEPRPT0yxCOFGhUMT25c8asHpqwQwFJH2YkXbjvj4/8An31VE/ipTCvFJSz79iRrhTkBgc5z/wA2mK19dV08FMlKpVDIyknuBz2/toX57oOqzV4iscmXFHcaOhjWJwJDI+x1AzvOQTn+2vct58uikrKhX3tICUX/ADce/wCjH9tIPTdW4p/4lcpRKY0NS6q3LuWIVf3JP9tS6+qeOmp6CebbUTbDLt45IxwP8Iye/wAjULXFzkypaguhEnq7q+tqLdVyRtJA1JLMQmMtuljHI+MO2qe6K6Fq/wCE3Trirc76mb6eCN0JOECSM+ew44I+2rOezLcrZd5npnlnnuG14sZcKjR59+c7P+unaq8PltnhzcKmjovLY0jNLMFPBY47nthCowOe5zydIe/qyoPsiVV0ZBc/QlOW6uukT0FbWVDeTgtvlA9YZ8LuPso5b7kkAYA1ZvT1BML6lTNKyAyNHKpOGkEcLK0jf5i8rNjsA3HYaryijrqKnljjqS61NS0KeahJ/lgYIyAMKQoHbkt8ZLf03UwUcNRElFUQxz7rg6kfzNqZQN34DNGMDOWLj4OvoK16icWw5MM3ZpKi/UFHIgzVJTLKwI5kMuMDPIG1lOPvjWsqXrSxeGXS62xYY4600hKVZiWQghXLhEP5pFVdwTjcBtHJAOOLJcJ7r13Ts0yyRi4bio/IGXYePcjzEYfsDrb/AIkfhZ6g60oI6Wogttwpn3TBTUNDIpYKVGTjDKw3KQeCvcELpbUta+vqEli1r8vuUHb/AMe3iJRdWV3T1xtVBXJSssE01tZ2qWbbjYgI2u75UxNgbgQTja2tXeDPjbffEinR4en7xJTJJJFJXPTRfTIF28+ashBbknb35x3B1nzp7w+8cPAWWqboS3Xqkg8+GasoZ6JKykqHjXaOcPxtAAZCPyg8YwNK+GPjXJ1vUQW7rHpSt6buKRpVI5SVaSdGOBnPC89t2QcHByDq1a3AyZK7KTqFvHa2Gp6ArK+RY0kpU3q3+HLDgfcnA/TXzy66aeWrqoI08uOIZkZxgysfyjPxn++vo/4i9R2+Mx9KyhGkrbfV3EOQT5awAENjseSf3C/I189OqaaK5dQGiZvKpw4kc5zuxyAxyCBxnPbtrg81R/Fgj8Tr8Nv/ABSp/MqizdPV3UtWadYd8PnFZXCBxGoVguQce/xz+g1ePhx1FZ/CCjnpOlK2jSsuMH0808kKvKBgK2MDJHGMknjOlCW92qOj/hVrrN9JG3/Eif8AOec+pSAfjIH76Wqy9WuglMlJaNoHqeSVmwvuOCxH+mqAwG4srnUsNKpjdZLma2lqZ5mA8+niLSqRyWIJ2Kf+Qfb30k9TRrU33FnkqJWmyJt0zxJnsWkPAyBn1Hsu7tpUqvEG3sT9S0uyM7iVJCfvg8/p/pojZeoKfqWpjo6S4o/mZdECn849R3bR6VGBnJPPsOBqimwnzE2ooGox2rqWSnE8Nyro6KktkPkYoYmOf8UYc9mOACQowFILcMVg2/pin6h6gN/uUFNQokW6khqZi1TU4ALSMRnyolB5fvxhQud+nCCh6ejCzfw2a5Cixs8tC8QbbxtUjb9hkHA/c6C3CywV1ylhpobg1S8YaePzGkmYs2QjcAIoxkZHpySMtgiw+MyQMc4hCg6hSoiuNrioJEtVJIoEjy/ymbb6Y1ii7gAZKgsT7nnXGrp6+aKS301O8M3lZlifbH9OCCY1lxlVkYeoxr6Y1Y5yRjU2mp6+3jyTHFDSUQWOaZ3EfkxgZdiQxCuxyFAy+AMknjXCBAImuEtFLTUy071jeYx82qnlIClwc+WgRQdvcArk53DU7nHmUKM+IwUzPcOmLtRR+kVkT1EEn5cTr/Mzj+kMrkj43aAVVbW3C3xS2ySaSF1CbYh5fmkKB3xkKCTzxnIHOpF5vKdO0NJZpXL1SUqmVl/q87Ck/baf9P00tW+kmpKtJA7NUxU4p2kBz5ad9sY7Zye/x8a55PYyoDAxP26b6YGjmvCNURHCo8om5z3Vd25Ocj+nSlXzdQNXfRNCFgdvNDwxglX+Rz2PuPj99WDV0si27BkSFCCwp1z6ge7Pg4Of00i1FihnrsyjKiUb9zOq5zn0RqcE5/xZ4HbWADO5pJxqXx07Wx2rpiljWaihqJok/mKY4wD3z6hs9sdiTjse+vNVQ0tY61NyvjR0TsWEQicee/y0jDITj+lUBOMHudRujrav0lHPVCOCopYVhR5Aru3vuIUZB7Djt2zpb6+rKKCI1FZFVVla7MgEULIFHHLKjKqtjkFt2PfjVdZCjIMQwLeZFuN46SS4zvHU1dwqYycJb/O2j2OXRi7sOO2QPbGoTXoWoz1sFgrbcyRt9UaudpgxY7RvxvdSc459WfjQSiiNRTtIj1laYYmcUYfdE3wGAwWOM/r9/Zo6a8L7pWwQVt+eOjVF2x0FMNsUf/mHI7HsCTnnJOlW3dfMbWmfEgXOvtNRSwC0+RM6sFq5IEJkpZAxxKGyMjtkHIYE4xjUeobqqsne5UNinqqh44qdJcbpCAhRlJAIXAx3zkjBHJOrLt3QNPDFUWxJo1ScCORIEEeyPjJz7H51I6q6x6X8LbClDbIUWd9o3q3Oc+ptxHJADf2xrmtYWMsVOoit090s3SdEL113daeyxMPNen88F2KjuOM5wBx24++vV9/ETXWOmuI6QVjTWeaOICV97VCl0BIB7ZDE/pzrPHiD191D1E1hvNRDLc6oRTySdgJ25Cog/LgCP82OS3txqLTFIK6mWz1870ddJJLWCZN0apNEh2r8hJNq/wDJqhBncBtamjukPxQXKa42+Hr6zIouMwihmiwMjeq7lxkOMuntnB+2rU66u1FcrGnUkEUtf0+0RMtVTwmf6LI5dlA3BMe4z/01ky0WymuTzTyS04j6crZoXiaNSJHFNHI2zjurYwwAAwum2wdQ1vQ8tRfYbrX0lMjSxSx07tiKN8lJFQNhUIXcQfdXwMaejdNrFMvfRnnq9LlLfXaw/wALrbW5VqSojbzEqk2g4PPpYerOcYx7ag1PW1b0nboqWhigAM7Ns2+pT2I5HP2+3vq2Oirz0V15bblU9XWCOmrqakEj1lD/ALuXlLFQkxQhHXjJYg4Xc3YHWcvEvqnoC39TQ1Kw3qltkrOITBWCoaF0Xa8EqOBLDLG7EEZZSFBXvxRTynJ8ZxE3UVqMZxmHPHWWLxF8JKTxR6bvCtXdKPTWLqW2y0ySLPQyuy0NU4YHJikBpm+FeD41lO4xrUSfUCjpabKgbKaLy0z87ckA/px9tP3XHiPHfKA2GyUlPFT1QikuFVHA0DVcibSuV3nGCuSDwSc4GBpEb8mxtV+53PYjE59idPiDnEDyHax9tS6BAzArrxUUzCTeFBB10oyY224IBzpoAMTkiEHnZFCsMD516hqGI2lS36a7Q0RnTBPvojS2kRgNtznTUrJi2YDzIsMSnAZQo1OhtXmAHnB99fkqIjbmXbz2OidFWRxxgOP/AG05UA8xLMfqcoLQV5HAHfjXSaAU+GznX7NdVTdGjj1aH1NYZFEY9RzrGVfqCrE+YYpatM4OMDUt5I+GyMnS/TbxxnRBWbAJJOtXMBjgyYWDZ+dD5XG455GdSRPkkHUCrfb6gBz8aMzAYRoqiGIAluT7aJpWvMNivge2kg10vmbEJ+2jtDUSRxb3+O+iEY2hClfKIYSxk9WNAaG4NV1rITkAgHXC7VtROxjjDEnjA1N6SsUpqVlqRwTnnRqMmB9S0emaCNYo5miXaffGrGttxpKVPMyFIHtxjSZRRiOjVEwNoyNDp5LhNKYombbnv86Kzk+z4EJKO+yZZi+JVXSP5MFxmAzwBITp66U69q6ryzcqpmU/0sdULR200+Jqj1N359tFY7w9LwkhHxzrmvZW+WtUH/iXJ7i/GtiP+ZQNu3q24yEE4P6aZ6CqrEAC1D49sHSlSl0kBzo8lb5MAOcMeBqEjEuG41Ud5rIZFJqZDz/i1aHh/doK25Qyy1OSp5Bbvqi4q7Kj1cnTH0xcp4KmP6dm37hgL76BhkTRoz6H+Hd4oRTxAOgHGrhoLvRNAGVxwNZA8Kqu4yUkE04kUHn16umlvM4h2jeCB8YzqTt1lIXtLcmvFMwwrqT765pPDP2YaqFb1c0k3yy7Ys/of76O2zqN4yGV3f750Pu5MP2iBqWFIqxZ3D067UNfbbDRXHrG5AClssJkXP8AXORhFH39/wC2l6G+NPF/MB5HA99Kn4g77U2bpmzeH9HMUmuconrAjeogkZz8DgqPnAxqviV+7YPwJLyX9tMfZlNdS3Ot6xuM3Ut4VZXqqg15jfiN3yViBHuqKjtg9/STpU6xMdFVU9zaSaaCuAim2yiJYpRwMtg9wV4xjjuNM98qRBTVjwgZhURov+I5A4+eBgfr99VPHU0/Ul6uV5vVJDV0dEz2ughqgJKf0ZFRMI+zOZCyhj2EQxjJ19LReKj1/M4d1HvL2+xIvVnS9VUQVD22ohmSqPqZpmcIc8p5mdpHGdq9zjnA1R/UFXerQ6WkUVXJaoahzLOGRwsZCngqc8MMgYxlfjGtE1/RXSlNTwU89iSGilVIzWwTvHJE+1sRy7GVd2CvONpA4GkbqLoGjo6WOnhNbHSbWSMzSyBymcl9jkhV4zu9xqjkcZeQslpuND4Mz9L1tV06UdNW1BG1tklQpwwURyqzrj5EgI/QaN2rxWqLU9BN/EEBp6NWEfZVQF8rz/lKY/b5OpXUXh/Q/USxwLOm3a+Gj2lA3ZX474wT276Rr14ZlUcwq+WwNxO/GDnbwMgA4P7a4lvpp8Tq18/7lkP4lRXGJbRbZgauJFQnlcN9OoZfty7f66l3+vvtWI5nAeNVkPfaf5jbgR7d8gj/ADaRfB7w/rZ+sLjfquoMqUqGT6cSeuaQ4HPwBySdWO3UlFeay42R7caKqtcf8xIn3RkNwhz+xHzqI+n+2ZUOaWGpW/V93fpqmpb1VoWkdzEHDFWPGRn7j/00q2nriZrk9TBCq1dczI8ivyytnj9cf21ZXU3S0XXfSj2F2FLNLIWoKiZvQapdxCE+2RlD+oOONUG9mu/TNzZa2jkpaqmYxSQzIVZHPBX9fuNNXjdVwIs8jscmX3088UCwmNSApycDPHuf7A40z0PVFU0BQL5YdsKCMEH0nk+w5/66ROijbeqqGGVLpH9XEMSU6PtIPY++PbTraqKlpqwUlRv8sqI490mfbB/QfPOoH4LeRLK+Yvgy3ulrhSmz+aalcGmjmQt2JKlk59hgA/vqVcusKY0UFzjmhjlNHC0hP5gHK4UH5wo1W9VDV0lHJLCzSUzrghc+mPPv9gBj7DQ6tqFu1PGkdXtUeTgJ6lQJwckd/wD2GpP4Z/uWLcvkS0LGtUI0uNsKzM9Q9RGr4CurhWznPGNx/udaP8Ard111vZr9Q9XilESUkiUtDbIFkanUjEMkiY3k7+5UMoBwwHBGYfD3r+52m50FFQChkgR4o5mnpIqhHwdzMqSEKSeAD3Htr6DeC/iV0D1rc4Lld+naGTqiWoMUF3SmRPqAvpjZjnCPtIGBnOB37B/C4Kse7eRA5nLKr1XxPnl4tdOSdF9YXS02a4Q1E1FO1PSsDuWSXysSsi5JCqSwG7nGTr1bKyavhWjpZESV3p6GiRDkELgtJz3/ADDnHcnTb+JGxVFg8Y75d5rkrr1DU1M9HFJGRIY1ZoXkcEZy49S4ONrD251X/h3A8XUa3S4VG+G22ySopo1xzO7bVXd/UfSpJ7ADXRH4nObe45eHNhoqnxQtNtpm3Uf8SjoY3LcOqyqJJCD7Ft3P6a+q9U9daaqnFvtq1NvmlcVSpKTNBu/LIiHIdM/mUYIzuG7ka+bHgDaIm8T+maLfHJ5FVAzNIBswChZifgkEn/zDX025iZgIigGf5ZA2kZ7qR/8APtraSGyRAtBXAMHdQWe1dQ9P1lou4M1sr0EUqqfyrkepSAfcA857fGsl034nfFfw86zvfQniDE6xWmaeOikPTW+WZVkxCvlwyIGjaPB81TjLAhSMjWxp/MamdoQGYjgYHuP/AJzpc8RulOneu+jLn0x1koS11cGZZgwRqfYRIsoY52lCm7PI9PIIzoeRU74ZGwR/Q/zhUWInxdcg/wBpUY8W7r1f4QXu/wDUMNioro0RpUSmkKyJC5BYGN2ZkYjAxuySM7eBrEHU/VVvl3pTXmm86ucyKFCszr+UhT79jz7Y03eJ3XXUNn6Euts6WuNL1BZPMMcVFNRJTtURqRtkKptUvt2525GDnGSdYA6qu1RXXOeri3W+V3P+7ICqow59I4x+hzjUFNDco+6ScYwD+Ze9i8Ye2POc4/Ev6+ddUNLG0NNO9QYhsMzuRCv2XBJY/wCmkGo8QZ+oLrFYLFSTXKrmYbVVcjcfcL7/APYAknjVZt1dfkp2glI8pv5bEtwCW7hse/8A21+0PVdwtSC5U30sEwUpuVwj8/mO72yPYffOqfa6rgDcQLOzZJ1LJrktVsoXn6ivYeZmw1NTjcQ2Oxzx8/bTF4ddQ2ykZ47ZXTRSTECUNIoC8L6MAcAZJwAcnPfVD3bqSLqMI1yjaeaNWPm/UqCF/wARYHBIOu1k6+exP5FrijqZKddoqaiTLLu/N6wMYwBgA9ieTplSAbbzAtYtpTqbYtvWBu7x2WywTXKdI1i2xR+TBApG5nkdsnOB2wCdw47DTHR2i4ww0811qYqOJ3DpSwqwZ2YndIE/PJIxwqkgYAJGBqk/BTq6e+tJBJXTOix/zVghMMESsMbdwId3bk4HO0Ae+NaDioIoKlayeXyNsMaGOQL5qxgAAHHCZwBtA+3ONPJCiIUEtOtZYqXz0eopYxTwRmRYppMhGIyFVBwCedzEljgnIGlm+V1HLBUTVMxaEgSSuAVQxqRx+hZgP7fGitwv6zVMsdIU/lxMzlhgFjxgdyBgcsTnAOAcAimPG3rYWXp2VEqX864LngYxEMhcAHgc78f5vtrn2k2NhZanwGTJXWvX8NZ1LU1Mbh/JcAgN2OBn9uSR++iVL1dTw0yyGVF3AwrkZMhzkn++f2Gsl0PVtRWXGStSfAEe2dBn8yuRuJ/8vH7asi19YfxMoIJ9kpjG1fdQQQT9vfQPURNWwGW/X+ItFSU09a87zzDO1E/pA5OPvnAGkK9+I9fU1EVNQusLBQ0kinlGb2X5OhtVRxwW5GlkaWeUKFQDAEfft8Z0BhheNv5kQYl+QR39wR8e/wDbQe2TuF3HiXX+HbxJu1y6jm6UuUsywTITA5faRKPbgEncMnJzggc86trqSSmE72quuTyrUyqBCasxlt3uTjcx/wDLjWQuh77W9KeI1rq4LTT1KpVDdJ5eSY37kN3B98Hg/wCo2xXFLzSxGihjGQOZBkL8EEsM8HsQcHv25aQRhhAVs6MVeknpembFca6CgYxNVLHKWcFnJkkUkEk+wXAJzhQO/GiFD1/SNK8Mk7KAGkYu59KKPzYHPscfpnUTr+Kkg8Nq82uvqaiOhmpt8zHLSqjujsBtUHEkqngdweeNVD0TVVE96urTS+mht1TM5zwNqcfPsD89zqe6rvlo5LOmFlv3DxCrKuiiWzOlNAa36VlwFYqrqrFieMeo+/svPOqd6t6ovHVl0rLVSQpTO1SsMxqJd8axiKWRpmjHJyi5UDDEBR3ydG4bqtz6Yt0NO6+bUK87opD+ZGGDKwA542jJ9z+mgHVVGl48QpbSFaBHpKVWkgcZ5eQsVbv61lMe4+xwO2pFTBlXbMUrpQ9SVHS/TF8tNKZ2WJZJKlxkIZqsuN3PAZQcDBUBV78DVgz0dLUydMmOwvRSW641UtQagYaeAK7wDHuoJzzjIU47aE20VtptFFZqbzJoZqadZ0lBJeqRA0UcfPKq7DaOx2Y9jqZaupqut6nljrpnKzR0y+fOjRq8UUMS+bCpODiRpMfJLcHA04E539QWGtTtSVNB03HcXvFNPVW83VzuQnzJ2jUwTkSA4wBGG9htKH20yWxenY1pK6KbCUjCCYVD7jVSK8bkMSP6jJIg/wDP8Zz7q7QJaCIXJKVae3iWokocKmZnEsbDIx6WO5dxzyqZ4OlmxdK1AhtVnoYYxLdqtIfPfhjUPSB9z49yvlxsR789+dYxzsGeWNN/v/TvSllr+nfpqx6K5UssCeVIaerjkLGX+SE4MiR4dQxwWKr2dtZJ6hukVRVzU/8AulUpdGguFO0iCeAp6WKFiuTlSSfUCGUk6tj8SXVVxfqiKnoy1Cs9ntkUyeX6YbhSySBHDA8F18xd2OVIB7K2qSkkp5KWWRljD78CncuskTsCS6YG0oCMFSQckce47PAq6V9j9zk863s/X8T0sZkQbY8/pqPM8YB3Hn41wFdJEDGpH3zqJPU7jye/f9dVsgMjVoR82N1K+/trxGm6UDt+h0PjnYZBJ/76mUUvmSYPf41gGIR8RiotsYAyTxolFOVUnORqHb0Vo+e+u86rGuXOMj3+NWrkLJHwTgyJdKpQhLckf6aEvd2TCqSf0PtqXWRidfSpI7dtcqSzGVt+D8YxrCrMdTMhZHWtad/Uf1zovb4mch3GcY765/wfyn3eXuPtnU2IiGLa4x++vCvHmCzj6kqHGcEcDUzCMoOTnsNCBPIT5cftwdTqeOaoARAcg850YiuuZ5ml2ggHBz30Pq6khSp76PSdP1bR8ZJ/TQC6WyopyRIpB+cazBhKNz3bEikIcgEj5+dHAg2YGlm3pUGXainH6HTVRWyuqMehwPvxoph3ueKWgjeXc4Bz86ZLZRSqVeNDgfbU6xdJSTsvn/qQNWNaunKGgiVmQcfPOmgDruCc5gO10FRNEPO9OR2OiooaanGRjOOTr1c66npsiPAxpeqr27nGSNczkclFOF2ZfTWzjJku51axKyx4J1Cs9NWXS4U9DTRPPU1cyQQRIMs8jsFVR+pIGhs9S0nY5HvrtZq2rhutFLR1CQTx1MTRyvJ5axvuGGLf0gHufYa5pcucmXBQviV43Rt/gkMEtE6vGcMGBzn9NSIuieoKmRVaCQA8D086+g918L7JfKhbpBRQOdqrJtTBb76GjwrpEkIp7eF+MoDjWG/XiULT+Jjnp/wjuNXIi1CyknHpxjV8+HngzHRmFp7eq5IO4jk6uqx+GywzK0sAyPkZOrItHSkMPlsUGQPjSWcvqNVAsA9JdAwU8ESpAFCgd9Oo6Uj8sbsfsNHqGnhp4whUDjg67yMgXbu76EKMTexzEqu6QjkQxtHuX5Gg1bQw2ePaFcKvwM41Zhp949DDt76GVvTr16yebwmOeNYa8+IQfHmA/D6opLhdGuN0YrbLShq6hjwGKglVz7ZIz+w+dVZ1h1Aesuo7j1hI+4LO1LTHPpJyBkfAAOBp98aoqrpXoan6Ns0ZSsueyeq2gBpJXlAji/T0An7KPYnVU3Kmg6epqS2ofMht8Ekjsx/4kpyWkb7Fm/1Gu3waPZryfJnI5V3u2a8RF8QeoGtFtrPoADWomKaMnHmVDlYoEx75kljB+36aE2npqltFHb7FSs7QUscdOjsvpkWMlXlJz3dy8jZ7FwNBrmzdVdXUS00mw241N+qWd8hmibZTR/GTIzuM+8Q+2nfp+kSSKVnWKEyFmcpnZxw2C3OMhv13DXmsyxMwJhRP6z0MrXCuzIgjUhBHUIsgMzrlW2kYJQYIz2x99DupUp+mUqHu1VPfpXny0ho4qWGRVC52spITGQSuOSMHRWxXNWgWeYLtLNVk4Hp852VP/wBCNe/ydKkHVFzpbfDDW7p6KuJmMW4knJPqGPynJOPf/proUcsVYDeJJdxfdGV8wTd7LSXamhqqBTLDW1QjkncrGzKWBc5LerbggHHZ2+BpTrenaOqSaCWsjklSZ44zT5OSewDcqfbt8Z441YdmuFquki0dvq1merYx1MVTshaNOFyW4VyckekjgHgnjTDW9JWaKkjoEo2o5nQTLtUtvQnJ/wA6Kcd27+47DXTR67hlDmcx1eo4cYmd0as6VrDdoUNUohYGGILvkJGAMjnGcf8AfS54b3qnunjD1JTPQPHS3m1r5RlUpvmgT1jHsxySfsNaHrOm6KjIqaxZzCEVF+nCvuPscd/t7aSL90vTVLtNSU6xzgJiYowlXudy88MBxx7H40u3jBtjzCruKytqO1094ufX/RyVQSslLXO1yDOcPT+ZGoA7MkkZ9vn91iprqHxD6ft14LU7XujplhrqaU/zCn9Dr/iAO4fI/TRyt8Jeoqa6v1Jbb1I1RQxLCpU71CoSV3Pwd6knsOBgc680/hbT2e6fxWmmkWWQs8sZYjbvzuAHcDcc/qDqE0Gs4+pX73eVpUdJXqxzzXezN9JICo2InokbvtIz8e41Z3TXVVs6jolhqoZqa5Qqv1cDEFgR6QBj/Mc/+mjsdkQQo0NIZdrgIueXJ4OM9/f+2gN68P3pqyG82ZtlfDKJJdq/8T1ZKHHfjgA+/ftrfaEz3DGS39TfwO6w0VVWhPPcrCZRt38btrD3OOfv7al3uz2auge52QzUtXJmSqo6HZNvHu8a5G73JC8/5e+qZ8VeoJbjBRVVss9ZHV2mv3NHPEyyeWFJ3AfqCcjjGBq3KK9Wu52q1dSUtRS08sZp5YFY7B9QrcI2DwGztJ9sgnjnUz8ZX8iVV8pk+4w2qxtaLPaeoqG4R11tuStJSTLSBWVk9LI6nsQRjuQQNXN4TXSpoHhgkoo1wyNTtGRmNu5IGc5B/ftqtay90d5ofpaESJTR1j3S2NE2Flo6s+b5bhezxyNKufmMj3GmromomhIljpqyQpGQjPUqu588Z3cEn51zkRlYkanSLqyjO4w/isifrCCg6sgR/rYj9FKVVwq05BOcHOF3ew78gDC81RRXWCio4KOS2s2NreUADLKw4ihz7ktgt7A8e3NjeJk1bc7FE93VYKOjyVK1EbNM5HDOFJOFBIAHHJPxqq6aqjpHU26kEs5T0yynCxbu7H3LkZP9gNIZmAIhBVyJqH8HlrirvFGGouS08/l09Sru5BjaQIu7bngqC2B8gZ1smo6YqLU/1HR9yrrDK42rBHAa+1lgQdzUpYFBx3haPvzrBHg/40ReF1WfpbbZ6y6NSsrLW7/Kijc5O1QR5hwvuR2JxjGnm6ePfX/VBjWx9dQWCJXwlvs8P0MQx3OMb2799xGrODwrbK94/r/1I+bzK631n+n/AHNdy9c3Xpajln8UaG32inpI/P8A4zQVwelkUMBzDJtqEYkj0BZV/wA5ONZ48bvxUdUVN9a1eFV5SCxpTeU1cluzNUTE+t1aZcIqjCqApJy5PG3VO1VJ1BWXOavuMzXOp776os8inPJ8xsls/rqPLHVrEzVlvCEKfyA5zz/h4+NdSvhBP17nOfmF/wBGpW/UN4rayrNZVs4edjJI24qCOSfSMKgPwAB2wNZt8YemqlKoVNrpl+mqZHcmmDLs59W4c55Pf3+NazvdhtFwRW3RqN2eVyAw9+O/PvpI6h8HKOrEhbzA7gsCp5UYwP09/wC+ts4/deq6nq+T1OW3MSS1lRSQyw1bTum5cuUKvGueMNjg5PuDrv59DU1T1K1lYI2UMzEKZQw/qbbwTz7jGtF37wLrlaSK3XZ5Argskj9s8YweMcdtJFf4EdVxFpI4aWUBs5aDBJB5GVwe+oTwbfxLV5tRlUyU7sABcGqIJiZQXbDbj8pwMff7a6We02FrjB/FZ66GOQjENLje7Z5Azwo/bP6aZrn4a9S29ij2VmPJJhk5x+jA/wDXSvU9M9QUe9f4TXblOck9vvgHnSDTZWdiNFyP4M1L4M1HTyfS0XT0UVNbqJi00kg/mVEnYkHPCjOC3JI4GOdXnXdRxyW9jTvHmV2IcbTkDhmxkEhRhQxwPYDkDWHfDvrmbp547RdFqKammxHM8hbc3IJJOCAvwo1qqzSpdraooahFpfIAQ7SWjTnaw8zhiGOc4AzzjQmlrfE97oqOTDXUV6gsfTRjDwmWQlZGDZwcB3B+So2r8buO2sfeKnXEnWVugqkkczU+UnB48uYKFxj2B8s4/THfVteMyda0dHc6qgP1cFPSrNSpGgMyqGzICucH8xzgnIzx7ayOl+lMkzkYFSTvQkkd8+/30qvjlCS0c1wYDBkyiuNTD9SwAO9d5BHpJ7ZP7nOdFqXqKottXRGmc+YqKCRzkEEkH/T++lNZ/Mhx5gDZ4BHGPjU8V8ckQjLxpUllO7acMAO3A9J4A0woCYAc4mhrXf4b7B9fEwPmU8YGD+UbRn/qf7661mFnlkLbPM3GHPJ4HGqy8NrsKSop7c84cyZT0nICnHP9/wDvqxaiWGnhgqZl3sINuAcAt2OtFQ6zBYcxe6wrJ7RHT3aOWWEgDc68qhyMFsf08gHn31rDwV8QF6m6UoqirqaeSQQ5dY9wj85PfB55XGNZS67nSm6fSteNoNkm0SoAyqSuMOvYqexI01fhc6gFNNVUMd5l8yoXeIxlo4lGf/yjEYzzyPnv7aSKu64MZ7vVszWlyEd6hntNWTFHdoTSzCYMJWYrhAS7EgKSGx86p3w1oAOubnZKuPyPqaOW31O04wzKUwD7EbsDHvp9WuipqqGnVImkRwu8SRhAo59CKd3crkkluctjJ1XFwq7jZvEC8XagVpSlzeVZAMhoQ+U7+2DkAZ7cY1lNQbKQ7bCMNFiw1FbY5X6fiVRLSUU0IlGI5W2EsFHfb6ZGHHdl+2jV3utupa6WL6smaz08EVLUVYAKqrQ5RyOCDJvPY8Z+2lTxMqYbP4oXlbTHFHA1aJsoo3KJE8zYBj5lzx/h+NBa+5pcrq1PVyfUJNIsVREjYM0e1QXHGASoXkYH7657V7ltdmBLBjorrS3mGrvNNJ5VoesvUbxyh1MZkMMmxjztjeQqPgg+3cnR1NvmkiivhNPJJaIYpXwQ1LIDFJyTkITuwRxyinS9R3ysv9fbo6jz9lDUxUKTRMY4jTyGGTLZ4YPIqnGOeR7nTJuMyVvUskrfw6WjnrR5aDOPp4vORmOcsTBIAP8AEh5wdLI/MMNnxDP+2Vxu9CJ46WLc6y+cGxvbcUchjghh/OYgj3KjvzqV1Hca5upenbpR1LQrW1VLLWCVSRBPGu0yAAH07CGxk5APcjSyReIZKCKmMTpS3CCgLIruRS5SNpxEew3REMMceod+9keFlJFd/E7ordTyQRC5fRvBw2GSpVGibPBCkrj3VXU9jokqV2AnjYVyZm7x6uh6o6ouN2pIrcYpKlo2mhPqqIhIxDqCckK4lTIGDGY8hSNVfLSkJvOSe5J7k6+xvj1+Bvw38V6F+oei6Zulr7M3myGljhjgqc/mMkRUIWOBkZTP+Idj88/GH8J3iN4TXirsV4NnraqLdJBBRVv+8VcAPEsEEiq04xglYd7Lzkelsd2rrWgScW3NrlxM0TwkOTqJMQOAvYaZ6y0SgMVTO0lc/cdwfg6X6ymaPOUxzpuIkSAHYNwcfbRW2bnlUjt76EgMDjOCe+jdiUF1P/fWBcmaW1GakDxqANdXJkXDgnUqlpWqAoX47jU2aijp48smSB+uqwmpIbBmCYqUNwFGBohSxqgB7Y76ieaRIRjAGjVps9Xc+ERsHtjRrFMcyHOhb/hEZ11o+nauvwdjAH4GmKl8O7oZhIZmCnkgjVkdM9OUlBAGqVDMO5I1oX/5TMnwIgWzw4mCLIYyR7lhphoelKOgkBeNWb9NONfcqWmQpEFH66W6u6GQts7/ADqTkctKtLKKuO7bM7zw29YtoRQQOONLlfaqSocnYh5+Nea+rqWyPNIx8a4RTzYA8w51IOazS1eIBPVJ07Tq24QqCfjjReC0xIwbIH21BheoOCXIGiEMyDCsc8Yyda3Jb6hfwwhemrILemWweNcarqSd/RGxGeANCq+cbMA6GCb+onj9dItvdhjMP2FWEKipdyTIxJz76gNJ5jZ1ymql9jk/rrgtQfz541JiNXAhKGNW9R4xx31xrWSnGQf/APuohuSwjLHQi5XcSHYGwNadQxPpJ4edSWq4XQ2WKohYxhRhTnd++rWm6fp4pVKxK0b8g47HWEOn+tLh0ze47rTzEFHB498e2tl2Lxbslz6UprlLVj+ZGGKn+hgOQf00jjMtwIMqvRqcFdw5cLbHSEMuM442jXGjSsl9SpsReN78A/p86Rb9402artqyR1cB2sQwjYFjj20w9Ndb0XUtoV6WQMQoMRY4/wDn30/ovbGYgXNjYjLLJNGoKZm9tqd9SadmAElcfLUDJX30q/7RUNmp3lqXSR+TnIBz+mdVF1R43DqOvnsVnrHpgp2SSbsMw9wv2+41hVRM91m0BLn6g8Uejuk6qNLhdqeDf281wP8Arpl8OvEGyeIVzlorDWw1cduh+prHjO5EHZFLdss3t8KdZXo/CPp/qivFfdaiuqGJ3F5ap3z+zZ41pixdNWnwq8P4+mLW0NDcL4yy1k2ApgjMZO5vgRwhm/8AMw9yNOpRy/7RFrArk+Yi9e3J7r1PVX6plgliYikt2xifX6hJMSRwFQHH6MfjVL+I1y8q2yR0D+ZW3icRU8cTEyCIY28D2J2j75xp/wCqOoqS+xQ3a1+m3VKijtMag/8A7KnpLAYzltgBPwGP9R1RvXVwlpLh1Bc6do3/AIPTlouSWkrmPk00a4P/AOdkTA+FJx2117GCVyOtS7YMDdCU8FyhuF9Kjza+uMNIGBBSCmBhQj7F/Pf5JI7DTrdKmKy22WF2wxpxTxgjgl+//QH7Yzrl0XYVt1HZ6WB1EFLRrGZAPzkEoWzj+piT+4116m8mWaP6kKiJX+Y2T/8Ak0DLjA9so2ucDlty3HxkG+Urx2m5UdEhleCnii/lc7WjjV0A/UFj++kZUekFHSD+YkdA1VL33Rjy35x7YCr+/wA6tO21U0/RfWl5qNrLVJJiID1AFdv2ORlf9dJw6dm6hi6muscioopVtYC9kYlOQeRgDeT9iRobHLEiGtYABiPFbZKiGatVSiZRs4LbSQCMge2COfgk67CK82Cuoq1K41VJJG0kULuzYKHZgEducnA44GRp/t3TzR0MlMgwxy25lBB3KFX291UYHtkaHS0IlkndwkcVG8qwxv6eYgATtP5QSQOfcHR12GtgwOID1Bl6mF+mOs3mtSRCaOekiLRLAMJWIdvp3MTtf+s5AHA99cFoJr3aayqEm6L6vy4FVVEjKFb0EgBVbJ43YOeDpOv9riobaZo45PLqownmZx5rR8MB8AFwM/H76FJ1pLYpIoKuVp0hPk+cRvdXxyCDxKoJXhu23IIOu3x/Ue4xaP8Amce/gdTmv+kYJKNKWlSapjSlho6n6eKKUbXYkKUJ9i3qONxA7nvqXT2iFS7SxxSTlyrMYFJUg4AXLexJ5x35yedSZ+qrR1NZ6iGrukUPnR08onjRFQyxsqY2sCwbDKcc9u+MjTBJ05QTU815OUq5kjd5vM9IkPBYKAcZx24Hf51eCreJCQV8iJ01phijeaapWZ48hQI1URY/w4GP7ZJzoI9nhp99TIsixzcIMqpfk9+OCfj/AL6afpK6RsH6OQ73/JC3G0A7sk4BAJPAH5f7R4oJKp2neZ8RvjfFChAIz+uM4IyM9uPnQmrOxNV/oxHl6Wtlzn+qqLdFLLGhjR5TggE52kn9BpJvfgxZZ5GeimuNtxIsnlw1zGDcDkNt5AwfjA51dhtcJkjlE06oRubYuA647E7ce366/JKWNpXiVFxjKjYpOMYwOP8ArpDJnzGq34lX9I9JXLp6lit4nhrYRNI6xl9pKE7sL7AA84z7nkafKGe30Eiz/wAM2c7g4doXUn24bB7H9MDjRKn6cluFNWG10MhNOoabKhVjycA5B7c4/wDTS7NbauAHa/1UOdwCPgH9c/pjuDxpDVgnYzKltIE/fELquw19oq6WS9SirVT5Pn1ayIr8HODtBJ7bj89uNAOgr5RXONWqNjzwocYJDkjvgDgLk/Yn5ONc7laP45I0HlROXOTHKMbRyN27tz31AsfT1T0GbnMZYBQtETHHEVysgIGD85JXHI7HUV9IrBsWU13GzCGNcVm+ogN0ZyWrJvLEm4F3UHAx+yjPPcn50Vra652NIWetqIoo50glipQNzvt3sBuyDt478Ea72ZKGomtsdfEUpIbdDNwOzOMlBju20g4/U68Xipoqy52+nr39CVBwUQIBIxJlLEeyjaPf8p5xrlV3Mp1KigYbhTp7xLmo5Vob6wjdwGWaCPKupxjdGD6WJ54zx7acbb1rbbhuNJcrW0y5WSIyNGyrwclWH/bVc1VnNLaoLi8vl1UhepKOo3YOcHj7nP76XbT09VX6GomemXHmEF0OCjqpJ3c/tx9tdOv1exB89/8A3/WQ2em1scro/wBv6S9olsnmrNSwNEWJ3gMkoYt8gnd89hn21bPgx4d9BdWTSVPUFTTVMVMTK9KoO9kXk+hvUQAMek9tZL6drOsbGsswu8kcjbRHFJtmSRSWwMyK3sp5H31ZPhv+KG59IXe+WzqnoujvVugeKgjqLfL9JL9QFDSuVcOj7d8S4GwBgc/apvU6rlKjIMUPT7aiCcER08UqTo83yph6c6eoKW2QSkQzRU7QTy7jj1bid32yc8AYGq+ltFFLVLBBWJKSWJXYCFAzk4yDwO5510PVPRlxmlloeta+1kOUFPcXLx5zzncCO/vnRyksNbufzb1a6mIBWBiUF8HuyspHHvjB10aHrZcKcyG1WU5YYiTdOkYq5WpmpYZZwMxbD6wOfUM8g/bSrdOg6Jn+nlppd+31vJHwCAP/AH7avIWeZ6eWaWOWZEQqHGJHk57YwM5x8j9dB7x0/VwskVP9WrgBWMkPoLNyqK3IB+QT8af1DRPbEzf1J4RNNSPLSRo8kfqAGO4H3/b++oXRXX1b0HVpRdYRTGCTa0EsrYUgjgEkYOP/AIfbV33GgqoZ/wDerax3tJ5h52Kc4Ckgkdh/fS9erBY7hB9HdreyhyBslImRl47Aj29sYOp34yna6MevIYaOxC9ik6b62thq46mAIUOdoDxuec7hwcfbOPtrO/iT+H3wwpKyessd+prVJUSgrS1L4ptxGdscgyUyeQpyB8gADT1c/DTrK1tLJ0hXPV0Cqc0EUoTYCRgqrbW4GRgnBzoH1r1PZOnrhbL91b01eU/hMfm26FqSTH1GDmSTC7Cwz6QTgd/jUN6Mv618SzjspOFMpW6eDVdaE/3+0zQxn8soXcp++5c/640t1Phw6FpKaolXB+AR/wCurX6P8Sbr4g9ZVF+u0kcFsjQ07UzzjLhzy8zE4GB88D/XTDV9LRGZ2pSk0SsQpVx2Bxyufng9+RpCVdxkiPdwngyirDR/7O3SCpuMpSCBg7/MhGML9l47asyC5/Vzp5EiyIY1KlTgH37/AAM86J1/RdLWIwngQtyG3cdvj50uv0XcbXKJ7HXyR7RhYZG3R5PuPcdtb7OIItBhqssdBfrVLZKuuqoo2T0SwgARsO2dxye+D7Y+OdAfDPpzqzw766gV6KaooKhNrVUEoRHUnuxyQSB7ZGjdq6rms6GDqay+QM7fqFy6/OQB2/tovB1HRyyLPaquOaE4O0uMqeScr7fpoWrXrkeYaue2DL2s9Gau3pcYZodysxSIxlfNIwQrON3pHztOTxnuQn1bT0/U+2rCbbpDHMskcnDzoBHIgx22n+kexX2ONePDnxUpadRaKmUeZDJ5m4ZDljjJyR7j/oew0Srrt0qaaprqq40c9LRsKmWCIM0kIxn6gEYYKyg5ZMjAORwcJSoq+R4Mc1gK4PkSu/Gy01Nvvtl6mpYGkob1bEgq2ycx1UAEQz8elUz/AH1UQqa6i6hhro1kmjJ8yFUGC205aJvvtDkH5xrSl8oor/0bJbaS809XS1M71toqZJFEsEwT1RNkYeOQd3ByMqxAAOs/9RW97U7Ul2pJrdVKwMfnp5ZkPHK54cY91JB1JfUarDrRlNNndMfcsawVr3GSXpo1rwtHDFNTVNMFxM2xWUMT/SSFI9wSR/UdOtZcrdXWs2bBgaqWOEMi58suZMSH8oJyGJwTy3I51Rdq6kpI/LIrhBUNAIMrgBZkBXH29W05/wA49u1lWG809VbGkihp5nudvWZN7kDzY2bzELf0krKcfGFOMc6gsTBzLK3jXTStP13/ABS2VrU1OtWiSRoSNhljwSN3BRpGYZJ7soJxyHyxXKt6G6kpK26U7z/S3Sklr2plbeI2CstZCijcxb0qwAz2B/KNV705SWmSyS2e4pNOkEolVTKFqI4pFEcqMftgH75B7ji07epqI7XdJqEXupp4/JqkqZjGtREJCSsnYIGCHnIwwUg840pXHiNxNO9HfiarBZzcYq61VqwTTi6inppmKSIxO6WJj5kIZAo3guikNkj2ua1+JPh54g9PUdTf7jQKteEnhpKiQlEn2A/yndVeKRdwwy7W3EFDyDr54dTXm19MXNP9naS522umCsq3N3qzJTsSdolLqFLYGAwk2kA7zwdK69XXl7pU1ES060P/AO0GnfeqF8739KudnIyQhAPcYPAYORbV5gnj1WmXt+JH8NfW/XVwud6s3Ttnu9sjnWel6uh31tzWm8vcaOtipEM0zK5IWoaKSTYvrY5GsUdfeDfVXR1QafqTp+po1dzFFOYyYZmHOEcgerHOxgrj3Ua2X4YfiT6w6Tqw8HXFbc6abZ9NQS18UBiQ53oyOhDvnb6yMnkjGdXN1N4veBvixapaTrymhuNDVBPq42dqabcwKb5JIN0dQUXaYyyZRlGGB51VRzhnqZNdwSNifI2r6Skp9zFDgakWu1CORfQdbn8RfwHXqpo6i/eC/UsXVdAjMVttxjFFXquM+lziGowPcFCfjWUqzpC92e8VFnuNnqKKto5TDUQVEZSSFx/SwPI/6EcjjXX4713DKGcnkI9OmE4UMS08QJOONQ6+raVhDCm5icDTVSdI1Ew/3hyOOy9jo3Zuj6WmmEkkCZz3OqycakYQkxPsXRVXXyJNPDtTueNW30p05QWwKHiBwOcjXTfb6CIAheB2GoxvJYERekfJOlWclKtCNTjM/mMlzntUcZKYU47aWKq9GPKwDg++h9TXsf8AiOT++hFXXdyTwNcq/lO58y2uhUkypneZt7SZJ9s6iSzheFPOoP1+4nGvx5l/qbGRqAkkyxRgT3MokPP7a6U67McZ9udQ5K+FPSpBx99eUuUf+L/XTUwJnb8Q4ZkVMbR9tRgZGfO04HHbQ4XOPOWcYHfU2K706x9gTpncTQcz8qGlJ99RmQgZZ++dR7heUMmVYYGhM19HIGT99JLiZ1ZjCMjLGS24Y0NqrmEyu7nUOor5ZVJUEEffQicTyuck40PfPiH7cmVd37hTnQmWrldwxJ4+NdRAd2HyMHHOu30IIyV1nnzCAmnK62eZNHOucIM4A412ufVdbbKAW6jqZgjKAUDEAnQ0dW0yHymfsPjQe5XGmrpxg4B9XGuZxiync6dxVx8TCVqqrtW1kRiLKhPO5vn51bfRvUV16St8lPHUiRg5ZC57A84/TVY2d4oYxIpweCMaZLVVmrlYSHO04GrDb7hCj7kppCrkyN1f1r1LPU1MLVLskjtkntz99L9opaqeUS7Gd/nHvpvr7VDWTBJF3Z/0039IdDVFVPBS0FK089RIsUMKDLO7HCqPuSddOrjpSMnZkDWNYcDxG/8ADd0hUdR9TSXO7moWx9Nw/X3EtMypKRnyoPj1sOf8qn51M/EV1T403K+rSeHnVNtjgv6lKuirqZZFhjYJHNMd6EGIbg+zcDmIEYKg6tOGnouh+noPD+0GOTyia2+VaDIqaojGxT7xpgqPnbn31TniBUV9Bc1ucsqK9a8dEgdfy0ysGkP6MXZfuP11cKwq58EybsS0hQmChpbTQWek8q3WqkgoaRFjAHkjG4gZwu7AJ74yfjVaX1ZbnfbRZ45C00LNfq/cc7pAxho0+OZGqJgP/wB0p9tWA0wW0ed5jItUTIzMQuI2LtuOOy7VGfs3bSb4X26S7wz9XPHukvtb9dTB+60oXyqYfb+Wu8jnmY69edYMKoR8jpae0WdGkbKUEMeM4BkMY3Ngf+YhMaBdTdOyTTikjcFqS3t5jNjDPnGWPsCzOc/5Dpgkp5a5rfQQkYmnmmjJJx5EBHqYfLTNFxjGAdT6GlkrJpmMm+OcxQyMygAxKS0jD35Ix/zakUEmUkjERr+n0HT9RZ3hEiXuvSLsNyx7lc444wEA/cnTNarfPBbY7fFGVd3BV3Qbd7LjJHyAxPP+E6G1sMt661pYKqD/AHW3yvUMuCBvb0bf1xu49gNM9zuEgugp8JMkGAixuAXlkG0Kx9hgsf0zrwTAzC75OJCh6YjmCVZm8qNamB4YTMQUi4ByOwIUE/8AN7aR620QPVV7W6kSmpqljSxDzD5jKJFbJPO4kvjB44J57Gwb1cYIKuOniTcsbyTVUoQAsyrgJn3UDdz9tD0Smgt6Q1mS0pWWUEE+vcXYf3O340DDI1NOpXPWcdHPUWu37VWGJpqiVsDDZJLY9sHC4+/66rq99LtOKQrE6zT5Yn+nLcnA+doAA7ZbP21ZfUNJLcq5JqZN1NvCCQKC2xO7AdjksxAJ7KNAL5caOGuFbb4HeWNFSISYx5ryengdhnaAB9vvgk7KBiIYg5zBdislP07I09HG7tbn+hYyf8OQmMs+R7+tkGR7ofvqw6PrzpXp+xVBudvnk8mMp5cajaygEk5PvnbpMubT2GnSlNQJZEjjJZuCzSKCTj59ZP6kaQerLsJAYHqJDRwuYUypXdtXkd+QccnXQpuspX4yK2quw/IS3rB1t0t1TbpY6eWKOoVGSVFcI6ErkYz2Iz7cd9G7ZbLJXU0gFGW81VbzF/L6j+ZSO3IOePf76yZNCI0muLuzzVDbqMISFaViqoXBGODuwp74OeBzanTvjVX9G0lJQdTJPdjLCFknTZHIpLEAbeA5wDg8HnOMY1bVyuww2jIrOP12viWnUdOU0Rih3yqzts8to3MgYj3A7DjuDj30Ie01PnuxaeSIApvZduSCQQucHPA/XjXqXxf8PbjR000PUrRNIUUGamkUowODvOPTgE5OcD76J0dwhuEAmoqiluFNMM/VU0gkV+eC3Pt+mdWBxYsn6lDiCaX6q1w1caAOKmLyAJIQRtB5ALE5OM5HvpbNvp/qHiip4oWCh85Vdw/7nPzp2khFezvBGiujBGOSWzjPIyCD+3voBU2urkxA4TOwqsasGKE7iGZXGW9j3GpyB5EoUnGDAdOUp2M7Qb1eRqdpDCSxIOSDuO0Hkcd+fYarzrSSW4dRQ9PUlRC61VUqbBgeUudpLbe3LMP241YF56aqJWe/3iZacUZaoZVkfMCIMsQUXac7Bgn30hdMb2rqzqiqr/p6uqJ8nI8zMJG5tx/Q8n51zuc+FCyrjjZMdaqveGsooDH5LUrCJnjcMm1RkHPbOBgaabnabfZ+gpqqu8qa5XyUQ0UZibzIk3CSeUP9t4AxjO74GkAvPWyUtFSN5qSzoC6uFJBIJJxxng/pjVj9XVNdJVUVrrY6apS2UavBCgYjzJCMbuMcqCc+y4z3zrlCvAl6towbb7XLcnobdJTyiSanWeZZG2sATlSe20djjn0/rofS10dBFV1sNdT05YTuFWUZK7iP1ZiSnHJ5PHGmSna5y9S1FfV1qQ+bTvSr578+Uq4yuBgYTef7fbX91fTWyspF3QQU5RVECpsjcnALKG+wAAx7nSXGDqNUxGNwrbRSQ3+7VMFatLS1FR9ODtR/JiYgk8HO1SoGQfVjucaldOWmCGgtdHUTLJK386vqI4yxeV5C88gyOSZGfAP+HAyBoF0/HR3Gvttmu6/RNWVz1tU9Q++mkt9GnnGNlI7vOtOm7PIdh76O9T01db+obnLFxK0rVQCL5YQPGHSERjjcC+AAABn7aIIfEYSMZnOvqemHuRFPSyxwS1IjUSsH3wNJkZPs4TaDj+on4Goct1ntVxzTXSeCoiE9QIBzGQAfLVvbGCCeD2xorQUVctrQ3yKaOeqkKwxLkOCmBuI+CRgE5z3HfUWrpFrOoKstIkUGGVEKhsKpCKMYyxL57ccc6DuUbIMHHYYMndL9e9T0HkSxUpqI4YV+oKSGJjKT2AUgHuPb4zp1tfijRSMyV61VKyzFZHaQKI5F4IZOQexHIx3540l0NkM01R5U8LNEwQqwYH1AAcD/ADDPx6e+oc1A19krIL01spZlnP0tWiss2AcAyPg5UgZxgnJ1fR6xfV+o9h+/mSW+mU2jQwf2lq1fUXT9TVORUQQyyMwBK4RuQcrt7c55xqJWx2ioKA3aMAruUCqIUsR+YKy4BI+P9dVx0/0k9wqoaOK9sasJIcJT+ZBGFOIgSgyWfBJBKgBR840zDoenppQ9860WZghnzRUpy64woJZlQZPHAPJA99WH/ENQ0ymTD0O1tqwhgW76MbI6vMbockFJchsc44PsDxnsNRGEggMNxjlOSQZUGVdcDb6TzrxcfD+vraWCp6b6wEsvO+nqhEu04wFLBl9RbtkENjj3yEWo8RLdVraKutqqmcyjy1lZUCIoywT1FHUAHtkkkYwTgMT/ABBxX+jAb0Tkr9if186J6GvBR7r0tQ14dSF+oolL4z2Dg5YfbOdL9T4f2+yQyydN2eGrt1Om5qSmY/UQtkg7FkwGHbI3AjB5PABK5w9U9OIla8dzhpKltsVRPBCFlkUbs/BO4cgDgEE9uYlJ1B1fdXno6a0RLUqjF2eFYQHQ87pAQoBySHPfBHcY0f8Am3BsGc/2gf5bzEPUD+852/pzprqKlL22rR5FU+gMyOrZ5BQ+4+B8a4S9CpMHRGlV1OxlZzxjn4+OffXW6UPUd0tldV1FjuNAbcyyl4pXjaIk92DDDD3Ptgg8ZGpXhx4kzXvp6nrr1bzLEJTAk8cmfNVmKhyp4LZ7Y9gc9tEvO4bjIf8A+5h4fKU4KRYHhnZKtAk13eKRn53up2g+3bBH3+eO/GlO7fh+s1RWM9q6lCVa5O+kZGyCPcLx+vGr0uEXTFfTGa3moeSpd4h5VM7+ZIDghkU8gED1D3PfSrcLXbqKFrtSWnyzSBUkMe2J0YsQXwp3DuOcYGOe+dGr03HCsDBZLasEgiUlU+DviFaJjNSSi7CnJAXAjmKnhl3Zwc9v3Oo1w67qumLlT1fUXTN0p6im/kqDTHakXGVZmGxlPIxk9zq/+mL6ste1suczTBBzVAGIJhSTufsCw9vfHbTF9PS3O4fRUgoq9ZmbEUsay+YMe4GVzj++daK0Bwp3MNr4+Q1M2W7qa00dO9DYZRSQ1jR1VNbpt/00+4na9PIciFydwAPAIK5xxrvD1bYLpborRdKKiulhqah4nimAUUh7uNp5icd8ADBGRgcave4+FHSt1Ct/sjTxTEYY0kZhKgEnDIpweSfbv376X638P/Sl0aMXSz1FZBsZzIY1PmHOQ7bdsoZASAfV3IIA15qSdYE0XAYOTM3Xbw46ZutRPV9D9RfU0y1BjFPOAkqE4UZOdrA/lyMZ4450W6a6e6tsUNXSVU5jXETKgp3fzCBs9uAQhOeeRkY1ei/hx6ep6SSmsFfNTtUxsZf5om80MoG0gjevB75GMg9wNPdD4f3Skp4aOSSKvIcgSzhSzqvZWYd2Ax6jgkDU78NHGCMRyctkPmZ/o+jvEatEd1or7bmaWE5AEqs4K7BkFTg8Dv3xzyM6deg7v419AXClnioK7zqNX8iekpzUxxQvHsYSomWkgznKHDAMdpBAzc0HQlHAJJK61xxyo7sdquMKR6D29+RnnGO4506+F3R186T6utF66faO9rTyMVtgQQVMqycYSpUZPGD6wUOMNgE6S/p9PU6jU51hbZmOusfEbr65V9f/ABCljltpZZKaO2OscUMyggSMirHGz4yC+xWcYLDduJHWTxWpaGuZOojNRvu9RqKMoj49t44Hv3JByRr6ddQ9Sfht69pWi678PrhSdSQ+VT1NPU2lbXdEdwcYIZRKmR/xAHjJIAO4hdUzePw0eDHiNDfK/wAP+o7RTU9op0qfIrbjBVyTROCzOPpV9AXGORJ2fJUoRqFuHU+icGWryrFOpQPT/iFZa6FaiNrVP5mAsqQrISB2BHx+/wAZ1YVlp7TeYHFOtMm9xKYAokgJ98ZUbDz+v31mXxN8JLX0J4lv05RYoa6jZBI9FuiYSSAFdzZ2upX1hl4KlSDhho/0qviN0vUxT2XqlaxyQTT1yGRhxwCwAI9uSTjI51yuR6ayAtW4/wCdTp8f1EMQtizT9uvnV/R1WJLNWRvFHMkwoyzPFwDnyjKSsRxnlWUc9sZ1afUfRfSX4h7bBD1CbXbOrhFE1JfKV0nmMQVN0VUqMBIBuwdvqQjIyMg0l0R1tT9Z2dKxRDHUwuYayGNiDFIDyMj2PBDdiCOx0TdXss0tXZLpPCxIcZLAOQeCxU4OP8RGQR37jXIo578d96YTq3cNOQmtgyqOrbFc+gb9XdKdRW2eiuVvk8uWKVNpweVcfKsuGBBIIPfSrWXaZgRGwQa1r1DZrX+JbpWLp6rmhovEGwUjSWmvmkBFxhDEtTMyj+bEfzK49cblgVxu3YvuZqbdVz0NbTSwVdPI0U0EilZIpFOGVgexBBGvpqPUf4lMk7+58xyeD/Cvj6kmatlkf+YxI+51+m4bVAz+nOhdLHcblULTUFJLPKxwFRST/wC2p8/SHV8LKkvT9cS35SkZYH+2vM8AKTI81wyM7uPnQ+aoLHGTjTf0p4S9cdXXqnskFoqKITAs1RUxsqIg7nHc/ppr8Tfwq+IHQdh/2nttQt/oYlLVAp6do5Yh7tsJO4D7c/66WVJHaFjeJUBqVhUnkk86HVV42jAk5+/xoZU1UxPls7Kfg8HU6y9C9XdRL51m6euFcp43Qwkj++gxHKshSXCaU5BwP11+JVSjs51avS/4X/EbqBVeoghtqsP/AMqd7L+qrznT7Q/gqvBh2XDrCJJX5TyqQlc/BydZHBZm41UrHJJwfvrsk9URjccfbWm+lPwS3me8mLqLqGJ6FTlfpUKPIPgk5x+2rTqvwSdDx0gSKhrY2Ix5i1L7v15yP9NZgnxPdQPMwhIr7uWP7nX9BC0sgjUZY8DWx2/Ajb5ZpHHVV0EQ/KggjJ/Td/7aQeofwceIFru6p0oyVkAyd1Y4hZf3AwdeCn8T2hKWXpG4NS+cjQtxnbnBGhE9AYtyyRFSPYjnWoenvwzeJ8x+lu9HQ0jDhyaguMfqqnVw9LfgAst/oBV32vrZJmGdokCIP/KQM4/XTK+PY5wBAstrQbM+dLqUfBX9tdi2F4U61h4xfgT6k6Mrvqun62JraT6jUuWdD7D0jn9Tqt7L+GLxHudx+jewzJTqfVUEjDD/ACjOTrzoazhpiEWbWc75YpYB5wVvScMMc5B17s9kkuUQMXpf3J7Aa0r+Krpqw2a+Qz2q1wUr1cbPMYxgOw9yO2fvqj7GixRfyxjc3P31zLQaXKfiXVYsUMIJqKG629gIhKyDA3gcaJ266vQEFshickasClpoJKCXfEpwvHGq0v6Kla4UY511PSkS23YkHqDulejGWm6iSSZJGcfudaN8FK2aCyz9XQhBLJI9toXBGYm2L50q/DYdUU+25z3xrGkksiuNrkZPzrXHgSi//TKynGS6VEjZOcsZ5cn/AEH9hrtWVAMDOZXYSuJYqok+0MMedIXb7RoOM/bAH99Vz4g08t5r1p2K7miUxejd5e4hmfHfIAXtzxqw5JHEdUwYgrSKB9sk5/6DVbdRkz3xhKS2IOOfnAP+mmYz5mCV34q1cVdZ2sFqkaF79LF0/TPGhyI2H86XB9xDHK32wNOcdHR26BaCih8tVVUiROBHENqqi/oMAfcaQrRLJX+IHTNPWOZY6da94w39LFIVz/8Aa7D/AJj86s6oVUiq69VH1EMbyRuedrKjMpHtwTnUlh7HcpUYGpEtKTfxevuLLtp6FP4bRe6hEY+Y33Jl3DH/AO7B99HbTClvpJYvqCWihVnLnkllOPV8cf8AXUO0qEsfTdOgxHKkAdR/VujLNn9Tyfk6832SSLoO8VEblZZPMVnHDEZPv31oSZ2MT6G4RSvPXQLJ5lUj1ETlsnaT/Kyf0YP/AM+idmFXb6v6ivlE1T56ozONzDCYGSByQMYH+f76h2qjpXu1GjQIVR3RRjsqqgUfoB7aPXACklpZKcBG8yplyB/WE7/rwNC6w0bEE1izeTJHHNH55lCyNkE5aQZXA+wOR8HREjcsjTzD1Altw3YXHr//AEc/udLNlnlEdCQ3JLMTgZJ9XP68nn76YqKR3km34bKYOQDwTz/00kCPzqLFxNPHapGpIGiaVZp1VXwVKkRqDjsME8/5RpRtrVdddo3ltb1y25FdtqkO080QCZdefRGQef6pc910+ZL9Q1aPyogKBT+UASJxjtpM8x16LaZW2yXKrqGqpBw0pMr8k9xjaMY7YwMar4dPvPiQcuz2V7YiT1/c0pbbdahnrVqqR1poYpXD7UUgsw3ANjkDOOMe+c6qatuf1ERiYnzMCLluDz6snv2z/wBPbT30zRR3zqeksN4nq6y3i3SVf081XKyGZpQjMctzleMdsaJdTdI9LpZTSx2CgjSmjqTEY4FR12hyPWAGPI9zrofwuVyDqc88rYGJXcjURsdKtPUozVEnmySxvuUMN6KwA+AGA+750v8AVVfLVV6U1PUvsEqCNXwcKowAT8jk/uNQrLEsFupYIiwSJSEBYnGV5799Rrqxe5xxudyhlUA88DAH+mlKgWE1mYz0yAULYRGkLgx+b2RRk55OCTzx8DnUC03C52xprxR1TrUUrLtj4KvIPyhk/KyDDHn/ACnjGvDTzGJIPMIjVnAUcdifjUeB2+jfn88m1uO4Ltn/APxH9tZ0wcieL5GDL26S8WembzSwRdX2qmpK0Nl6tATE7fJwNyDn2J7e2rBp7bRPTwV1jmiRWVnSaF90RycE89vbuftjJ1lGmJeohYnkn249s+366YrZ1DfLLWwrarpU0ySModEchHG7HqXsf3GnGz8wEXPiWn4ri40HT8Fu+r8wXmp8p53QAJGvq2tgnO49jjgDSXYrfHPakinaMDazPl8COLPJLH5xjA9tEfFStq6+6dPUdVUO8Dyx1TRg7VaUbsMcd+547aXPqqiakghklLI8kiMvsVHAH9tc+9TY5zLVwijEc+lbVJUo6ecyqsBI249LE5z8gbR/ZtWDTmOmoVqPN3zVausbytglHACgZ/yqTj7Y+NKHQw8y3y7ySTE7E5PdjtJ/txp6eipVqKVhAhMaKy7hkAkBM4P+UkfvqOxdRqHJi7frdHDcbXSrO5anhaP1DcZZJCMkn2I5zn4GlzrKqmRoreKzfJUNH5CAkk7iQxP2A/6aZerpGNwpgTnMqZ475Uk/66QLhUSw9U008bfzEicqSAcEEgHn3A0n28blAb6nHpWOrretbsI5k8mlhWyBgxwBky1JyfYHYp+6gae5qBqGf+JxyMwZ0LiJsmRmz2PcAAfbOO/tpb8AwtTG1RUIksk1BUVDs6glpJJyztz7k/8Ap21Z1yREtG1EVQJgBgAcAHA/TXmOBCxk4iUsN/u1bRCaVxWTmOnhwN4Awp3EdyQDyewzodezU0FVVViTwySCqWCElRs2xHJ4J5DOXOPcY1bnTkUUNJTV8UarUQ2qSeOQD1LI0hBYfc4H9tVTcqSnqamkp5498cqb3Uk+ptgbP67udSu+47GBBts6gq7u9fdrRPFbZqMxuw3f8XdwcYAHLZOCB7anU1yqaSnEIWOUBRGd3rwRywI9wS3/AG0q0lPDSu3kJs/mBu5OTuUc/Pf30eiP1UFLU1GHl3N6iOeMf+ukt+qEpJjTDdbhZII18yqpnrVWWQuAWLMo2goAFAEe0HkkEkcdte6auvFRNT0lWszpxKZZVVkiYE7WOAcEttJY88D41CvTtFFDVREJLIrl2UAbjzycf/M86BNUVAYyLPIGldFchiNw9Rx+mpycnMeWI1G2a53C3AS74CoY72jdZvOJGAHHJYNjueePbGv6g6rtlyRairs9FCkYNLCaZXWNsyBn8yEkklnC4KkD0ffUGNzTTSzQYR4kLKQBjO3HI7HueDrvRzTfwFLgJnWojgURurEeXuHO0DhftjGPbGg0Rkw0LZ0ZEuVI9xq6O7Vt2mWKmk/3eJRI7TgOoZFVj6CVUZIAAUj341zud2a/LDRXmsulfUmMT1VNBWFYniDAeYFxlAqhQF285ydRmVYJrbTxKFQ1CyNxkswPBJ7n99e6imgj66uskcYVolhkUjuGJTJ+/wC+vCHnIg/xL6tqLb0ld7Ks1bK81G9Nb5pFO9zM6wqno9KRqGLBSMjB5GcaLdD0Np6c6NoLdDRrXeVTE+XLCsyYTA37O4O9ic8dwB3OK5u9RO1fbaJpWMFXeB56Z4k8uNmQN8gNzj5Az2GrU6XpKWrg+vqKeN54ZI0Ryo4G5hyOx7nvp7jrWBFoSz9oep+prdR1hhee4VNa9M2+aBfJjTYzf7siRgGOPO1mYEFsAewGkcXKKGvSsSmX6tWd4pW5QqSQQVbupB5B7ZGidQ6mip3NNS5qKpo3H08eNoRMKBjCj1HgYznnX7NDF59UTGrGOPeCwz6iQCTnvxxz7aZxLDx2LJ5g8msXKFaDLlHZKqmBuJq5GZQBFTttjyRxwOdwXAz9hrtQyW9EMdyttTsO14juKAelgAAoBLEAkE8Z7440wdeWm3rQwPFTiIhTjymMYHZuApGOfjQmelp6uhqa+qjEs9OIljdyTgej27E8nk88nTruQbvkfMRXR7JwIYlqema5TbT1BWiVQG307NJNjH54yzEEEELtbCjjueNR6Wjv1up1msr3a20ggk/3uvmaRPTjDgMGbO0FsHAU4HPbQHpqtqK+5SUFSY2gUeUEWNUAUMcD0gdsDGudhklrb/MKmeV1KmLb5hC7Iy+xdoOMD41Ottlf6WP9Y9kRwOyiM/Ut9v8AT2irqFu71cf1CQQyTQgTNM8iKBx2KFySASPTzxyWelul2WkuNbcZKWGjjV9nkwRv22lON5Y5B5LgHv8AYBKux+uk6fkqkSRpJo2clACxEUmM4/b9cD4Gm+0UtPSn6eKBDFVx1E06OodZHQ7UJDZ7DjHbTf47kKunP9TA/hKGP6B/SSKibraKmSa09RRV7lMUrx08cMjSfmO1HJEybQThexHIxr+fq7qq0XOhnourYqWpq9uyWkhjVY+x3MpUqRwQSQcEkDtodTOd/wBZsjMi4iVTGvloo3AbUxtU4A5Aycc6H3OUmGml2RCSpUea4iUM+4ZOSBnuAdEebyCNud/uZ4cWgHIQf0jz1f4heIHiFCaTq7rVL5YKO3TPXU84iRUilOOXVELKQMbsgjYODxqqrLZqNrhRQVkVzSAUxnALhDGDMcKhHZjycjGAfc8aJdS11TL07XiZkkUMZSkkasrNlUyykYb0u3cHvnvzqF1xLLT9D3mpp5Xikgt9SkZRioQNS+oADgfmb++pvfdwFJj/AGkQ5USiXqLn1b1BU9TKZPKml82ASStITEP5cSLnkKsa4A5wBjVu2GFrdYlSbbFVVjFzK2UYhlwEzjGBx3+OM6CdOU1OnTtDRLEvkx1ke1e5H+7xDGe/Zm9/fTLesSVdGkihwJIgNwB7kqe/2AH7DW8u0uOv1AqrFbdpaXgx4Q1fWNJdamyXSrs9Xa7hTII4o8boZVkdzIzfmyyR5X/Dg/GmDxC6Aufh9VwUV7Pm2+4B3o6lVGPMADNG3wwz+6tq2fwi0NHS2XqNaemjj86ppKiQheXkMbruJ7nhQP0GrA8fLXb6/wAJ+oTWUkcppKb6qAsOY5VZQGU+xwxH3BIORpL8Gu/hiwfqAJzKquW9XJ6f7TgYmFLncKjpa80l6opJQ9JPFUmOllMTEsQrAYI7gDkf37a1V0d0x4Y+O1HXdaNZaGsvPmbK+UqC7SDgOR/SxUKDgYJGfc6yLf0Wem3zKGaKBwjHuuHOOe/9I/sNXP8AgnulfB1jWUcNSyQ1lDJJUIAMSMrjaT9xk8/fUvp7lHUn+Ur5yCys/wBZctp/Dx09Z6xqi12qno1l4kCoM/3000fhdZoP5c1JBlezkDJ03RzzM7BpCc50s9UV1XAimGodSTzg6+iPUDOJwBnwJ1g6CtFvuUVxgijYoCpG0cjVgf7K2e52z6doI3ikUZBAOqnt9zr5mPmVTtnVrdJyyfTxje2MAd9HUw8CLsUncpfrD8NHRc8k1TDa4eXLgPGjbG+VJHH7ajWHwftNC0a1FLHMF4Xd7DV39VyOsE2Dj0nSBTVM4mQiVvzY0LqitoRlbsV2YXtvQNio6ciCljTcOeOdRX6SssMhP0TOV7Y5xo2ZpTS5LnX5BLIUILnGNeyp1ie35ihQWlI7wDHTOik+kbf++il8u38OkWmlRRuOAMc6YKVVU5CjJJ50q9XRpJWI7qCVYEH40JBUahA5O43WumpaiiSVaZSSMkjQ6vpbWZWiqVRRnjjRaxMy0caKcDYONCrmAawEjPOnMOoBESD2ODPENloJclWJDYIOOM6d7HcaSko1gmAj8sbdA7cqinGFHbUC5TSpNhHIBGdEHKwWrVpy8Q6GLqdfo6eb0P3IHbQKydI0dBtFRIv8v8uRyNNVrPmBt/P6653dVQZVQP00LHscmEgCjqJ//9k=;" parent="1" vertex="1">
                    <mxGeometry x="62.629999999999995" y="490" width="134.87" height="90" as="geometry"/>
                </mxCell>
                <mxCell id="51" style="edgeStyle=orthogonalEdgeStyle;curved=1;html=1;exitX=1;exitY=0.5;exitDx=0;exitDy=0;entryX=0;entryY=0.5;entryDx=0;entryDy=0;" parent="1" source="52" target="54" edge="1">
                    <mxGeometry relative="1" as="geometry"/>
                </mxCell>
                <mxCell id="52" value="&lt;font style=&quot;font-size: 24px;&quot;&gt;GKAN&lt;/font&gt;" style="shape=process;whiteSpace=wrap;html=1;backgroundOutline=1;fillColor=#fff2cc;strokeColor=#d6b656;" parent="1" vertex="1">
                    <mxGeometry x="313.75" y="440" width="252.5" height="125" as="geometry"/>
                </mxCell>
                <mxCell id="53" value="\(f(x,y) = (R,G,B) \)" style="text;html=1;align=center;verticalAlign=middle;whiteSpace=wrap;rounded=0;" parent="1" vertex="1">
                    <mxGeometry x="102.5" y="580" width="60" height="30" as="geometry"/>
                </mxCell>
                <mxCell id="54" value="&lt;font style=&quot;font-size: 18px;&quot;&gt;\(\theta_{\text{comp}}\)&lt;/font&gt;" style="shape=parallelogram;perimeter=parallelogramPerimeter;whiteSpace=wrap;html=1;fixedSize=1;fillColor=#f8cecc;strokeColor=#b85450;" parent="1" vertex="1">
                    <mxGeometry x="650" y="467.5" width="142.5" height="70" as="geometry"/>
                </mxCell>
            </root>
        </mxGraphModel>
    </diagram>
</mxfile>